<?xml version="1.0" encoding="utf-8"?>
<svg version="1.1" xmlns:xlink="http://www.w3.org/1999/xlink" width="15px" height="14px" xmlns="http://www.w3.org/2000/svg">
  <g transform="matrix(1 0 0 1 -103 -25 )">
    <path d="M 6.58954326923077 1.30859375  C 6.3671875 1.10286458333333  6.09375 1  5.76923076923077 1  C 5.45072115384615 1  5.17878605769231 1.09765625  4.95342548076923 1.29296875  C 4.72806490384615 1.48828125  4.61538461538462 1.72395833333333  4.61538461538462 2  L 4.61538461538462 6  L 4.61538461538462 9  L 3.25420673076923 7.421875  C 3.0078125 7.140625  2.68629807692308 7  2.28966346153846 7  C 1.97716346153846 7  1.70973557692308 7.09895833333333  1.48737980769231 7.296875  C 1.26502403846154 7.49479166666667  1.15384615384615 7.72916666666667  1.15384615384615 8  C 1.15384615384615 8.22395833333333  1.23197115384615 8.42447916666667  1.38822115384615 8.6015625  L 4.84975961538462 12.6015625  C 5.078125 12.8671875  5.38461538461539 13  5.76923076923077 13  L 12.2415865384615 13  C 12.3737980769231 13  12.4924879807692 12.96484375  12.59765625 12.89453125  C 12.7028245192308 12.82421875  12.7704326923077 12.734375  12.8004807692308 12.625  L 13.6298076923077 9.75  C 13.7740384615385 9.25  13.8461538461538 8.74479166666667  13.8461538461538 8.234375  L 13.8461538461538 6.5390625  C 13.8461538461538 6.32552083333333  13.7620192307692 6.140625  13.59375 5.984375  C 13.4254807692308 5.828125  13.2211538461538 5.75  12.9807692307692 5.75  C 12.7403846153846 5.75  12.5360576923077 5.82291666666667  12.3677884615385 5.96875  C 12.1995192307692 6.11458333333333  12.1153846153846 6.29166666666667  12.1153846153846 6.5  L 11.8269230769231 6.5  L 11.8269230769231 6.0234375  C 11.8269230769231 5.7734375  11.7307692307692 5.56119791666667  11.5384615384615 5.38671875  C 11.3461538461538 5.21223958333333  11.1057692307692 5.125  10.8173076923077 5.125  C 10.5408653846154 5.125  10.3034855769231 5.2109375  10.1051682692308 5.3828125  C 9.90685096153846 5.5546875  9.80769230769231 5.76041666666667  9.80769230769231 6  L 9.80769230769231 6.5  L 9.51923076923077 6.5  L 9.51923076923077 5.796875  C 9.51923076923077 5.51041666666667  9.40805288461539 5.26432291666667  9.18569711538461 5.05859375  C 8.96334134615385 4.85286458333333  8.68990384615385 4.75  8.36538461538461 4.75  C 8.046875 4.75  7.77493990384615 4.84765625  7.54957932692308 5.04296875  C 7.32421875 5.23828125  7.21153846153846 5.47395833333333  7.21153846153846 5.75  L 7.21153846153846 6.5  L 6.92307692307692 6.5  L 6.92307692307692 2.046875  C 6.92307692307692 1.76041666666667  6.81189903846154 1.51432291666667  6.58954326923077 1.30859375  Z M 4.13762019230769 0.5859375  C 4.58834134615385 0.195312500000001  5.13221153846154 0  5.76923076923077 0  C 6.41225961538462 0  6.95763221153846 0.201822916666667  7.40534855769231 0.605468750000001  C 7.85306490384616 1.00911458333333  8.07692307692308 1.48958333333333  8.07692307692308 2.046875  L 8.07692307692308 3.765625  C 8.20913461538462 3.75520833333333  8.30528846153846 3.75  8.36538461538461 3.75  C 8.96033653846154 3.75  9.48016826923077 3.9296875  9.92487980769231 4.2890625  C 10.2073317307692 4.1796875  10.5048076923077 4.125  10.8173076923077 4.125  C 11.4963942307692 4.125  12.0492788461538 4.3515625  12.4759615384615 4.8046875  C 12.6382211538462 4.76822916666667  12.8064903846154 4.75  12.9807692307692 4.75  C 13.5456730769231 4.75  14.0234375 4.92578125  14.4140625 5.27734375  C 14.8046875 5.62890625  15 6.04947916666667  15 6.5390625  L 15 8.234375  C 15 8.83854166666666  14.9158653846154 9.42447916666667  14.7475961538462 9.9921875  L 13.9182692307692 12.8671875  C 13.8221153846154 13.2005208333333  13.6177884615385 13.47265625  13.3052884615385 13.68359375  C 12.9927884615385 13.89453125  12.6382211538462 14  12.2415865384615 14  L 5.76923076923077 14  C 5.40865384615385 14  5.06460336538462 13.9283854166667  4.73707932692308 13.78515625  C 4.40955528846154 13.6419270833333  4.13762019230769 13.4479166666667  3.92127403846154 13.203125  L 0.459735576923077 9.203125  C 0.153245192307692 8.84895833333333  0 8.44791666666667  0 8  C 0 7.453125  0.223858173076923 6.98307291666667  0.671574519230769 6.58984375  C 1.11929086538462 6.19661458333333  1.65865384615385 6  2.28966346153846 6  C 2.71634615384615 6  3.10697115384615 6.09114583333333  3.46153846153846 6.2734375  L 3.46153846153846 2  C 3.46153846153846 1.44791666666667  3.68689903846154 0.9765625  4.13762019230769 0.5859375  Z M 6.63461538461538 11  L 6.92307692307692 11  L 6.92307692307692 8  L 6.63461538461538 8  L 6.63461538461538 11  Z M 8.94230769230769 11  L 9.23076923076923 11  L 9.23076923076923 8  L 8.94230769230769 8  L 8.94230769230769 11  Z M 11.25 11  L 11.5384615384615 11  L 11.5384615384615 8  L 11.25 8  L 11.25 11  Z " fill-rule="nonzero" fill="#7f7f7f" stroke="none" transform="matrix(1 0 0 1 103 25 )" />
  </g>
</svg>