<?xml version="1.0" encoding="utf-8"?>
<svg version="1.1" xmlns:xlink="http://www.w3.org/1999/xlink" width="150px" height="23px" xmlns="http://www.w3.org/2000/svg">
  <defs>
    <mask fill="white" id="clip1435">
      <path d="M 0 23  L 0 0  L 44.6521739130434 0  L 150 0  L 150 23  L 99.333333333331 23  L 0 23  Z " fill-rule="evenodd" />
    </mask>
  </defs>
  <g transform="matrix(1 0 0 1 -49 -152 )">
    <path d="M 0 23  L 0 0  L 44.6521739130434 0  L 150 0  L 150 23  L 99.333333333331 23  L 0 23  Z " fill-rule="nonzero" fill="#f3f3f3" stroke="none" transform="matrix(1 0 0 1 49 152 )" />
    <path d="M 0 23  L 0 0  L 44.6521739130434 0  L 150 0  L 150 23  L 99.333333333331 23  L 0 23  Z " stroke-width="2" stroke="#e6e6e6" fill="none" transform="matrix(1 0 0 1 49 152 )" mask="url(#clip1435)" />
  </g>
</svg>