<?xml version="1.0" encoding="utf-8"?>
<svg version="1.1" xmlns:xlink="http://www.w3.org/1999/xlink" width="19px" height="300px" xmlns="http://www.w3.org/2000/svg">
  <g transform="matrix(1 0 0 1 -1642 -730 )">
    <path d="M 1646 740  L 1657 740  L 1657 739  L 1646 739  L 1646 740  Z M 1646.85355339059 746.053553390593  L 1651.5 741.407106781187  L 1656.14644660941 746.053553390593  L 1656.85355339059 745.346446609407  L 1651.85355339059 740.346446609407  L 1651.5 739.992893218813  L 1651.14644660941 740.346446609407  L 1646.14644660941 745.346446609407  L 1646.85355339059 746.053553390593  Z M 1657 1020  L 1646 1020  L 1646 1021  L 1657 1021  L 1657 1020  Z M 1656.14644660941 1013.94644660941  L 1651.5 1018.59289321881  L 1646.85355339059 1013.94644660941  L 1646.14644660941 1014.65355339059  L 1651.14644660941 1019.65355339059  L 1651.5 1020.00710678119  L 1651.85355339059 1019.65355339059  L 1656.85355339059 1014.65355339059  L 1656.14644660941 1013.94644660941  Z " fill-rule="nonzero" fill="#ec808d" stroke="none" />
    <path d="M 1651.5 739  L 1651.5 1021  " stroke-width="1" stroke="#ec808d" fill="none" />
  </g>
</svg>