<?xml version="1.0" encoding="utf-8"?>
<svg version="1.1" xmlns:xlink="http://www.w3.org/1999/xlink" width="19px" height="358px" xmlns="http://www.w3.org/2000/svg">
  <g transform="matrix(1 0 0 1 -1456 -854 )">
    <path d="M 1460 864  L 1471 864  L 1471 863  L 1460 863  L 1460 864  Z M 1460.85355339059 870.053553390593  L 1465.5 865.407106781187  L 1470.14644660941 870.053553390593  L 1470.85355339059 869.346446609407  L 1465.85355339059 864.346446609407  L 1465.5 863.992893218813  L 1465.14644660941 864.346446609407  L 1460.14644660941 869.346446609407  L 1460.85355339059 870.053553390593  Z M 1471 1202  L 1460 1202  L 1460 1203  L 1471 1203  L 1471 1202  Z M 1470.14644660941 1195.94644660941  L 1465.5 1200.59289321881  L 1460.85355339059 1195.94644660941  L 1460.14644660941 1196.65355339059  L 1465.14644660941 1201.65355339059  L 1465.5 1202.00710678119  L 1465.85355339059 1201.65355339059  L 1470.85355339059 1196.65355339059  L 1470.14644660941 1195.94644660941  Z " fill-rule="nonzero" fill="#ec808d" stroke="none" />
    <path d="M 1465.5 863  L 1465.5 1203  " stroke-width="1" stroke="#ec808d" fill="none" />
  </g>
</svg>