<?xml version="1.0" encoding="utf-8"?>
<svg version="1.1" xmlns:xlink="http://www.w3.org/1999/xlink" width="344px" height="6px" preserveAspectRatio="xMinYMid meet" viewBox="1294 1031  344 4" xmlns="http://www.w3.org/2000/svg">
  <g transform="matrix(-1 0 0 -1 2932 2066 )">
    <path d="M 1460.5 863.5  L 1471.5 863.5  L 1471.5 862.5  L 1460.5 862.5  L 1460.5 863.5  Z M 1461.35355339059 869.553553390593  L 1466 864.907106781187  L 1470.64644660941 869.553553390593  L 1471.35355339059 868.846446609407  L 1466.35355339059 863.846446609407  L 1466 863.492893218813  L 1465.64644660941 863.846446609407  L 1460.64644660941 868.846446609407  L 1461.35355339059 869.553553390593  Z M 1471.5 1201.5  L 1460.5 1201.5  L 1460.5 1202.5  L 1471.5 1202.5  L 1471.5 1201.5  Z M 1470.64644660941 1195.44644660941  L 1466 1200.09289321881  L 1461.35355339059 1195.44644660941  L 1460.64644660941 1196.15355339059  L 1465.64644660941 1201.15355339059  L 1466 1201.50710678119  L 1466.35355339059 1201.15355339059  L 1471.35355339059 1196.15355339059  L 1470.64644660941 1195.44644660941  Z " fill-rule="nonzero" fill="#ec808d" stroke="none" transform="matrix(6.12303176911189E-17 1 -1 6.12303176911189E-17 2498.5 -432.5 )" />
    <path d="M 1466 862.5  L 1466 1202.5  " stroke-width="1" stroke="#ec808d" fill="none" transform="matrix(6.12303176911189E-17 1 -1 6.12303176911189E-17 2498.5 -432.5 )" />
  </g>
</svg>