<?xml version="1.0" encoding="utf-8"?>
<svg version="1.1" xmlns:xlink="http://www.w3.org/1999/xlink" width="12px" height="13px" xmlns="http://www.w3.org/2000/svg">
  <g transform="matrix(1 0 0 1 -1613 -755 )">
    <path d="M 11.1888 11.3514375  L 11.1872 11.3514375  L 6.41040000000003 6.5  L 11.1872 1.6485625  C 11.2776918663333 1.55665669825529  11.3285296674817 1.43200568128814  11.3285296674817 1.30203125  C 11.3285296674817 1.03137350804814  11.1124937766911 0.811962056463898  10.846 0.811962056463898  C 10.7180251753471 0.811962056463898  10.5952918663333 0.863594198255292  10.5048000000001 0.955500000000002  L 5.72800000000007 5.8069375  L 0.952000000000044 0.9563125  C 0.861508133666757 0.86440669825529  0.738774824652955 0.812774556463899  0.610800000000018 0.812774556463899  C 0.344306223308922 0.812774556463899  0.128270332518332 1.03218600804813  0.128270332518332 1.30284375  C 0.128270332518332 1.43281818128814  0.179108133666796 1.55746919825529  0.269599999999991 1.649375  L 5.04639999999999 6.5008125  L 0.270400000000063 11.3514375  C 0.179908133666777 11.4433433017447  0.129070332518313 11.5679943187119  0.129070332518313 11.69796875  C 0.129070332518313 11.9686264919519  0.345106223308994 12.1880379435361  0.611599999999998 12.1880379435361  C 0.739574824652937 12.1880379435361  0.862308133666738 12.1364058017447  0.952800000000025 12.0445  L 5.72960000000003 7.1930625  L 10.5064 12.0445  C 10.5968918663333 12.1364058017447  10.7196251753471 12.1880379435361  10.8476000000001 12.1880379435361  C 11.1140937766911 12.1880379435361  11.3301296674817 11.9686264919519  11.3301296674817 11.69796875  C 11.3301296674817 11.5679943187119  11.2792918663333 11.4433433017447  11.1888 11.3514375  Z " fill-rule="nonzero" fill="#999999" stroke="none" transform="matrix(1 0 0 1 1613 755 )" />
  </g>
</svg>