<?xml version="1.0" encoding="utf-8"?>
<svg version="1.1" xmlns:xlink="http://www.w3.org/1999/xlink" width="224px" height="37px" xmlns="http://www.w3.org/2000/svg">
  <defs>
    <filter x="30px" y="96px" width="224px" height="37px" filterUnits="userSpaceOnUse" id="filter1272">
      <feOffset dx="2" dy="2" in="SourceAlpha" result="shadowOffsetInner" />
      <feGaussianBlur stdDeviation="0.5" in="shadowOffsetInner" result="shadowGaussian" />
      <feComposite in2="shadowGaussian" operator="atop" in="SourceAlpha" result="shadowComposite" />
      <feColorMatrix type="matrix" values="0 0 0 0 0.6  0 0 0 0 0.6  0 0 0 0 0.6  0 0 0 0.67843137254902 0  " in="shadowComposite" />
    </filter>
    <g id="widget1273">
      <path d="M 30.5 100  A 3.5 3.5 0 0 1 34 96.5 L 247 96.5  A 3.5 3.5 0 0 1 250.5 100 L 250.5 126  A 3.5 3.5 0 0 1 247 129.5 L 34 129.5  A 3.5 3.5 0 0 1 30.5 126 L 30.5 100  Z " fill-rule="nonzero" fill="#ffffff" stroke="none" fill-opacity="0.996078431372549" />
      <path d="M 30.5 100  A 3.5 3.5 0 0 1 34 96.5 L 247 96.5  A 3.5 3.5 0 0 1 250.5 100 L 250.5 126  A 3.5 3.5 0 0 1 247 129.5 L 34 129.5  A 3.5 3.5 0 0 1 30.5 126 L 30.5 100  Z " stroke-width="1" stroke="#f2f2f2" fill="none" />
    </g>
  </defs>
  <g transform="matrix(1 0 0 1 -30 -96 )">
    <use xlink:href="#widget1273" filter="url(#filter1272)" />
    <use xlink:href="#widget1273" />
  </g>
</svg>