<?xml version="1.0" encoding="utf-8"?>
<svg version="1.1" xmlns:xlink="http://www.w3.org/1999/xlink" width="12px" height="12px" viewBox="126 256.5  12 12" xmlns="http://www.w3.org/2000/svg">
  <path d="M 132 256.5  C 135.36 256.5  138 259.14  138 262.5  C 138 265.86  135.36 268.5  132 268.5  C 128.64 268.5  126 265.86  126 262.5  C 126 259.14  128.64 256.5  132 256.5  Z " fill-rule="nonzero" fill="#ffffff" stroke="none" />
  <path d="M 132 257  C 135.08 257  137.5 259.42  137.5 262.5  C 137.5 265.58  135.08 268  132 268  C 128.92 268  126.5 265.58  126.5 262.5  C 126.5 259.42  128.92 257  132 257  Z " stroke-width="1" stroke="#0070cc" fill="none" />
  <path d="M 132 265.5  C 130.32 265.5  129 264.18  129 262.5  C 129 260.82  130.32 259.5  132 259.5  C 133.68 259.5  135 260.82  135 262.5  C 135 264.18  133.68 265.5  132 265.5  " fill-rule="nonzero" fill="#0070cc" stroke="none" />
</svg>