<?xml version="1.0" encoding="utf-8"?>
<svg version="1.1" xmlns:xlink="http://www.w3.org/1999/xlink" width="12px" height="12px" viewBox="195 256.5  12 12" xmlns="http://www.w3.org/2000/svg">
  <path d="M 201 256.5  C 204.36 256.5  207 259.14  207 262.5  C 207 265.86  204.36 268.5  201 268.5  C 197.64 268.5  195 265.86  195 262.5  C 195 259.14  197.64 256.5  201 256.5  Z " fill-rule="nonzero" fill="#f0f0f0" stroke="none" />
  <path d="M 201 257  C 204.08 257  206.5 259.42  206.5 262.5  C 206.5 265.58  204.08 268  201 268  C 197.92 268  195.5 265.58  195.5 262.5  C 195.5 259.42  197.92 257  201 257  Z " stroke-width="1" stroke="#aaaaaa" fill="none" />
  <path d="M 201 265.5  C 199.32 265.5  198 264.18  198 262.5  C 198 260.82  199.32 259.5  201 259.5  C 202.68 259.5  204 260.82  204 262.5  C 204 264.18  202.68 265.5  201 265.5  " fill-rule="nonzero" fill="#aaaaaa" stroke="none" />
</svg>