<?xml version="1.0" encoding="utf-8"?>
<svg version="1.1" xmlns:xlink="http://www.w3.org/1999/xlink" width="12px" height="12px" viewBox="194 1150.5  12 12" xmlns="http://www.w3.org/2000/svg">
  <path d="M 200 1150.5  C 203.36 1150.5  206 1153.14  206 1156.5  C 206 1159.86  203.36 1162.5  200 1162.5  C 196.64 1162.5  194 1159.86  194 1156.5  C 194 1153.14  196.64 1150.5  200 1150.5  Z " fill-rule="nonzero" fill="#ffffff" stroke="none" />
  <path d="M 200 1151  C 203.08 1151  205.5 1153.42  205.5 1156.5  C 205.5 1159.58  203.08 1162  200 1162  C 196.92 1162  194.5 1159.58  194.5 1156.5  C 194.5 1153.42  196.92 1151  200 1151  Z " stroke-width="1" stroke="#0070cc" fill="none" />
  <path d="M 200 1159.5  C 198.32 1159.5  197 1158.18  197 1156.5  C 197 1154.82  198.32 1153.5  200 1153.5  C 201.68 1153.5  203 1154.82  203 1156.5  C 203 1158.18  201.68 1159.5  200 1159.5  " fill-rule="nonzero" fill="#0070cc" stroke="none" />
</svg>