<?xml version="1.0" encoding="utf-8"?>
<svg version="1.1" xmlns:xlink="http://www.w3.org/1999/xlink" width="12px" height="12px" viewBox="-348 910.5  12 12" xmlns="http://www.w3.org/2000/svg">
  <path d="M -342 910.5  C -338.64 910.5  -336 913.14  -336 916.5  C -336 919.86  -338.64 922.5  -342 922.5  C -345.36 922.5  -348 919.86  -348 916.5  C -348 913.14  -345.36 910.5  -342 910.5  Z " fill-rule="nonzero" fill="#ffffff" stroke="none" />
  <path d="M -342 911  C -338.92 911  -336.5 913.42  -336.5 916.5  C -336.5 919.58  -338.92 922  -342 922  C -345.08 922  -347.5 919.58  -347.5 916.5  C -347.5 913.42  -345.08 911  -342 911  Z " stroke-width="1" stroke="#0070cc" fill="none" />
  <path d="M -342 919.5  C -343.68 919.5  -345 918.18  -345 916.5  C -345 914.82  -343.68 913.5  -342 913.5  C -340.32 913.5  -339 914.82  -339 916.5  C -339 918.18  -340.32 919.5  -342 919.5  " fill-rule="nonzero" fill="#0070cc" stroke="none" />
</svg>