<?xml version="1.0" encoding="utf-8"?>
<svg version="1.1" xmlns:xlink="http://www.w3.org/1999/xlink" width="12px" height="12px" viewBox="-388 910.5  12 12" xmlns="http://www.w3.org/2000/svg">
  <path d="M -382 910.5  C -378.64 910.5  -376 913.14  -376 916.5  C -376 919.86  -378.64 922.5  -382 922.5  C -385.36 922.5  -388 919.86  -388 916.5  C -388 913.14  -385.36 910.5  -382 910.5  Z " fill-rule="nonzero" fill="#ffffff" stroke="none" />
  <path d="M -382 911  C -378.92 911  -376.5 913.42  -376.5 916.5  C -376.5 919.58  -378.92 922  -382 922  C -385.08 922  -387.5 919.58  -387.5 916.5  C -387.5 913.42  -385.08 911  -382 911  Z " stroke-width="1" stroke="#0070cc" fill="none" />
  <path d="M -382 919.5  C -383.68 919.5  -385 918.18  -385 916.5  C -385 914.82  -383.68 913.5  -382 913.5  C -380.32 913.5  -379 914.82  -379 916.5  C -379 918.18  -380.32 919.5  -382 919.5  " fill-rule="nonzero" fill="#0070cc" stroke="none" />
</svg>