<?xml version="1.0" encoding="utf-8"?>
<svg version="1.1" xmlns:xlink="http://www.w3.org/1999/xlink" width="142px" height="23px" xmlns="http://www.w3.org/2000/svg">
  <defs>
    <mask fill="white" id="clip2294">
      <path d="M 0 23  L 0 0  L 42.2707246376811 0  L 142 0  L 142 23  L 94.0355555555534 23  L 0 23  Z " fill-rule="evenodd" />
    </mask>
  </defs>
  <g transform="matrix(1 0 0 1 -49 -153 )">
    <path d="M 0 23  L 0 0  L 42.2707246376811 0  L 142 0  L 142 23  L 94.0355555555534 23  L 0 23  Z " fill-rule="nonzero" fill="#f3f3f3" stroke="none" transform="matrix(1 0 0 1 49 153 )" />
    <path d="M 0 23  L 0 0  L 42.2707246376811 0  L 142 0  L 142 23  L 94.0355555555534 23  L 0 23  Z " stroke-width="2" stroke="#e6e6e6" fill="none" transform="matrix(1 0 0 1 49 153 )" mask="url(#clip2294)" />
  </g>
</svg>