<?xml version="1.0" encoding="utf-8"?>
<svg version="1.1" xmlns:xlink="http://www.w3.org/1999/xlink" width="12px" height="12px" viewBox="6 341  12 12" xmlns="http://www.w3.org/2000/svg">
  <path d="M 6.5 343  A 1.5 1.5 0 0 1 8 341.5 L 16 341.5  A 1.5 1.5 0 0 1 17.5 343 L 17.5 351  A 1.5 1.5 0 0 1 16 352.5 L 8 352.5  A 1.5 1.5 0 0 1 6.5 351 L 6.5 343  Z " fill-rule="nonzero" fill="#ffffff" stroke="none" />
  <path d="M 6.5 343  A 1.5 1.5 0 0 1 8 341.5 L 16 341.5  A 1.5 1.5 0 0 1 17.5 343 L 17.5 351  A 1.5 1.5 0 0 1 16 352.5 L 8 352.5  A 1.5 1.5 0 0 1 6.5 351 L 6.5 343  Z " stroke-width="1" stroke="#aaaaaa" fill="none" />
</svg>