<?xml version="1.0" encoding="utf-8"?>
<svg version="1.1" xmlns:xlink="http://www.w3.org/1999/xlink" width="84px" height="33px" xmlns="http://www.w3.org/2000/svg">
  <defs>
    <filter x="1029px" y="142px" width="84px" height="33px" filterUnits="userSpaceOnUse" id="filter916">
      <feOffset dx="2" dy="2" in="SourceAlpha" result="shadowOffsetInner" />
      <feGaussianBlur stdDeviation="0.5" in="shadowOffsetInner" result="shadowGaussian" />
      <feComposite in2="shadowGaussian" operator="atop" in="SourceAlpha" result="shadowComposite" />
      <feColorMatrix type="matrix" values="0 0 0 0 0.6  0 0 0 0 0.6  0 0 0 0 0.6  0 0 0 0.67843137254902 0  " in="shadowComposite" />
    </filter>
    <g id="widget917">
      <path d="M 1029.5 143  A 0.5 0.5 0 0 1 1030 142.5 L 1109 142.5  A 0.5 0.5 0 0 1 1109.5 143 L 1109.5 171  A 0.5 0.5 0 0 1 1109 171.5 L 1030 171.5  A 0.5 0.5 0 0 1 1029.5 171 L 1029.5 143  Z " fill-rule="nonzero" fill="#ffffff" stroke="none" fill-opacity="0.996078431372549" />
      <path d="M 1029.5 143  A 0.5 0.5 0 0 1 1030 142.5 L 1109 142.5  A 0.5 0.5 0 0 1 1109.5 143 L 1109.5 171  A 0.5 0.5 0 0 1 1109 171.5 L 1030 171.5  A 0.5 0.5 0 0 1 1029.5 171 L 1029.5 143  Z " stroke-width="1" stroke="#cccccc" fill="none" />
    </g>
  </defs>
  <g transform="matrix(1 0 0 1 -1029 -142 )">
    <use xlink:href="#widget917" filter="url(#filter916)" />
    <use xlink:href="#widget917" />
  </g>
</svg>