<?xml version="1.0" encoding="utf-8"?>
<svg version="1.1" xmlns:xlink="http://www.w3.org/1999/xlink" width="820px" height="415px" xmlns="http://www.w3.org/2000/svg">
  <g transform="matrix(1 0 0 1 -215 -200 )">
    <path d="M 216 208  A 7 7 0 0 1 223 201 L 1027 201  A 7 7 0 0 1 1034 208 L 1034 607  A 7 7 0 0 1 1027 614 L 223 614  A 7 7 0 0 1 216 607 L 216 208  Z " fill-rule="nonzero" fill="#ffffff" stroke="none" />
    <path d="M 215.5 208  A 7.5 7.5 0 0 1 223 200.5 L 1027 200.5  A 7.5 7.5 0 0 1 1034.5 208 L 1034.5 607  A 7.5 7.5 0 0 1 1027 614.5 L 223 614.5  A 7.5 7.5 0 0 1 215.5 607 L 215.5 208  Z " stroke-width="1" stroke-dasharray="9,4,2,4" stroke="#00b7b7" fill="none" stroke-dashoffset="0.5" />
  </g>
</svg>