<?xml version="1.0" encoding="utf-8"?>
<svg version="1.1" xmlns:xlink="http://www.w3.org/1999/xlink" width="12px" height="12px" viewBox="8 84  12 12" xmlns="http://www.w3.org/2000/svg">
  <path d="M 8.5 86  A 1.5 1.5 0 0 1 10 84.5 L 18 84.5  A 1.5 1.5 0 0 1 19.5 86 L 19.5 94  A 1.5 1.5 0 0 1 18 95.5 L 10 95.5  A 1.5 1.5 0 0 1 8.5 94 L 8.5 86  Z " fill-rule="nonzero" fill="#f0f0f0" stroke="none" />
  <path d="M 8.5 86  A 1.5 1.5 0 0 1 10 84.5 L 18 84.5  A 1.5 1.5 0 0 1 19.5 86 L 19.5 94  A 1.5 1.5 0 0 1 18 95.5 L 10 95.5  A 1.5 1.5 0 0 1 8.5 94 L 8.5 86  Z " stroke-width="1" stroke="#aaaaaa" fill="none" />
  <path d="M 10.5714285714286 90  L 13.1428571428571 92.5714285714286  " stroke-width="2.57142857142857" stroke="#aaaaaa" fill="none" />
  <path d="M 13.1428571428571 92.5714285714286  L 17.4285714285714 86.5714285714286  " stroke-width="2.57142857142857" stroke="#aaaaaa" fill="none" />
</svg>