<?xml version="1.0" encoding="utf-8"?>
<svg version="1.1" xmlns:xlink="http://www.w3.org/1999/xlink" width="12px" height="12px" viewBox="8 121  12 12" xmlns="http://www.w3.org/2000/svg">
  <path d="M 8.5 123  A 1.5 1.5 0 0 1 10 121.5 L 18 121.5  A 1.5 1.5 0 0 1 19.5 123 L 19.5 131  A 1.5 1.5 0 0 1 18 132.5 L 10 132.5  A 1.5 1.5 0 0 1 8.5 131 L 8.5 123  Z " fill-rule="nonzero" fill="#ffffff" stroke="none" />
  <path d="M 8.5 123  A 1.5 1.5 0 0 1 10 121.5 L 18 121.5  A 1.5 1.5 0 0 1 19.5 123 L 19.5 131  A 1.5 1.5 0 0 1 18 132.5 L 10 132.5  A 1.5 1.5 0 0 1 8.5 131 L 8.5 123  Z " stroke-width="1" stroke="#aaaaaa" fill="none" />
</svg>