<?xml version="1.0" encoding="utf-8"?>
<svg version="1.1" xmlns:xlink="http://www.w3.org/1999/xlink" width="12px" height="12px" viewBox="8 159  12 12" xmlns="http://www.w3.org/2000/svg">
  <path d="M 8.5 161  A 1.5 1.5 0 0 1 10 159.5 L 18 159.5  A 1.5 1.5 0 0 1 19.5 161 L 19.5 169  A 1.5 1.5 0 0 1 18 170.5 L 10 170.5  A 1.5 1.5 0 0 1 8.5 169 L 8.5 161  Z " fill-rule="nonzero" fill="#f0f0f0" stroke="none" />
  <path d="M 8.5 161  A 1.5 1.5 0 0 1 10 159.5 L 18 159.5  A 1.5 1.5 0 0 1 19.5 161 L 19.5 169  A 1.5 1.5 0 0 1 18 170.5 L 10 170.5  A 1.5 1.5 0 0 1 8.5 169 L 8.5 161  Z " stroke-width="1" stroke="#aaaaaa" fill="none" />
  <path d="M 10.5714285714286 165  L 13.1428571428571 167.571428571429  " stroke-width="2.57142857142857" stroke="#aaaaaa" fill="none" />
  <path d="M 13.1428571428571 167.571428571429  L 17.4285714285714 161.571428571429  " stroke-width="2.57142857142857" stroke="#aaaaaa" fill="none" />
</svg>