<?xml version="1.0" encoding="utf-8"?>
<svg version="1.1" xmlns:xlink="http://www.w3.org/1999/xlink" width="12px" height="12px" viewBox="8 199  12 12" xmlns="http://www.w3.org/2000/svg">
  <path d="M 8.5 201  A 1.5 1.5 0 0 1 10 199.5 L 18 199.5  A 1.5 1.5 0 0 1 19.5 201 L 19.5 209  A 1.5 1.5 0 0 1 18 210.5 L 10 210.5  A 1.5 1.5 0 0 1 8.5 209 L 8.5 201  Z " fill-rule="nonzero" fill="#f0f0f0" stroke="none" />
  <path d="M 8.5 201  A 1.5 1.5 0 0 1 10 199.5 L 18 199.5  A 1.5 1.5 0 0 1 19.5 201 L 19.5 209  A 1.5 1.5 0 0 1 18 210.5 L 10 210.5  A 1.5 1.5 0 0 1 8.5 209 L 8.5 201  Z " stroke-width="1" stroke="#aaaaaa" fill="none" />
  <path d="M 10.5714285714286 205  L 13.1428571428571 207.571428571429  " stroke-width="2.57142857142857" stroke="#aaaaaa" fill="none" />
  <path d="M 13.1428571428571 207.571428571429  L 17.4285714285714 201.571428571429  " stroke-width="2.57142857142857" stroke="#aaaaaa" fill="none" />
</svg>