<?xml version="1.0" encoding="utf-8"?>
<svg version="1.1" xmlns:xlink="http://www.w3.org/1999/xlink" width="12px" height="12px" viewBox="8 43  12 12" xmlns="http://www.w3.org/2000/svg">
  <path d="M 8.5 45  A 1.5 1.5 0 0 1 10 43.5 L 18 43.5  A 1.5 1.5 0 0 1 19.5 45 L 19.5 53  A 1.5 1.5 0 0 1 18 54.5 L 10 54.5  A 1.5 1.5 0 0 1 8.5 53 L 8.5 45  Z " fill-rule="nonzero" fill="#ffffff" stroke="none" />
  <path d="M 8.5 45  A 1.5 1.5 0 0 1 10 43.5 L 18 43.5  A 1.5 1.5 0 0 1 19.5 45 L 19.5 53  A 1.5 1.5 0 0 1 18 54.5 L 10 54.5  A 1.5 1.5 0 0 1 8.5 53 L 8.5 45  Z " stroke-width="1" stroke="#aaaaaa" fill="none" />
</svg>