<?xml version="1.0" encoding="utf-8"?>
<svg version="1.1" xmlns:xlink="http://www.w3.org/1999/xlink" width="597px" height="687px" xmlns="http://www.w3.org/2000/svg">
  <g transform="matrix(1 0 0 1 -1245 -969 )">
    <path d="M 1246 973  A 3 3 0 0 1 1249 970 L 1838 970  A 3 3 0 0 1 1841 973 L 1841 1652  A 3 3 0 0 1 1838 1655 L 1249 1655  A 3 3 0 0 1 1246 1652 L 1246 973  Z " fill-rule="nonzero" fill="#f2f2f2" stroke="none" />
    <path d="M 1245.5 973  A 3.5 3.5 0 0 1 1249 969.5 L 1838 969.5  A 3.5 3.5 0 0 1 1841.5 973 L 1841.5 1652  A 3.5 3.5 0 0 1 1838 1655.5 L 1249 1655.5  A 3.5 3.5 0 0 1 1245.5 1652 L 1245.5 973  Z " stroke-width="1" stroke-dasharray="9,4" stroke="#ec808d" fill="none" stroke-dashoffset="0.5" />
  </g>
</svg>