<?xml version="1.0" encoding="utf-8"?>
<svg version="1.1" xmlns:xlink="http://www.w3.org/1999/xlink" width="12px" height="12px" viewBox="39 350  12 12" xmlns="http://www.w3.org/2000/svg">
  <path d="M 39.5 352  A 1.5 1.5 0 0 1 41 350.5 L 49 350.5  A 1.5 1.5 0 0 1 50.5 352 L 50.5 360  A 1.5 1.5 0 0 1 49 361.5 L 41 361.5  A 1.5 1.5 0 0 1 39.5 360 L 39.5 352  Z " fill-rule="nonzero" fill="#f0f0f0" stroke="none" />
  <path d="M 39.5 352  A 1.5 1.5 0 0 1 41 350.5 L 49 350.5  A 1.5 1.5 0 0 1 50.5 352 L 50.5 360  A 1.5 1.5 0 0 1 49 361.5 L 41 361.5  A 1.5 1.5 0 0 1 39.5 360 L 39.5 352  Z " stroke-width="1" stroke="#aaaaaa" fill="none" />
  <path d="M 41.5714285714286 356  L 44.1428571428571 358.571428571429  " stroke-width="2.57142857142857" stroke="#aaaaaa" fill="none" />
  <path d="M 44.1428571428571 358.571428571429  L 48.4285714285714 352.571428571429  " stroke-width="2.57142857142857" stroke="#aaaaaa" fill="none" />
</svg>