<?xml version="1.0" encoding="utf-8"?>
<svg version="1.1" xmlns:xlink="http://www.w3.org/1999/xlink" width="14px" height="14px" viewBox="386 -82  14 14" xmlns="http://www.w3.org/2000/svg">
  <path d="M 386.5 -80  A 1.5 1.5 0 0 1 388 -81.5 L 398 -81.5  A 1.5 1.5 0 0 1 399.5 -80 L 399.5 -70  A 1.5 1.5 0 0 1 398 -68.5 L 388 -68.5  A 1.5 1.5 0 0 1 386.5 -70 L 386.5 -80  Z " fill-rule="nonzero" fill="#ffffff" stroke="none" />
  <path d="M 386.5 -80  A 1.5 1.5 0 0 1 388 -81.5 L 398 -81.5  A 1.5 1.5 0 0 1 399.5 -80 L 399.5 -70  A 1.5 1.5 0 0 1 398 -68.5 L 388 -68.5  A 1.5 1.5 0 0 1 386.5 -70 L 386.5 -80  Z " stroke-width="1" stroke="#aaaaaa" fill="none" />
</svg>