<?xml version="1.0" encoding="utf-8"?>
<svg version="1.1" xmlns:xlink="http://www.w3.org/1999/xlink" width="12px" height="12px" viewBox="45 282  12 12" xmlns="http://www.w3.org/2000/svg">
  <path d="M 45.5 284  A 1.5 1.5 0 0 1 47 282.5 L 55 282.5  A 1.5 1.5 0 0 1 56.5 284 L 56.5 292  A 1.5 1.5 0 0 1 55 293.5 L 47 293.5  A 1.5 1.5 0 0 1 45.5 292 L 45.5 284  Z " fill-rule="nonzero" fill="#f0f0f0" stroke="none" />
  <path d="M 45.5 284  A 1.5 1.5 0 0 1 47 282.5 L 55 282.5  A 1.5 1.5 0 0 1 56.5 284 L 56.5 292  A 1.5 1.5 0 0 1 55 293.5 L 47 293.5  A 1.5 1.5 0 0 1 45.5 292 L 45.5 284  Z " stroke-width="1" stroke="#d2d2d2" fill="none" />
</svg>