<?xml version="1.0" encoding="utf-8"?>
<svg version="1.1" xmlns:xlink="http://www.w3.org/1999/xlink" width="12px" height="12px" viewBox="45 438  12 12" xmlns="http://www.w3.org/2000/svg">
  <path d="M 45.5 440  A 1.5 1.5 0 0 1 47 438.5 L 55 438.5  A 1.5 1.5 0 0 1 56.5 440 L 56.5 448  A 1.5 1.5 0 0 1 55 449.5 L 47 449.5  A 1.5 1.5 0 0 1 45.5 448 L 45.5 440  Z " fill-rule="nonzero" fill="#f0f0f0" stroke="none" />
  <path d="M 45.5 440  A 1.5 1.5 0 0 1 47 438.5 L 55 438.5  A 1.5 1.5 0 0 1 56.5 440 L 56.5 448  A 1.5 1.5 0 0 1 55 449.5 L 47 449.5  A 1.5 1.5 0 0 1 45.5 448 L 45.5 440  Z " stroke-width="1" stroke="#d2d2d2" fill="none" />
  <path d="M 47.5714285714286 444  L 50.1428571428571 446.571428571429  " stroke-width="2.57142857142857" stroke="#d2d2d2" fill="none" />
  <path d="M 50.1428571428571 446.571428571429  L 54.4285714285714 440.571428571429  " stroke-width="2.57142857142857" stroke="#d2d2d2" fill="none" />
</svg>