<?xml version="1.0" encoding="utf-8"?>
<svg version="1.1" xmlns:xlink="http://www.w3.org/1999/xlink" width="12px" height="12px" viewBox="45 477  12 12" xmlns="http://www.w3.org/2000/svg">
  <path d="M 45.5 479  A 1.5 1.5 0 0 1 47 477.5 L 55 477.5  A 1.5 1.5 0 0 1 56.5 479 L 56.5 487  A 1.5 1.5 0 0 1 55 488.5 L 47 488.5  A 1.5 1.5 0 0 1 45.5 487 L 45.5 479  Z " fill-rule="nonzero" fill="#ffffff" stroke="none" />
  <path d="M 45.5 479  A 1.5 1.5 0 0 1 47 477.5 L 55 477.5  A 1.5 1.5 0 0 1 56.5 479 L 56.5 487  A 1.5 1.5 0 0 1 55 488.5 L 47 488.5  A 1.5 1.5 0 0 1 45.5 487 L 45.5 479  Z " stroke-width="1" stroke="#d2d2d2" fill="none" />
</svg>