<?xml version="1.0" encoding="utf-8"?>
<svg version="1.1" xmlns:xlink="http://www.w3.org/1999/xlink" width="14px" height="14px" viewBox="329 -418.5  14 14" xmlns="http://www.w3.org/2000/svg">
  <path d="M 336 -418.5  C 339.92 -418.5  343 -415.42  343 -411.5  C 343 -407.58  339.92 -404.5  336 -404.5  C 332.08 -404.5  329 -407.58  329 -411.5  C 329 -415.42  332.08 -418.5  336 -418.5  Z " fill-rule="nonzero" fill="#ffffff" stroke="none" />
  <path d="M 336 -418  C 339.64 -418  342.5 -415.14  342.5 -411.5  C 342.5 -407.86  339.64 -405  336 -405  C 332.36 -405  329.5 -407.86  329.5 -411.5  C 329.5 -415.14  332.36 -418  336 -418  Z " stroke-width="1" stroke="#0070cc" fill="none" />
  <path d="M 336 -408  C 334.04 -408  332.5 -409.54  332.5 -411.5  C 332.5 -413.46  334.04 -415  336 -415  C 337.96 -415  339.5 -413.46  339.5 -411.5  C 339.5 -409.54  337.96 -408  336 -408  " fill-rule="nonzero" fill="#0070cc" stroke="none" />
</svg>