<?xml version="1.0" encoding="utf-8"?>
<svg version="1.1" xmlns:xlink="http://www.w3.org/1999/xlink" width="14px" height="14px" viewBox="-1096 381.5  14 14" xmlns="http://www.w3.org/2000/svg">
  <path d="M -1089 381.5  C -1085.08 381.5  -1082 384.58  -1082 388.5  C -1082 392.42  -1085.08 395.5  -1089 395.5  C -1092.92 395.5  -1096 392.42  -1096 388.5  C -1096 384.58  -1092.92 381.5  -1089 381.5  Z " fill-rule="nonzero" fill="#ffffff" stroke="none" />
  <path d="M -1089 382  C -1085.36 382  -1082.5 384.86  -1082.5 388.5  C -1082.5 392.14  -1085.36 395  -1089 395  C -1092.64 395  -1095.5 392.14  -1095.5 388.5  C -1095.5 384.86  -1092.64 382  -1089 382  Z " stroke-width="1" stroke="#0070cc" fill="none" />
  <path d="M -1089 392  C -1090.96 392  -1092.5 390.46  -1092.5 388.5  C -1092.5 386.54  -1090.96 385  -1089 385  C -1087.04 385  -1085.5 386.54  -1085.5 388.5  C -1085.5 390.46  -1087.04 392  -1089 392  " fill-rule="nonzero" fill="#0070cc" stroke="none" />
</svg>