<?xml version="1.0" encoding="utf-8"?>
<svg version="1.1" xmlns:xlink="http://www.w3.org/1999/xlink" width="14px" height="14px" viewBox="-1041 381.5  14 14" xmlns="http://www.w3.org/2000/svg">
  <path d="M -1034 381.5  C -1030.08 381.5  -1027 384.58  -1027 388.5  C -1027 392.42  -1030.08 395.5  -1034 395.5  C -1037.92 395.5  -1041 392.42  -1041 388.5  C -1041 384.58  -1037.92 381.5  -1034 381.5  Z " fill-rule="nonzero" fill="#ffffff" stroke="none" />
  <path d="M -1034 382  C -1030.36 382  -1027.5 384.86  -1027.5 388.5  C -1027.5 392.14  -1030.36 395  -1034 395  C -1037.64 395  -1040.5 392.14  -1040.5 388.5  C -1040.5 384.86  -1037.64 382  -1034 382  Z " stroke-width="1" stroke="#0070cc" fill="none" />
  <path d="M -1034 392  C -1035.96 392  -1037.5 390.46  -1037.5 388.5  C -1037.5 386.54  -1035.96 385  -1034 385  C -1032.04 385  -1030.5 386.54  -1030.5 388.5  C -1030.5 390.46  -1032.04 392  -1034 392  " fill-rule="nonzero" fill="#0070cc" stroke="none" />
</svg>