<?xml version="1.0" encoding="utf-8"?>
<svg version="1.1" xmlns:xlink="http://www.w3.org/1999/xlink" width="12px" height="12px" viewBox="8 243  12 12" xmlns="http://www.w3.org/2000/svg">
  <path d="M 8.5 245  A 1.5 1.5 0 0 1 10 243.5 L 18 243.5  A 1.5 1.5 0 0 1 19.5 245 L 19.5 253  A 1.5 1.5 0 0 1 18 254.5 L 10 254.5  A 1.5 1.5 0 0 1 8.5 253 L 8.5 245  Z " fill-rule="nonzero" fill="#ffffff" stroke="none" />
  <path d="M 8.5 245  A 1.5 1.5 0 0 1 10 243.5 L 18 243.5  A 1.5 1.5 0 0 1 19.5 245 L 19.5 253  A 1.5 1.5 0 0 1 18 254.5 L 10 254.5  A 1.5 1.5 0 0 1 8.5 253 L 8.5 245  Z " stroke-width="1" stroke="#aaaaaa" fill="none" />
</svg>