<?xml version="1.0" encoding="utf-8"?>
<svg version="1.1" xmlns:xlink="http://www.w3.org/1999/xlink" width="12px" height="12px" viewBox="7 380  12 12" xmlns="http://www.w3.org/2000/svg">
  <path d="M 7.5 382  A 1.5 1.5 0 0 1 9 380.5 L 17 380.5  A 1.5 1.5 0 0 1 18.5 382 L 18.5 390  A 1.5 1.5 0 0 1 17 391.5 L 9 391.5  A 1.5 1.5 0 0 1 7.5 390 L 7.5 382  Z " fill-rule="nonzero" fill="#f0f0f0" stroke="none" />
  <path d="M 7.5 382  A 1.5 1.5 0 0 1 9 380.5 L 17 380.5  A 1.5 1.5 0 0 1 18.5 382 L 18.5 390  A 1.5 1.5 0 0 1 17 391.5 L 9 391.5  A 1.5 1.5 0 0 1 7.5 390 L 7.5 382  Z " stroke-width="1" stroke="#aaaaaa" fill="none" />
  <path d="M 9.57142857142857 386  L 12.1428571428571 388.571428571429  " stroke-width="2.57142857142857" stroke="#aaaaaa" fill="none" />
  <path d="M 12.1428571428571 388.571428571429  L 16.4285714285714 382.571428571429  " stroke-width="2.57142857142857" stroke="#aaaaaa" fill="none" />
</svg>