<?xml version="1.0" encoding="utf-8"?>
<svg version="1.1" xmlns:xlink="http://www.w3.org/1999/xlink" width="12px" height="12px" viewBox="8 202  12 12" xmlns="http://www.w3.org/2000/svg">
  <path d="M 8.5 204  A 1.5 1.5 0 0 1 10 202.5 L 18 202.5  A 1.5 1.5 0 0 1 19.5 204 L 19.5 212  A 1.5 1.5 0 0 1 18 213.5 L 10 213.5  A 1.5 1.5 0 0 1 8.5 212 L 8.5 204  Z " fill-rule="nonzero" fill="#ffffff" stroke="none" />
  <path d="M 8.5 204  A 1.5 1.5 0 0 1 10 202.5 L 18 202.5  A 1.5 1.5 0 0 1 19.5 204 L 19.5 212  A 1.5 1.5 0 0 1 18 213.5 L 10 213.5  A 1.5 1.5 0 0 1 8.5 212 L 8.5 204  Z " stroke-width="1" stroke="#aaaaaa" fill="none" />
  <path d="M 10.5714285714286 208  L 13.1428571428571 210.571428571429  " stroke-width="2.57142857142857" stroke="#aaaaaa" fill="none" />
  <path d="M 13.1428571428571 210.571428571429  L 17.4285714285714 204.571428571429  " stroke-width="2.57142857142857" stroke="#aaaaaa" fill="none" />
</svg>