<?xml version="1.0" encoding="utf-8"?>
<svg version="1.1" xmlns:xlink="http://www.w3.org/1999/xlink" width="15px" height="16px" xmlns="http://www.w3.org/2000/svg">
  <g transform="matrix(1 0 0 1 -1091 -137 )">
    <path d="M 6.58954326923077 1.49553571428571  C 6.3671875 1.26041666666667  6.09375 1.14285714285714  5.76923076923077 1.14285714285714  C 5.45072115384615 1.14285714285714  5.17878605769231 1.25446428571429  4.95342548076923 1.47767857142857  C 4.72806490384615 1.70089285714286  4.61538461538462 1.97023809523809  4.61538461538462 2.28571428571429  L 4.61538461538462 6.85714285714286  L 4.61538461538462 10.2857142857143  L 3.25420673076923 8.48214285714286  C 3.0078125 8.16071428571428  2.68629807692308 8  2.28966346153846 8  C 1.97716346153846 8  1.70973557692308 8.11309523809524  1.48737980769231 8.33928571428572  C 1.26502403846154 8.56547619047619  1.15384615384615 8.83333333333333  1.15384615384615 9.14285714285714  C 1.15384615384615 9.39880952380952  1.23197115384615 9.62797619047619  1.38822115384615 9.83035714285714  L 4.84975961538462 14.4017857142857  C 5.078125 14.7053571428571  5.38461538461539 14.8571428571429  5.76923076923077 14.8571428571429  L 12.2415865384615 14.8571428571429  C 12.3737980769231 14.8571428571429  12.4924879807692 14.8169642857143  12.59765625 14.7366071428571  C 12.7028245192308 14.65625  12.7704326923077 14.5535714285714  12.8004807692308 14.4285714285714  L 13.6298076923077 11.1428571428571  C 13.7740384615385 10.5714285714286  13.8461538461538 9.99404761904762  13.8461538461538 9.41071428571428  L 13.8461538461538 7.47321428571429  C 13.8461538461538 7.22916666666667  13.7620192307692 7.01785714285714  13.59375 6.83928571428571  C 13.4254807692308 6.66071428571429  13.2211538461538 6.57142857142857  12.9807692307692 6.57142857142857  C 12.7403846153846 6.57142857142857  12.5360576923077 6.6547619047619  12.3677884615385 6.82142857142857  C 12.1995192307692 6.98809523809524  12.1153846153846 7.19047619047619  12.1153846153846 7.42857142857143  L 11.8269230769231 7.42857142857143  L 11.8269230769231 6.88392857142857  C 11.8269230769231 6.59821428571429  11.7307692307692 6.35565476190476  11.5384615384615 6.15625  C 11.3461538461538 5.95684523809524  11.1057692307692 5.85714285714286  10.8173076923077 5.85714285714286  C 10.5408653846154 5.85714285714286  10.3034855769231 5.95535714285714  10.1051682692308 6.15178571428571  C 9.90685096153846 6.34821428571429  9.80769230769231 6.58333333333333  9.80769230769231 6.85714285714286  L 9.80769230769231 7.42857142857143  L 9.51923076923077 7.42857142857143  L 9.51923076923077 6.625  C 9.51923076923077 6.29761904761905  9.40805288461539 6.01636904761905  9.18569711538461 5.78125  C 8.96334134615385 5.54613095238095  8.68990384615385 5.42857142857143  8.36538461538461 5.42857142857143  C 8.046875 5.42857142857143  7.77493990384615 5.54017857142857  7.54957932692308 5.76339285714286  C 7.32421875 5.98660714285714  7.21153846153846 6.25595238095238  7.21153846153846 6.57142857142857  L 7.21153846153846 7.42857142857143  L 6.92307692307692 7.42857142857143  L 6.92307692307692 2.33928571428571  C 6.92307692307692 2.01190476190476  6.81189903846154 1.73065476190476  6.58954326923077 1.49553571428571  Z M 4.13762019230769 0.669642857142858  C 4.58834134615385 0.223214285714286  5.13221153846154 0  5.76923076923077 0  C 6.41225961538462 0  6.95763221153846 0.230654761904763  7.40534855769231 0.691964285714286  C 7.85306490384616 1.15327380952381  8.07692307692308 1.70238095238095  8.07692307692308 2.33928571428571  L 8.07692307692308 4.30357142857143  C 8.20913461538462 4.29166666666667  8.30528846153846 4.28571428571429  8.36538461538461 4.28571428571429  C 8.96033653846154 4.28571428571429  9.48016826923077 4.49107142857143  9.92487980769231 4.90178571428571  C 10.2073317307692 4.77678571428571  10.5048076923077 4.71428571428571  10.8173076923077 4.71428571428571  C 11.4963942307692 4.71428571428571  12.0492788461538 4.97321428571429  12.4759615384615 5.49107142857143  C 12.6382211538462 5.44940476190476  12.8064903846154 5.42857142857143  12.9807692307692 5.42857142857143  C 13.5456730769231 5.42857142857143  14.0234375 5.62946428571429  14.4140625 6.03125  C 14.8046875 6.43303571428571  15 6.91369047619048  15 7.47321428571429  L 15 9.41071428571428  C 15 10.1011904761905  14.9158653846154 10.7708333333333  14.7475961538462 11.4196428571429  L 13.9182692307692 14.7053571428571  C 13.8221153846154 15.0863095238095  13.6177884615385 15.3973214285714  13.3052884615385 15.6383928571429  C 12.9927884615385 15.8794642857143  12.6382211538462 16  12.2415865384615 16  L 5.76923076923077 16  C 5.40865384615385 16  5.06460336538462 15.9181547619048  4.73707932692308 15.7544642857143  C 4.40955528846154 15.5907738095238  4.13762019230769 15.3690476190476  3.92127403846154 15.0892857142857  L 0.459735576923077 10.5178571428571  C 0.153245192307692 10.1130952380952  0 9.65476190476191  0 9.14285714285714  C 0 8.51785714285714  0.223858173076923 7.98065476190476  0.671574519230769 7.53125  C 1.11929086538462 7.08184523809524  1.65865384615385 6.85714285714286  2.28966346153846 6.85714285714286  C 2.71634615384615 6.85714285714286  3.10697115384615 6.96130952380952  3.46153846153846 7.16964285714286  L 3.46153846153846 2.28571428571429  C 3.46153846153846 1.6547619047619  3.68689903846154 1.11607142857143  4.13762019230769 0.669642857142858  Z M 6.63461538461538 12.5714285714286  L 6.92307692307692 12.5714285714286  L 6.92307692307692 9.14285714285714  L 6.63461538461538 9.14285714285714  L 6.63461538461538 12.5714285714286  Z M 8.94230769230769 12.5714285714286  L 9.23076923076923 12.5714285714286  L 9.23076923076923 9.14285714285714  L 8.94230769230769 9.14285714285714  L 8.94230769230769 12.5714285714286  Z M 11.25 12.5714285714286  L 11.5384615384615 12.5714285714286  L 11.5384615384615 9.14285714285714  L 11.25 9.14285714285714  L 11.25 12.5714285714286  Z " fill-rule="nonzero" fill="#aaaaaa" stroke="none" transform="matrix(1 0 0 1 1091 137 )" />
  </g>
</svg>