<?xml version="1.0" encoding="utf-8"?>
<svg version="1.1" xmlns:xlink="http://www.w3.org/1999/xlink" width="12px" height="12px" viewBox="8 162  12 12" xmlns="http://www.w3.org/2000/svg">
  <path d="M 8.5 164  A 1.5 1.5 0 0 1 10 162.5 L 18 162.5  A 1.5 1.5 0 0 1 19.5 164 L 19.5 172  A 1.5 1.5 0 0 1 18 173.5 L 10 173.5  A 1.5 1.5 0 0 1 8.5 172 L 8.5 164  Z " fill-rule="nonzero" fill="#f0f0f0" stroke="none" />
  <path d="M 8.5 164  A 1.5 1.5 0 0 1 10 162.5 L 18 162.5  A 1.5 1.5 0 0 1 19.5 164 L 19.5 172  A 1.5 1.5 0 0 1 18 173.5 L 10 173.5  A 1.5 1.5 0 0 1 8.5 172 L 8.5 164  Z " stroke-width="1" stroke="#aaaaaa" fill="none" />
</svg>