<?xml version="1.0" encoding="UTF-8"?>
<svg width="14px" height="16px" viewBox="0 0 14 16" version="1.1" xmlns="http://www.w3.org/2000/svg" xmlns:xlink="http://www.w3.org/1999/xlink">
    <title>编组</title>
    <defs>
        <filter id="filter-1">
            <feColorMatrix in="SourceGraphic" type="matrix" values="0 0 0 0 0.274510 0 0 0 0 0.278431 0 0 0 0 0.286275 0 0 0 1.000000 0"></feColorMatrix>
        </filter>
    </defs>
    <g id="出库" stroke="none" stroke-width="1" fill="none" fill-rule="evenodd">
        <g id="-4-3-拣货任务领取" transform="translate(-17.000000, -407.000000)">
            <rect id="矩形" fill="#F1F8FF" x="0" y="0" width="375" height="667"></rect>
            <rect id="矩形" fill="#FFFFFF" x="9" y="397" width="357" height="66" rx="4"></rect>
            <g filter="url(#filter-1)" id="编组">
                <g transform="translate(17.000000, 407.000000)">
                    <path d="M12.4164524,0 C13.2910206,0 14,0.810262211 14,1.80976864 L14,14.1902314 C14,15.1897378 13.2910206,16 12.4164524,16 L1.58354756,16 C0.708979434,16 0,15.1897378 0,14.1902314 L0,1.80976864 C0,0.810262211 0.708979434,0 1.58354756,0 L12.4164524,0 Z M12.4164524,1.11053985 L1.58354756,1.11053985 C1.24902314,1.11053985 0.977210797,1.41737789 0.971722365,1.7982108 L0.971722365,14.1902314 C0.971722365,14.572545 1.24020566,14.8831877 1.57343445,14.8894602 L12.4164524,14.8894602 C12.7509769,14.8894602 13.0227892,14.5826221 13.0282776,14.2017892 L13.0282776,1.80976864 C13.0282776,1.42745501 12.7597943,1.11681234 12.4265656,1.11053985 L12.4164524,1.11053985 Z" id="形状" fill="#FFFFFF" fill-rule="nonzero"></path>
                    <path d="M3.23229379,11.4676983 C3.50176159,11.4676983 3.72019819,11.7202135 3.72019819,12.0317215 C3.72019819,12.3432294 3.50176159,12.5957447 3.23229379,12.5957447 L2.87088312,12.5957447 C2.60141533,12.5957447 2.38297872,12.3432294 2.38297872,12.0317215 C2.38297872,11.7202135 2.60141533,11.4676983 2.87088312,11.4676983 L3.23229379,11.4676983 Z M11.1291169,11.4676983 C11.3985847,11.4676983 11.6170213,11.7202135 11.6170213,12.0317215 C11.6170213,12.3432294 11.3985847,12.5957447 11.1291169,12.5957447 L4.98513553,12.5957447 C4.71566774,12.5957447 4.49723113,12.3432294 4.49723113,12.0317215 C4.49723113,11.7202135 4.71566774,11.4676983 4.98513553,11.4676983 L11.1291169,11.4676983 Z M9.0871466,7.43597679 C9.3566144,7.43597679 9.57505101,7.68849207 9.57505101,8 C9.57505101,8.31150793 9.3566144,8.56402321 9.0871466,8.56402321 L4.98513553,8.56402321 C4.71566774,8.56402321 4.49723113,8.31150793 4.49723113,8 C4.49723113,7.68849207 4.71566774,7.43597679 4.98513553,7.43597679 L9.0871466,7.43597679 Z M3.23229379,7.43597679 C3.50176159,7.43597679 3.72019819,7.68849207 3.72019819,8 C3.72019819,8.31150793 3.50176159,8.56402321 3.23229379,8.56402321 L2.87088312,8.56402321 C2.60141533,8.56402321 2.38297872,8.31150793 2.38297872,8 C2.38297872,7.68849207 2.60141533,7.43597679 2.87088312,7.43597679 L3.23229379,7.43597679 Z M9.0871466,3.40425532 C9.3566144,3.40425532 9.57505101,3.6567706 9.57505101,3.96827853 C9.57505101,4.27978646 9.3566144,4.53230174 9.0871466,4.53230174 L4.98513553,4.53230174 C4.71566774,4.53230174 4.49723113,4.27978646 4.49723113,3.96827853 C4.49723113,3.6567706 4.71566774,3.40425532 4.98513553,3.40425532 L9.0871466,3.40425532 Z M3.23229379,3.40425532 C3.50176159,3.40425532 3.72019819,3.6567706 3.72019819,3.96827853 C3.72019819,4.27978646 3.50176159,4.53230174 3.23229379,4.53230174 L2.87088312,4.53230174 C2.60141533,4.53230174 2.38297872,4.27978646 2.38297872,3.96827853 C2.38297872,3.6567706 2.60141533,3.40425532 2.87088312,3.40425532 L3.23229379,3.40425532 Z" id="形状" fill="#FFFFFF" fill-rule="nonzero"></path>
                </g>
            </g>
        </g>
    </g>
</svg>