<?xml version="1.0" encoding="utf-8"?>
<svg version="1.1" xmlns:xlink="http://www.w3.org/1999/xlink" width="570px" height="215px" xmlns="http://www.w3.org/2000/svg">
  <g transform="matrix(1 0 0 1 -41 -732 )">
    <path d="M 42 737  A 4 4 0 0 1 46 733 L 606 733  A 4 4 0 0 1 610 737 L 610 942  A 4 4 0 0 1 606 946 L 46 946  A 4 4 0 0 1 42 942 L 42 737  Z " fill-rule="nonzero" fill="#ffffff" stroke="none" />
    <path d="M 41.5 737  A 4.5 4.5 0 0 1 46 732.5 L 606 732.5  A 4.5 4.5 0 0 1 610.5 737 L 610.5 942  A 4.5 4.5 0 0 1 606 946.5 L 46 946.5  A 4.5 4.5 0 0 1 41.5 942 L 41.5 737  Z " stroke-width="1" stroke-dasharray="9,4" stroke="#027db4" fill="none" stroke-dashoffset="0.5" />
  </g>
</svg>