<?xml version="1.0" encoding="utf-8"?>
<svg version="1.1" xmlns:xlink="http://www.w3.org/1999/xlink" width="199px" height="23px" xmlns="http://www.w3.org/2000/svg">
  <defs>
    <mask fill="white" id="clip66">
      <path d="M 0 23  L 0 0  L 59.2385507246376 0  L 199 0  L 199 23  L 131.782222222219 23  L 0 23  Z " fill-rule="evenodd" />
    </mask>
  </defs>
  <g transform="matrix(1 0 0 1 -49 -38 )">
    <path d="M 0 23  L 0 0  L 59.2385507246376 0  L 199 0  L 199 23  L 131.782222222219 23  L 0 23  Z " fill-rule="nonzero" fill="#f3f3f3" stroke="none" transform="matrix(1 0 0 1 49 38 )" />
    <path d="M 0 23  L 0 0  L 59.2385507246376 0  L 199 0  L 199 23  L 131.782222222219 23  L 0 23  Z " stroke-width="2" stroke="#e6e6e6" fill="none" transform="matrix(1 0 0 1 49 38 )" mask="url(#clip66)" />
  </g>
</svg>