<?xml version="1.0" encoding="utf-8"?>
<svg version="1.1" xmlns:xlink="http://www.w3.org/1999/xlink" width="200px" height="23px" xmlns="http://www.w3.org/2000/svg">
  <defs>
    <mask fill="white" id="clip65">
      <path d="M 0 23  L 0 0  L 59.5362318840579 0  L 200 0  L 200 23  L 132.444444444441 23  L 0 23  Z " fill-rule="evenodd" />
    </mask>
  </defs>
  <g transform="matrix(1 0 0 1 -50 -156 )">
    <path d="M 0 23  L 0 0  L 59.5362318840579 0  L 200 0  L 200 23  L 132.444444444441 23  L 0 23  Z " fill-rule="nonzero" fill="#f3f3f3" stroke="none" transform="matrix(1 0 0 1 50 156 )" />
    <path d="M 0 23  L 0 0  L 59.5362318840579 0  L 200 0  L 200 23  L 132.444444444441 23  L 0 23  Z " stroke-width="2" stroke="#e6e6e6" fill="none" transform="matrix(1 0 0 1 50 156 )" mask="url(#clip65)" />
  </g>
</svg>