<?xml version="1.0" encoding="utf-8"?>
<svg version="1.1" xmlns:xlink="http://www.w3.org/1999/xlink" width="15px" height="16px" xmlns="http://www.w3.org/2000/svg">
  <g transform="matrix(1 0 0 1 -414 -18 )">
    <path d="M 13.986 13.971  L 13.984 13.971  L 8.01300000000003 8  L 13.984 2.029  C 14.0971148329166 1.91588516708343  14.1606620843521 1.76246853081618  14.1606620843521 1.6025  C 14.1606620843521 1.26938277913617  13.8906172208639 0.999337915647875  13.5575 0.999337915647875  C 13.3975314691838 0.999337915647875  13.2441148329166 1.06288516708344  13.1310000000001 1.176  L 7.16000000000008 7.147  L 1.19000000000005 1.177  C 1.07688516708345 1.06388516708343  0.923468530816194 1.00033791564788  0.763500000000022 1.00033791564788  C 0.430382779136153 1.00033791564788  0.160337915647915 1.27038277913616  0.160337915647915 1.6035  C 0.160337915647915 1.76346853081617  0.223885167083495 1.91688516708344  0.336999999999989 2.03  L 6.30799999999999 8.001  L 0.338000000000079 13.971  C 0.224885167083471 14.0841148329166  0.161337915647891 14.2375314691838  0.161337915647891 14.3975  C 0.161337915647891 14.7306172208638  0.431382779136243 15.0006620843521  0.764499999999998 15.0006620843521  C 0.924468530816171 15.0006620843521  1.07788516708342 14.9371148329166  1.19100000000003 14.824  L 7.16200000000003 8.853  L 13.133 14.824  C 13.2461148329166 14.9371148329166  13.3995314691839 15.0006620843521  13.5595000000001 15.0006620843521  C 13.8926172208638 15.0006620843521  14.1626620843522 14.7306172208638  14.1626620843522 14.3975  C 14.1626620843522 14.2375314691838  14.0991148329166 14.0841148329166  13.986 13.971  Z " fill-rule="nonzero" fill="#999999" stroke="none" transform="matrix(1 0 0 1 414 18 )" />
  </g>
</svg>