<?xml version="1.0" encoding="utf-8"?>
<svg version="1.1" xmlns:xlink="http://www.w3.org/1999/xlink" width="10px" height="10px" xmlns="http://www.w3.org/2000/svg">
  <g transform="matrix(1 0 0 1 -5 -13 )">
    <path d="M 9.32399999999999 8.731875  L 9.32266666666669 8.731875  L 5.34200000000002 5  L 9.32266666666669 1.268125  C 9.39807655527776 1.19742822942715  9.44044138956807 1.10154283176011  9.44044138956807 1.0015625  C 9.44044138956807 0.793364236960106  9.26041148057591 0.624586197279922  9.03833333333334 0.624586197279922  C 8.93168764612255 0.624586197279922  8.82940988861105 0.664303229427148  8.75400000000006 0.735000000000001  L 4.77333333333339 4.466875  L 0.79333333333337 0.735625  C 0.717923444722298 0.664928229427146  0.615645687210796 0.625211197279922  0.509000000000015 0.625211197279922  C 0.286921852757435 0.625211197279922  0.106891943765277 0.793989236960102  0.106891943765277 1.0021875  C 0.106891943765277 1.10216783176011  0.149256778055663 1.19805322942715  0.224666666666659 1.26875  L 4.20533333333333 5.000625  L 0.225333333333386 8.731875  C 0.149923444722314 8.80257177057285  0.107558610431928 8.89845716823989  0.107558610431928 8.9984375  C 0.107558610431928 9.2066357630399  0.287588519424162 9.37541380272008  0.509666666666665 9.37541380272008  C 0.616312353877447 9.37541380272008  0.718590111388949 9.33569677057285  0.794000000000021 9.265  L 4.77466666666669 5.533125  L 8.75533333333336 9.265  C 8.83074322194443 9.33569677057285  8.93302097945593 9.37541380272008  9.03966666666671 9.37541380272008  C 9.26174481390922 9.37541380272008  9.44177472290145 9.2066357630399  9.44177472290145 8.9984375  C 9.44177472290145 8.89845716823989  9.39940988861107 8.80257177057286  9.32399999999999 8.731875  Z " fill-rule="nonzero" fill="#999999" stroke="none" transform="matrix(1 0 0 1 5 13 )" />
  </g>
</svg>