<?xml version="1.0" encoding="utf-8"?>
<svg version="1.1" xmlns:xlink="http://www.w3.org/1999/xlink" width="1103px" height="581px" xmlns="http://www.w3.org/2000/svg">
  <g transform="matrix(1 0 0 1 -74 -300 )">
    <path d="M 75 308  A 7 7 0 0 1 82 301 L 1169 301  A 7 7 0 0 1 1176 308 L 1176 873  A 7 7 0 0 1 1169 880 L 82 880  A 7 7 0 0 1 75 873 L 75 308  Z " fill-rule="nonzero" fill="#ffffff" stroke="none" />
    <path d="M 74.5 308  A 7.5 7.5 0 0 1 82 300.5 L 1169 300.5  A 7.5 7.5 0 0 1 1176.5 308 L 1176.5 873  A 7.5 7.5 0 0 1 1169 880.5 L 82 880.5  A 7.5 7.5 0 0 1 74.5 873 L 74.5 308  Z " stroke-width="1" stroke-dasharray="9,4,2,4" stroke="#00b7b7" fill="none" stroke-dashoffset="0.5" />
  </g>
</svg>