<?xml version="1.0" encoding="utf-8"?>
<svg version="1.1" xmlns:xlink="http://www.w3.org/1999/xlink" width="166px" height="10px" preserveAspectRatio="xMinYMid meet" viewBox="966 734  166 8" xmlns="http://www.w3.org/2000/svg">
  <path d="M 967 738.5  L 1126 738.5  " stroke-width="1" stroke="#d9001b" fill="none" />
  <path d="M 969 735.5  A 3 3 0 0 0 966 738.5 A 3 3 0 0 0 969 741.5 A 3 3 0 0 0 972 738.5 A 3 3 0 0 0 969 735.5 Z M 1124 735.5  A 3 3 0 0 0 1121 738.5 A 3 3 0 0 0 1124 741.5 A 3 3 0 0 0 1127 738.5 A 3 3 0 0 0 1124 735.5 Z " fill-rule="nonzero" fill="#d9001b" stroke="none" />
</svg>