<?xml version="1.0" encoding="utf-8"?>
<svg version="1.1" xmlns:xlink="http://www.w3.org/1999/xlink" width="166px" height="10px" preserveAspectRatio="xMinYMid meet" viewBox="966 575  166 8" xmlns="http://www.w3.org/2000/svg">
  <path d="M 967 579.5  L 1126 579.5  " stroke-width="1" stroke="#d9001b" fill="none" />
  <path d="M 969 576.5  A 3 3 0 0 0 966 579.5 A 3 3 0 0 0 969 582.5 A 3 3 0 0 0 972 579.5 A 3 3 0 0 0 969 576.5 Z M 1124 576.5  A 3 3 0 0 0 1121 579.5 A 3 3 0 0 0 1124 582.5 A 3 3 0 0 0 1127 579.5 A 3 3 0 0 0 1124 576.5 Z " fill-rule="nonzero" fill="#d9001b" stroke="none" />
</svg>