<?xml version="1.0" encoding="utf-8"?>
<svg version="1.1" xmlns:xlink="http://www.w3.org/1999/xlink" width="18px" height="18px" preserveAspectRatio="xMinYMid meet" viewBox="1679 -542  18 16" xmlns="http://www.w3.org/2000/svg">
  <path d="M 1686 -533.5  L 1845 -533.5  " stroke-width="1" stroke="#d9001b" fill="none" />
  <path d="M 1688 -536.5  A 3 3 0 0 0 1685 -533.5 A 3 3 0 0 0 1688 -530.5 A 3 3 0 0 0 1691 -533.5 A 3 3 0 0 0 1688 -536.5 Z M 1843 -536.5  A 3 3 0 0 0 1840 -533.5 A 3 3 0 0 0 1843 -530.5 A 3 3 0 0 0 1846 -533.5 A 3 3 0 0 0 1843 -536.5 Z " fill-rule="nonzero" fill="#d9001b" stroke="none" />
</svg>