<?xml version="1.0" encoding="utf-8"?>
<svg version="1.1" xmlns:xlink="http://www.w3.org/1999/xlink" width="85px" height="10px" preserveAspectRatio="xMinYMid meet" viewBox="1477 1242  85 8" xmlns="http://www.w3.org/2000/svg">
  <path d="M 1482.95969769413 1246.65852901519  A 1 1 0 0 1 1483.5 1246.5 L 1552 1246.5  A 5 5 0 0 1 1557.5 1251.5 L 1557.5 1745  A 5 5 0 0 0 1562.5 1750.5 L 1637 1750.5  " stroke-width="1" stroke="#d9001b" fill="none" />
  <path d="M 1484.42920367321 1243.5  A 3 3 0 0 0 1481.42920367321 1246.5 A 3 3 0 0 0 1484.42920367321 1249.5 A 3 3 0 0 0 1487.42920367321 1246.5 A 3 3 0 0 0 1484.42920367321 1243.5 Z M 1635 1747.5  A 3 3 0 0 0 1632 1750.5 A 3 3 0 0 0 1635 1753.5 A 3 3 0 0 0 1638 1750.5 A 3 3 0 0 0 1635 1747.5 Z " fill-rule="nonzero" fill="#d9001b" stroke="none" />
</svg>