<?xml version="1.0" encoding="utf-8"?>
<svg version="1.1" xmlns:xlink="http://www.w3.org/1999/xlink" width="18px" height="18px" preserveAspectRatio="xMinYMid meet" viewBox="779 1239  18 16" xmlns="http://www.w3.org/2000/svg">
  <path d="M 788.665129161056 1249.51841590961  A 3 3 0 0 1 791.5 1247.5 L 1104 1247.5  " stroke-width="1" stroke="#d9001b" fill="none" />
  <path d="M 789.879093082396 1244.97558704558  A 3 3 0 0 0 786.879093082396 1247.97558704558 A 3 3 0 0 0 789.879093082396 1250.97558704558 A 3 3 0 0 0 792.879093082396 1247.97558704558 A 3 3 0 0 0 789.879093082396 1244.97558704558 Z M 1102 1244.5  A 3 3 0 0 0 1099 1247.5 A 3 3 0 0 0 1102 1250.5 A 3 3 0 0 0 1105 1247.5 A 3 3 0 0 0 1102 1244.5 Z " fill-rule="nonzero" fill="#d9001b" stroke="none" />
</svg>