<?xml version="1.0" encoding="utf-8"?>
<svg version="1.1" xmlns:xlink="http://www.w3.org/1999/xlink" width="104px" height="10px" preserveAspectRatio="xMinYMid meet" viewBox="1006 1549  104 8" xmlns="http://www.w3.org/2000/svg">
  <path d="M 1007 1553.5  L 1104 1553.5  " stroke-width="1" stroke="#d9001b" fill="none" />
  <path d="M 1009 1550.5  A 3 3 0 0 0 1006 1553.5 A 3 3 0 0 0 1009 1556.5 A 3 3 0 0 0 1012 1553.5 A 3 3 0 0 0 1009 1550.5 Z M 1102 1550.5  A 3 3 0 0 0 1099 1553.5 A 3 3 0 0 0 1102 1556.5 A 3 3 0 0 0 1105 1553.5 A 3 3 0 0 0 1102 1550.5 Z " fill-rule="nonzero" fill="#d9001b" stroke="none" />
</svg>