<?xml version="1.0" encoding="utf-8"?>
<svg version="1.1" xmlns:xlink="http://www.w3.org/1999/xlink" width="10px" height="6px" preserveAspectRatio="xMinYMid meet" viewBox="983 1589  10 4" xmlns="http://www.w3.org/2000/svg">
  <path d="M 988.959697694132 1589.34147098481  A 1 1 0 0 0 989.5 1589.5 L 1075 1589.5  A 5 5 0 0 1 1080.5 1594.5 L 1080.5 1621  A 5 5 0 0 0 1085.5 1626.5 L 1104 1626.5  " stroke-width="1" stroke="#d9001b" fill="none" />
  <path d="M 990.429203673205 1586.5  A 3 3 0 0 0 987.429203673205 1589.5 A 3 3 0 0 0 990.429203673205 1592.5 A 3 3 0 0 0 993.429203673205 1589.5 A 3 3 0 0 0 990.429203673205 1586.5 Z M 1102 1623.5  A 3 3 0 0 0 1099 1626.5 A 3 3 0 0 0 1102 1629.5 A 3 3 0 0 0 1105 1626.5 A 3 3 0 0 0 1102 1623.5 Z " fill-rule="nonzero" fill="#d9001b" stroke="none" />
</svg>