<?xml version="1.0" encoding="utf-8"?>
<svg version="1.1" xmlns:xlink="http://www.w3.org/1999/xlink" width="18px" height="18px" preserveAspectRatio="xMinYMid meet" viewBox="638 1288  18 16" xmlns="http://www.w3.org/2000/svg">
  <path d="M 565 1294.5  L 646.5 1294.5  A 0.5 0.5 0 0 0 647.5 1294 " stroke-width="1" stroke="#d9001b" fill="none" />
  <path d="M 567 1291.5  A 3 3 0 0 0 564 1294.5 A 3 3 0 0 0 567 1297.5 A 3 3 0 0 0 570 1294.5 A 3 3 0 0 0 567 1291.5 Z M 644.785398163397 1291.5  A 3 3 0 0 0 641.785398163397 1294.5 A 3 3 0 0 0 644.785398163397 1297.5 A 3 3 0 0 0 647.785398163397 1294.5 A 3 3 0 0 0 644.785398163397 1291.5 Z " fill-rule="nonzero" fill="#d9001b" stroke="none" />
</svg>