<?xml version="1.0" encoding="utf-8"?>
<svg version="1.1" xmlns:xlink="http://www.w3.org/1999/xlink" width="10px" height="7px" preserveAspectRatio="xMinYMid meet" viewBox="933 1633  10 5" xmlns="http://www.w3.org/2000/svg">
  <path d="M 938.744834876219 1633.45885107721  A 2 2 0 0 0 940.5 1634.5 L 1047 1634.5  A 5 5 0 0 1 1052.5 1639.5 L 1052.5 1703  A 5 5 0 0 0 1057.5 1708.5 L 1104 1708.5  " stroke-width="1" stroke="#d9001b" fill="none" />
  <path d="M 940.358525596665 1631.49498997321  A 3 3 0 0 0 937.358525596665 1634.49498997321 A 3 3 0 0 0 940.358525596665 1637.49498997321 A 3 3 0 0 0 943.358525596665 1634.49498997321 A 3 3 0 0 0 940.358525596665 1631.49498997321 Z M 1102 1705.5  A 3 3 0 0 0 1099 1708.5 A 3 3 0 0 0 1102 1711.5 A 3 3 0 0 0 1105 1708.5 A 3 3 0 0 0 1102 1705.5 Z " fill-rule="nonzero" fill="#d9001b" stroke="none" />
</svg>