<?xml version="1.0" encoding="utf-8"?>
<svg version="1.1" xmlns:xlink="http://www.w3.org/1999/xlink" width="10px" height="7px" preserveAspectRatio="xMinYMid meet" viewBox="4769 1629  10 5" xmlns="http://www.w3.org/2000/svg">
  <path d="M 4774.74483487622 1634.54114892279  A 2 2 0 0 1 4776.5 1633.5 L 4841 1633.5  " stroke-width="1" stroke="#d9001b" fill="none" />
  <path d="M 4776.35852559666 1630.50501002679  A 3 3 0 0 0 4773.35852559666 1633.50501002679 A 3 3 0 0 0 4776.35852559666 1636.50501002679 A 3 3 0 0 0 4779.35852559666 1633.50501002679 A 3 3 0 0 0 4776.35852559666 1630.50501002679 Z M 4839 1630.5  A 3 3 0 0 0 4836 1633.5 A 3 3 0 0 0 4839 1636.5 A 3 3 0 0 0 4842 1633.5 A 3 3 0 0 0 4839 1630.5 Z " fill-rule="nonzero" fill="#d9001b" stroke="none" />
</svg>