<?xml version="1.0" encoding="utf-8"?>
<svg version="1.1" xmlns:xlink="http://www.w3.org/1999/xlink" width="10px" height="853px" preserveAspectRatio="xMidYMin meet" viewBox="3351 1600  8 853" xmlns="http://www.w3.org/2000/svg">
  <path d="M 2873.74483487622 1606.54114892279  A 2 2 0 0 1 2875.5 1605.5 L 3350 1605.5  A 5 5 0 0 1 3355.5 1610.5 L 3355.5 2443  A 5 5 0 0 0 3360.5 2448.5 L 3518 2448.5  " stroke-width="1" stroke="#d9001b" fill="none" />
  <path d="M 2875.35852559666 1602.50501002679  A 3 3 0 0 0 2872.35852559666 1605.50501002679 A 3 3 0 0 0 2875.35852559666 1608.50501002679 A 3 3 0 0 0 2878.35852559666 1605.50501002679 A 3 3 0 0 0 2875.35852559666 1602.50501002679 Z M 3512.94644660941 2443.85355339059  L 3517.59289321881 2448.5  L 3512.94644660941 2453.14644660941  L 3513.65355339059 2453.85355339059  L 3518.65355339059 2448.85355339059  L 3519.00710678119 2448.5  L 3518.65355339059 2448.14644660941  L 3513.65355339059 2443.14644660941  L 3512.94644660941 2443.85355339059  Z " fill-rule="nonzero" fill="#d9001b" stroke="none" />
</svg>