<?xml version="1.0" encoding="utf-8"?>
<svg version="1.1" xmlns:xlink="http://www.w3.org/1999/xlink" width="10px" height="34px" preserveAspectRatio="xMidYMin meet" viewBox="2963 1529  8 34" xmlns="http://www.w3.org/2000/svg">
  <path d="M 2873 1558.5  L 2962 1558.5  A 5 5 0 0 0 2967.5 1553.5 L 2967.5 1539  A 5 5 0 0 1 2972.5 1534.5 L 3518 1534.5  " stroke-width="1" stroke="#d9001b" fill="none" />
  <path d="M 2875 1555.5  A 3 3 0 0 0 2872 1558.5 A 3 3 0 0 0 2875 1561.5 A 3 3 0 0 0 2878 1558.5 A 3 3 0 0 0 2875 1555.5 Z M 3512.94644660941 1529.85355339059  L 3517.59289321881 1534.5  L 3512.94644660941 1539.14644660941  L 3513.65355339059 1539.85355339059  L 3518.65355339059 1534.85355339059  L 3519.00710678119 1534.5  L 3518.65355339059 1534.14644660941  L 3513.65355339059 1529.14644660941  L 3512.94644660941 1529.85355339059  Z " fill-rule="nonzero" fill="#d9001b" stroke="none" />
</svg>