<?xml version="1.0" encoding="utf-8"?>
<svg version="1.1" xmlns:xlink="http://www.w3.org/1999/xlink" width="127px" height="10px" preserveAspectRatio="xMinYMid meet" viewBox="2825 1707  127 8" xmlns="http://www.w3.org/2000/svg">
  <path d="M 2826 1711.5  L 2946 1711.5  " stroke-width="1" stroke="#d9001b" fill="none" />
  <path d="M 2828 1708.5  A 3 3 0 0 0 2825 1711.5 A 3 3 0 0 0 2828 1714.5 A 3 3 0 0 0 2831 1711.5 A 3 3 0 0 0 2828 1708.5 Z M 2944 1708.5  A 3 3 0 0 0 2941 1711.5 A 3 3 0 0 0 2944 1714.5 A 3 3 0 0 0 2947 1711.5 A 3 3 0 0 0 2944 1708.5 Z " fill-rule="nonzero" fill="#d9001b" stroke="none" />
</svg>