<?xml version="1.0" encoding="utf-8"?>
<svg version="1.1" xmlns:xlink="http://www.w3.org/1999/xlink" width="18px" height="18px" preserveAspectRatio="xMinYMid meet" viewBox="2694 2105  18 16" xmlns="http://www.w3.org/2000/svg">
  <path d="M 2524 1650.5  L 2486 1650.5  A 5 5 0 0 0 2481.5 1655.5 L 2481.5 1956  A 5 5 0 0 0 2486.5 1961.5 L 2698 1961.5  A 5 5 0 0 1 2703.5 1966.5 L 2703.5 2113  " stroke-width="1" stroke="#d9001b" fill="none" />
  <path d="M 2522 1647.5  A 3 3 0 0 0 2519 1650.5 A 3 3 0 0 0 2522 1653.5 A 3 3 0 0 0 2525 1650.5 A 3 3 0 0 0 2522 1647.5 Z M 2708.14644660941 2107.94644660941  L 2703.5 2112.59289321881  L 2698.85355339059 2107.94644660941  L 2698.14644660941 2108.65355339059  L 2703.14644660941 2113.65355339059  L 2703.5 2114.00710678119  L 2703.85355339059 2113.65355339059  L 2708.85355339059 2108.65355339059  L 2708.14644660941 2107.94644660941  Z " fill-rule="nonzero" fill="#d9001b" stroke="none" />
</svg>