<?xml version="1.0" encoding="utf-8"?>
<svg version="1.1" xmlns:xlink="http://www.w3.org/1999/xlink" width="127px" height="10px" preserveAspectRatio="xMinYMid meet" viewBox="2866 1357  127 8" xmlns="http://www.w3.org/2000/svg">
  <path d="M 2867 1361.5  L 2987 1361.5  " stroke-width="1" stroke="#d9001b" fill="none" />
  <path d="M 2869 1358.5  A 3 3 0 0 0 2866 1361.5 A 3 3 0 0 0 2869 1364.5 A 3 3 0 0 0 2872 1361.5 A 3 3 0 0 0 2869 1358.5 Z M 2985 1358.5  A 3 3 0 0 0 2982 1361.5 A 3 3 0 0 0 2985 1364.5 A 3 3 0 0 0 2988 1361.5 A 3 3 0 0 0 2985 1358.5 Z " fill-rule="nonzero" fill="#d9001b" stroke="none" />
</svg>