<?xml version="1.0" encoding="utf-8"?>
<svg version="1.1" xmlns:xlink="http://www.w3.org/1999/xlink" width="88px" height="10px" preserveAspectRatio="xMinYMid meet" viewBox="564 1505  88 8" xmlns="http://www.w3.org/2000/svg">
  <path d="M 565 1509.5  L 646.5 1509.5  A 0.5 0.5 0 0 0 647.5 1509 " stroke-width="1" stroke="#d9001b" fill="none" />
  <path d="M 567 1506.5  A 3 3 0 0 0 564 1509.5 A 3 3 0 0 0 567 1512.5 A 3 3 0 0 0 570 1509.5 A 3 3 0 0 0 567 1506.5 Z M 644.785398163397 1506.5  A 3 3 0 0 0 641.785398163397 1509.5 A 3 3 0 0 0 644.785398163397 1512.5 A 3 3 0 0 0 647.785398163397 1509.5 A 3 3 0 0 0 644.785398163397 1506.5 Z " fill-rule="nonzero" fill="#d9001b" stroke="none" />
</svg>