<?xml version="1.0" encoding="utf-8"?>
<svg version="1.1" xmlns:xlink="http://www.w3.org/1999/xlink" width="18px" height="18px" preserveAspectRatio="xMinYMid meet" viewBox="810 2243  18 16" xmlns="http://www.w3.org/2000/svg">
  <path d="M 817 2251.5  L 1101 2251.5  " stroke-width="1" stroke="#d9001b" fill="none" />
  <path d="M 819 2248.5  A 3 3 0 0 0 816 2251.5 A 3 3 0 0 0 819 2254.5 A 3 3 0 0 0 822 2251.5 A 3 3 0 0 0 819 2248.5 Z M 1099 2248.5  A 3 3 0 0 0 1096 2251.5 A 3 3 0 0 0 1099 2254.5 A 3 3 0 0 0 1102 2251.5 A 3 3 0 0 0 1099 2248.5 Z " fill-rule="nonzero" fill="#d9001b" stroke="none" />
</svg>