<?xml version="1.0" encoding="utf-8"?>
<svg version="1.1" xmlns:xlink="http://www.w3.org/1999/xlink" width="166px" height="10px" preserveAspectRatio="xMinYMid meet" viewBox="728 575  166 8" xmlns="http://www.w3.org/2000/svg">
  <path d="M 729 579.5  L 888 579.5  " stroke-width="1" stroke="#d9001b" fill="none" />
  <path d="M 731 576.5  A 3 3 0 0 0 728 579.5 A 3 3 0 0 0 731 582.5 A 3 3 0 0 0 734 579.5 A 3 3 0 0 0 731 576.5 Z M 886 576.5  A 3 3 0 0 0 883 579.5 A 3 3 0 0 0 886 582.5 A 3 3 0 0 0 889 579.5 A 3 3 0 0 0 886 576.5 Z " fill-rule="nonzero" fill="#d9001b" stroke="none" />
</svg>