<?xml version="1.0" encoding="utf-8"?>
<svg version="1.1" xmlns:xlink="http://www.w3.org/1999/xlink" width="18px" height="18px" preserveAspectRatio="xMinYMid meet" viewBox="1729 564  18 16" xmlns="http://www.w3.org/2000/svg">
  <path d="M 1736 572.5  L 1895 572.5  " stroke-width="1" stroke="#d9001b" fill="none" />
  <path d="M 1738 569.5  A 3 3 0 0 0 1735 572.5 A 3 3 0 0 0 1738 575.5 A 3 3 0 0 0 1741 572.5 A 3 3 0 0 0 1738 569.5 Z M 1893 569.5  A 3 3 0 0 0 1890 572.5 A 3 3 0 0 0 1893 575.5 A 3 3 0 0 0 1896 572.5 A 3 3 0 0 0 1893 569.5 Z " fill-rule="nonzero" fill="#d9001b" stroke="none" />
</svg>