<?xml version="1.0" encoding="utf-8"?>
<svg version="1.1" xmlns:xlink="http://www.w3.org/1999/xlink" width="104px" height="10px" preserveAspectRatio="xMinYMid meet" viewBox="768 1549  104 8" xmlns="http://www.w3.org/2000/svg">
  <path d="M 769 1553.5  L 866 1553.5  " stroke-width="1" stroke="#d9001b" fill="none" />
  <path d="M 771 1550.5  A 3 3 0 0 0 768 1553.5 A 3 3 0 0 0 771 1556.5 A 3 3 0 0 0 774 1553.5 A 3 3 0 0 0 771 1550.5 Z M 864 1550.5  A 3 3 0 0 0 861 1553.5 A 3 3 0 0 0 864 1556.5 A 3 3 0 0 0 867 1553.5 A 3 3 0 0 0 864 1550.5 Z " fill-rule="nonzero" fill="#d9001b" stroke="none" />
</svg>