<?xml version="1.0" encoding="utf-8"?>
<svg version="1.1" xmlns:xlink="http://www.w3.org/1999/xlink" width="18px" height="18px" preserveAspectRatio="xMinYMid meet" viewBox="541 1239  18 16" xmlns="http://www.w3.org/2000/svg">
  <path d="M 550.665129161056 1249.51841590961  A 3 3 0 0 1 553.5 1247.5 L 866 1247.5  " stroke-width="1" stroke="#d9001b" fill="none" />
  <path d="M 551.879093082396 1244.97558704558  A 3 3 0 0 0 548.879093082396 1247.97558704558 A 3 3 0 0 0 551.879093082396 1250.97558704558 A 3 3 0 0 0 554.879093082396 1247.97558704558 A 3 3 0 0 0 551.879093082396 1244.97558704558 Z M 864 1244.5  A 3 3 0 0 0 861 1247.5 A 3 3 0 0 0 864 1250.5 A 3 3 0 0 0 867 1247.5 A 3 3 0 0 0 864 1244.5 Z " fill-rule="nonzero" fill="#d9001b" stroke="none" />
</svg>