<?xml version="1.0" encoding="utf-8"?>
<svg version="1.1" xmlns:xlink="http://www.w3.org/1999/xlink" width="18px" height="18px" preserveAspectRatio="xMinYMid meet" viewBox="855 1618  18 16" xmlns="http://www.w3.org/2000/svg">
  <path d="M 750.959697694132 1589.34147098481  A 1 1 0 0 0 751.5 1589.5 L 837 1589.5  A 5 5 0 0 1 842.5 1594.5 L 842.5 1621  A 5 5 0 0 0 847.5 1626.5 L 866 1626.5  " stroke-width="1" stroke="#d9001b" fill="none" />
  <path d="M 752.429203673205 1586.5  A 3 3 0 0 0 749.429203673205 1589.5 A 3 3 0 0 0 752.429203673205 1592.5 A 3 3 0 0 0 755.429203673205 1589.5 A 3 3 0 0 0 752.429203673205 1586.5 Z M 864 1623.5  A 3 3 0 0 0 861 1626.5 A 3 3 0 0 0 864 1629.5 A 3 3 0 0 0 867 1626.5 A 3 3 0 0 0 864 1623.5 Z " fill-rule="nonzero" fill="#d9001b" stroke="none" />
</svg>