<?xml version="1.0" encoding="utf-8"?>
<svg version="1.1" xmlns:xlink="http://www.w3.org/1999/xlink" width="18px" height="18px" preserveAspectRatio="xMinYMid meet" viewBox="691 1627  18 16" xmlns="http://www.w3.org/2000/svg">
  <path d="M 700.744834876219 1633.45885107721  A 2 2 0 0 0 702.5 1634.5 L 809 1634.5  A 5 5 0 0 1 814.5 1639.5 L 814.5 1703  A 5 5 0 0 0 819.5 1708.5 L 866 1708.5  " stroke-width="1" stroke="#d9001b" fill="none" />
  <path d="M 702.358525596665 1631.49498997321  A 3 3 0 0 0 699.358525596665 1634.49498997321 A 3 3 0 0 0 702.358525596665 1637.49498997321 A 3 3 0 0 0 705.358525596665 1634.49498997321 A 3 3 0 0 0 702.358525596665 1631.49498997321 Z M 864 1705.5  A 3 3 0 0 0 861 1708.5 A 3 3 0 0 0 864 1711.5 A 3 3 0 0 0 867 1708.5 A 3 3 0 0 0 864 1705.5 Z " fill-rule="nonzero" fill="#d9001b" stroke="none" />
</svg>