<?xml version="1.0" encoding="utf-8"?>
<svg version="1.1" xmlns:xlink="http://www.w3.org/1999/xlink" width="18px" height="18px" preserveAspectRatio="xMinYMid meet" viewBox="1388 1742  18 16" xmlns="http://www.w3.org/2000/svg">
  <path d="M 1244.95969769413 1246.65852901519  A 1 1 0 0 1 1245.5 1246.5 L 1314 1246.5  A 5 5 0 0 1 1319.5 1251.5 L 1319.5 1745  A 5 5 0 0 0 1324.5 1750.5 L 1399 1750.5  " stroke-width="1" stroke="#d9001b" fill="none" />
  <path d="M 1246.42920367321 1243.5  A 3 3 0 0 0 1243.42920367321 1246.5 A 3 3 0 0 0 1246.42920367321 1249.5 A 3 3 0 0 0 1249.42920367321 1246.5 A 3 3 0 0 0 1246.42920367321 1243.5 Z M 1397 1747.5  A 3 3 0 0 0 1394 1750.5 A 3 3 0 0 0 1397 1753.5 A 3 3 0 0 0 1400 1750.5 A 3 3 0 0 0 1397 1747.5 Z " fill-rule="nonzero" fill="#d9001b" stroke="none" />
</svg>