<?xml version="1.0" encoding="utf-8"?>
<svg version="1.1" xmlns:xlink="http://www.w3.org/1999/xlink" width="18px" height="18px" preserveAspectRatio="xMinYMid meet" viewBox="406 1285  18 16" xmlns="http://www.w3.org/2000/svg">
  <path d="M 320 1293.5  L 417 1293.5  " stroke-width="1" stroke="#d9001b" fill="none" />
  <path d="M 322 1290.5  A 3 3 0 0 0 319 1293.5 A 3 3 0 0 0 322 1296.5 A 3 3 0 0 0 325 1293.5 A 3 3 0 0 0 322 1290.5 Z M 415 1290.5  A 3 3 0 0 0 412 1293.5 A 3 3 0 0 0 415 1296.5 A 3 3 0 0 0 418 1293.5 A 3 3 0 0 0 415 1290.5 Z " fill-rule="nonzero" fill="#d9001b" stroke="none" />
</svg>