<?xml version="1.0" encoding="utf-8"?>
<svg version="1.1" xmlns:xlink="http://www.w3.org/1999/xlink" width="7px" height="6px" xmlns="http://www.w3.org/2000/svg">
  <g transform="matrix(1 0 0 1 -616 -1977 )">
    <path d="M 6.87354838709677 0.828282828282829  C 6.95784946236559 0.922558922558922  7 1.03703703703704  7 1.17171717171717  C 7 1.30639730639731  6.95784946236559 1.42087542087542  6.87354838709677 1.51515151515151  L 3.60387096774194 5.17171717171717  L 2.98967741935484 5.85858585858586  C 2.90537634408602 5.95286195286195  2.80301075268817 6  2.68258064516129 6  C 2.56215053763441 6  2.45978494623656 5.95286195286195  2.37548387096774 5.85858585858586  L 1.76129032258065 5.17171717171717  L 0.126451612903226 3.34343434343434  C 0.0421505376344086 3.24915824915825  0 3.13468013468013  0 3  C 0 2.86531986531987  0.0421505376344086 2.75084175084175  0.126451612903226 2.65656565656566  L 0.740645161290323 1.96969696969697  C 0.82494623655914 1.87542087542088  0.927311827956989 1.82828282828283  1.04774193548387 1.82828282828283  C 1.16817204301075 1.82828282828283  1.2705376344086 1.87542087542088  1.35483870967742 1.96969696969697  L 2.68258064516129 3.45959595959596  L 5.64516129032258 0.141414141414141  C 5.7294623655914 0.0471380471380469  5.83182795698925 0  5.95225806451613 0  C 6.07268817204301 0  6.17505376344086 0.0471380471380469  6.25935483870968 0.141414141414141  L 6.87354838709677 0.828282828282829  Z " fill-rule="nonzero" fill="#ffffff" stroke="none" transform="matrix(1 0 0 1 616 1977 )" />
  </g>
</svg>