<?xml version="1.0" encoding="utf-8"?>
<svg version="1.1" xmlns:xlink="http://www.w3.org/1999/xlink" width="13px" height="14px" xmlns="http://www.w3.org/2000/svg">
  <g transform="matrix(1 0 0 1 -1395 -189 )">
    <path d="M 11.9825333333334 12.224625  L 11.9808 12.224625  L 6.80593333333334 7  L 11.9808 1.775375  C 12.0788328551944 1.67639952119801  12.1339071397719 1.54215996446415  12.1339071397719 1.4021875  C 12.1339071397719 1.11070993174415  11.899868258082 0.87442067619189  11.6111666666666 0.87442067619189  C 11.4725272732926 0.87442067619189  11.3395661885277 0.930024521198007  11.2415333333333 1.029  L 6.06666666666667 6.253625  L 0.892666666666692 1.029875  C 0.794633811472299 0.930899521198005  0.661672726707347 0.875295676191891  0.523033333333331 0.875295676191891  C 0.234331741918027 0.875295676191891  0.000292860228171321 1.11158493174414  0.000292860228171321 1.4030625  C 0.000292860228171321 1.54303496446415  0.0553671448056245 1.67727452119801  0.153400000000018 1.77625  L 5.32826666666669 7.000875  L 0.154266666666664 12.224625  C 0.0562338114723199 12.323600478802  0.00115952689481749 12.4578400355358  0.00115952689481749 12.5978125  C 0.00115952689481749 12.8892900682559  0.235198408584673 13.1255793238081  0.523900000000026 13.1255793238081  C 0.662539393374042 13.1255793238081  0.795500478138994 13.069975478802  0.893533333333339 12.971  L 6.06840000000001 7.746375  L 11.2432666666667 12.971  C 11.341299521861 13.069975478802  11.474260606626 13.1255793238081  11.6129 13.1255793238081  C 11.9016015914153 13.1255793238081  12.1356404731052 12.8892900682559  12.1356404731052 12.5978125  C 12.1356404731052 12.4578400355358  12.0805661885277 12.323600478802  11.9825333333334 12.224625  Z " fill-rule="nonzero" fill="#999999" stroke="none" transform="matrix(1 0 0 1 1395 189 )" />
  </g>
</svg>