<?xml version="1.0" encoding="utf-8"?>
<svg version="1.1" xmlns:xlink="http://www.w3.org/1999/xlink" width="535px" height="10px" preserveAspectRatio="xMinYMid meet" viewBox="290 576  535 8" xmlns="http://www.w3.org/2000/svg">
  <path d="M 295.5 628  L 295.5 585  A 5 5 0 0 1 300.5 580.5 L 824 580.5  " stroke-width="1" stroke="#d9001b" fill="none" />
  <path d="M 295.5 623  A 3 3 0 0 0 292.5 626 A 3 3 0 0 0 295.5 629 A 3 3 0 0 0 298.5 626 A 3 3 0 0 0 295.5 623 Z M 818.946446609407 575.853553390593  L 823.592893218814 580.5  L 818.946446609407 585.146446609407  L 819.653553390593 585.853553390593  L 824.653553390593 580.853553390593  L 825.007106781186 580.5  L 824.653553390593 580.146446609407  L 819.653553390593 575.146446609407  L 818.946446609407 575.853553390593  Z " fill-rule="nonzero" fill="#d9001b" stroke="none" />
</svg>