<?xml version="1.0" encoding="utf-8"?>
<svg version="1.1" xmlns:xlink="http://www.w3.org/1999/xlink" width="130px" height="10px" preserveAspectRatio="xMinYMid meet" viewBox="1141 822  130 8" xmlns="http://www.w3.org/2000/svg">
  <path d="M 1142 826.5  L 1265 826.5  " stroke-width="1" stroke="#d9001b" fill="none" />
  <path d="M 1144 823.5  A 3 3 0 0 0 1141 826.5 A 3 3 0 0 0 1144 829.5 A 3 3 0 0 0 1147 826.5 A 3 3 0 0 0 1144 823.5 Z M 1263 823.5  A 3 3 0 0 0 1260 826.5 A 3 3 0 0 0 1263 829.5 A 3 3 0 0 0 1266 826.5 A 3 3 0 0 0 1263 823.5 Z " fill-rule="nonzero" fill="#d9001b" stroke="none" />
</svg>