<?xml version="1.0" encoding="utf-8"?>
<svg version="1.1" xmlns:xlink="http://www.w3.org/1999/xlink" width="18px" height="18px" preserveAspectRatio="xMinYMid meet" viewBox="1615 572  18 16" xmlns="http://www.w3.org/2000/svg">
  <path d="M 1183 1778.5  L 1445 1778.5  A 5 5 0 0 0 1450.5 1773.5 L 1450.5 585  A 5 5 0 0 1 1455.5 580.5 L 1624 580.5  " stroke-width="1" stroke="#d9001b" fill="none" />
  <path d="M 1185 1775.5  A 3 3 0 0 0 1182 1778.5 A 3 3 0 0 0 1185 1781.5 A 3 3 0 0 0 1188 1778.5 A 3 3 0 0 0 1185 1775.5 Z M 1618.94644660941 575.853553390593  L 1623.59289321881 580.5  L 1618.94644660941 585.146446609407  L 1619.65355339059 585.853553390593  L 1624.65355339059 580.853553390593  L 1625.00710678119 580.5  L 1624.65355339059 580.146446609407  L 1619.65355339059 575.146446609407  L 1618.94644660941 575.853553390593  Z " fill-rule="nonzero" fill="#d9001b" stroke="none" />
</svg>