<?xml version="1.0" encoding="utf-8"?>
<svg version="1.1" xmlns:xlink="http://www.w3.org/1999/xlink" width="234px" height="37px" xmlns="http://www.w3.org/2000/svg">
  <defs>
    <filter x="179px" y="98px" width="234px" height="37px" filterUnits="userSpaceOnUse" id="filter2173">
      <feOffset dx="2" dy="2" in="SourceAlpha" result="shadowOffsetInner" />
      <feGaussianBlur stdDeviation="0.5" in="shadowOffsetInner" result="shadowGaussian" />
      <feComposite in2="shadowGaussian" operator="atop" in="SourceAlpha" result="shadowComposite" />
      <feColorMatrix type="matrix" values="0 0 0 0 0.6  0 0 0 0 0.6  0 0 0 0 0.6  0 0 0 0.67843137254902 0  " in="shadowComposite" />
    </filter>
    <g id="widget2174">
      <path d="M 179.5 102  A 3.5 3.5 0 0 1 183 98.5 L 406 98.5  A 3.5 3.5 0 0 1 409.5 102 L 409.5 128  A 3.5 3.5 0 0 1 406 131.5 L 183 131.5  A 3.5 3.5 0 0 1 179.5 128 L 179.5 102  Z " fill-rule="nonzero" fill="#ffffff" stroke="none" fill-opacity="0.996078431372549" />
      <path d="M 179.5 102  A 3.5 3.5 0 0 1 183 98.5 L 406 98.5  A 3.5 3.5 0 0 1 409.5 102 L 409.5 128  A 3.5 3.5 0 0 1 406 131.5 L 183 131.5  A 3.5 3.5 0 0 1 179.5 128 L 179.5 102  Z " stroke-width="1" stroke="#f2f2f2" fill="none" />
    </g>
  </defs>
  <g transform="matrix(1 0 0 1 -179 -98 )">
    <use xlink:href="#widget2174" filter="url(#filter2173)" />
    <use xlink:href="#widget2174" />
  </g>
</svg>