<?xml version="1.0" encoding="utf-8"?>
<svg version="1.1" xmlns:xlink="http://www.w3.org/1999/xlink" width="10px" height="495px" preserveAspectRatio="xMidYMin meet" viewBox="896 557  8 495" xmlns="http://www.w3.org/2000/svg">
  <path d="M 567 562.5  L 895 562.5  A 5 5 0 0 1 900.5 567.5 L 900.5 1042  A 5 5 0 0 0 905.5 1047.5 L 1049 1047.5  " stroke-width="1" stroke="#d9001b" fill="none" />
  <path d="M 569 559.5  A 3 3 0 0 0 566 562.5 A 3 3 0 0 0 569 565.5 A 3 3 0 0 0 572 562.5 A 3 3 0 0 0 569 559.5 Z M 1043.94644660941 1042.85355339059  L 1048.59289321881 1047.5  L 1043.94644660941 1052.14644660941  L 1044.65355339059 1052.85355339059  L 1049.65355339059 1047.85355339059  L 1050.00710678119 1047.5  L 1049.65355339059 1047.14644660941  L 1044.65355339059 1042.14644660941  L 1043.94644660941 1042.85355339059  Z " fill-rule="nonzero" fill="#d9001b" stroke="none" />
</svg>