<?xml version="1.0" encoding="utf-8"?>
<svg version="1.1" xmlns:xlink="http://www.w3.org/1999/xlink" width="155px" height="10px" preserveAspectRatio="xMinYMid meet" viewBox="895 1043  155 8" xmlns="http://www.w3.org/2000/svg">
  <path d="M 580 1141.5  L 895 1141.5  A 5 5 0 0 0 900.5 1136.5 L 900.5 1052  A 5 5 0 0 1 905.5 1047.5 L 1049 1047.5  " stroke-width="1" stroke="#d9001b" fill="none" />
  <path d="M 582 1138.5  A 3 3 0 0 0 579 1141.5 A 3 3 0 0 0 582 1144.5 A 3 3 0 0 0 585 1141.5 A 3 3 0 0 0 582 1138.5 Z M 1043.94644660941 1042.85355339059  L 1048.59289321881 1047.5  L 1043.94644660941 1052.14644660941  L 1044.65355339059 1052.85355339059  L 1049.65355339059 1047.85355339059  L 1050.00710678119 1047.5  L 1049.65355339059 1047.14644660941  L 1044.65355339059 1042.14644660941  L 1043.94644660941 1042.85355339059  Z " fill-rule="nonzero" fill="#d9001b" stroke="none" />
</svg>