<?xml version="1.0" encoding="utf-8"?>
<svg version="1.1" xmlns:xlink="http://www.w3.org/1999/xlink" width="18px" height="18px" preserveAspectRatio="xMinYMid meet" viewBox="1740 1039  18 16" xmlns="http://www.w3.org/2000/svg">
  <path d="M 1400.95969769413 927.341470984808  A 1 1 0 0 0 1401.5 927.5 L 1545 927.5  A 5 5 0 0 1 1550.5 932.5 L 1550.5 1042  A 5 5 0 0 0 1555.5 1047.5 L 1749 1047.5  " stroke-width="1" stroke="#d9001b" fill="none" />
  <path d="M 1402.42920367321 924.5  A 3 3 0 0 0 1399.42920367321 927.5 A 3 3 0 0 0 1402.42920367321 930.5 A 3 3 0 0 0 1405.42920367321 927.5 A 3 3 0 0 0 1402.42920367321 924.5 Z M 1743.94644660941 1042.85355339059  L 1748.59289321881 1047.5  L 1743.94644660941 1052.14644660941  L 1744.65355339059 1052.85355339059  L 1749.65355339059 1047.85355339059  L 1750.00710678119 1047.5  L 1749.65355339059 1047.14644660941  L 1744.65355339059 1042.14644660941  L 1743.94644660941 1042.85355339059  Z " fill-rule="nonzero" fill="#d9001b" stroke="none" />
</svg>