<?xml version="1.0" encoding="utf-8"?>
<svg version="1.1" xmlns:xlink="http://www.w3.org/1999/xlink" width="10px" height="63px" preserveAspectRatio="xMidYMin meet" viewBox="2440 1352  8 63" xmlns="http://www.w3.org/2000/svg">
  <path d="M 2375.5 1301  L 2375.5 1352  A 5 5 0 0 0 2380.5 1357.5 L 2439 1357.5  A 5 5 0 0 1 2444.5 1362.5 L 2444.5 1414  " stroke-width="1" stroke="#d9001b" fill="none" />
  <path d="M 2375.5 1300  A 3 3 0 0 0 2372.5 1303 A 3 3 0 0 0 2375.5 1306 A 3 3 0 0 0 2378.5 1303 A 3 3 0 0 0 2375.5 1300 Z M 2449.14644660941 1408.94644660941  L 2444.5 1413.59289321881  L 2439.85355339059 1408.94644660941  L 2439.14644660941 1409.65355339059  L 2444.14644660941 1414.65355339059  L 2444.5 1415.00710678119  L 2444.85355339059 1414.65355339059  L 2449.85355339059 1409.65355339059  L 2449.14644660941 1408.94644660941  Z " fill-rule="nonzero" fill="#d9001b" stroke="none" />
</svg>