<?xml version="1.0" encoding="utf-8"?>
<svg version="1.1" xmlns:xlink="http://www.w3.org/1999/xlink" width="115px" height="10px" preserveAspectRatio="xMinYMid meet" viewBox="2178 889  115 8" xmlns="http://www.w3.org/2000/svg">
  <path d="M 2091 1033.5  L 2178 1033.5  A 5 5 0 0 0 2183.5 1028.5 L 2183.5 898  A 5 5 0 0 1 2188.5 893.5 L 2292 893.5  " stroke-width="1" stroke="#d9001b" fill="none" />
  <path d="M 2093 1030.5  A 3 3 0 0 0 2090 1033.5 A 3 3 0 0 0 2093 1036.5 A 3 3 0 0 0 2096 1033.5 A 3 3 0 0 0 2093 1030.5 Z M 2286.94644660941 888.853553390593  L 2291.59289321881 893.5  L 2286.94644660941 898.146446609407  L 2287.65355339059 898.853553390593  L 2292.65355339059 893.853553390593  L 2293.00710678119 893.5  L 2292.65355339059 893.146446609407  L 2287.65355339059 888.146446609407  L 2286.94644660941 888.853553390593  Z " fill-rule="nonzero" fill="#d9001b" stroke="none" />
</svg>