<?xml version="1.0" encoding="utf-8"?>
<svg version="1.1" xmlns:xlink="http://www.w3.org/1999/xlink" width="18px" height="18px" preserveAspectRatio="xMinYMid meet" viewBox="2577 1272  18 16" xmlns="http://www.w3.org/2000/svg">
  <path d="M 2584 1280.5  L 3163 1280.5  A 5 5 0 0 0 3168.5 1275.5 L 3168.5 1141  " stroke-width="1" stroke="#d9001b" fill="none" />
  <path d="M 2586 1277.5  A 3 3 0 0 0 2583 1280.5 A 3 3 0 0 0 2586 1283.5 A 3 3 0 0 0 2589 1280.5 A 3 3 0 0 0 2586 1277.5 Z M 3163.85355339059 1146.05355339059  L 3168.5 1141.40710678119  L 3173.14644660941 1146.05355339059  L 3173.85355339059 1145.34644660941  L 3168.85355339059 1140.34644660941  L 3168.5 1139.99289321881  L 3168.14644660941 1140.34644660941  L 3163.14644660941 1145.34644660941  L 3163.85355339059 1146.05355339059  Z " fill-rule="nonzero" fill="#d9001b" stroke="none" />
</svg>