<?xml version="1.0" encoding="utf-8"?>
<svg version="1.1" xmlns:xlink="http://www.w3.org/1999/xlink" width="10px" height="72px" preserveAspectRatio="xMidYMin meet" viewBox="2519 1633  8 72" xmlns="http://www.w3.org/2000/svg">
  <path d="M 2523.5 1634  L 2523.5 1695  A 5 5 0 0 1 2518.5 1700.5 L 1943 1700.5  A 5 5 0 0 1 1938.5 1695.5 L 1938.5 1381  " stroke-width="1" stroke="#d9001b" fill="none" />
  <path d="M 2523.5 1633  A 3 3 0 0 0 2520.5 1636 A 3 3 0 0 0 2523.5 1639 A 3 3 0 0 0 2526.5 1636 A 3 3 0 0 0 2523.5 1633 Z M 1933.85355339059 1386.05355339059  L 1938.5 1381.40710678119  L 1943.14644660941 1386.05355339059  L 1943.85355339059 1385.34644660941  L 1938.85355339059 1380.34644660941  L 1938.5 1379.99289321881  L 1938.14644660941 1380.34644660941  L 1933.14644660941 1385.34644660941  L 1933.85355339059 1386.05355339059  Z " fill-rule="nonzero" fill="#d9001b" stroke="none" />
</svg>