<?xml version="1.0" encoding="utf-8"?>
<svg version="1.1" xmlns:xlink="http://www.w3.org/1999/xlink" width="588px" height="10px" preserveAspectRatio="xMinYMid meet" viewBox="2583 946  588 8" xmlns="http://www.w3.org/2000/svg">
  <path d="M 2584 950.5  L 3161 950.5  A 5 5 0 0 1 3166.5 955.5 L 3166.5 1036  " stroke-width="1" stroke="#d9001b" fill="none" />
  <path d="M 2586 947.5  A 3 3 0 0 0 2583 950.5 A 3 3 0 0 0 2586 953.5 A 3 3 0 0 0 2589 950.5 A 3 3 0 0 0 2586 947.5 Z M 3171.14644660941 1030.94644660941  L 3166.5 1035.59289321881  L 3161.85355339059 1030.94644660941  L 3161.14644660941 1031.65355339059  L 3166.14644660941 1036.65355339059  L 3166.5 1037.00710678119  L 3166.85355339059 1036.65355339059  L 3171.85355339059 1031.65355339059  L 3171.14644660941 1030.94644660941  Z " fill-rule="nonzero" fill="#d9001b" stroke="none" />
</svg>