<?xml version="1.0" encoding="utf-8"?>
<svg version="1.1" xmlns:xlink="http://www.w3.org/1999/xlink" width="342px" height="30px" viewBox="2265 2699  342 30" xmlns="http://www.w3.org/2000/svg">
  <path d="M 2266 2702  A 2 2 0 0 1 2268 2700 L 2604 2700  A 2 2 0 0 1 2606 2702 L 2606 2726  A 2 2 0 0 1 2604 2728 L 2268 2728  A 2 2 0 0 1 2266 2726 L 2266 2702  Z " fill-rule="nonzero" fill="#ffffff" stroke="none" />
  <path d="M 2265.5 2702  A 2.5 2.5 0 0 1 2268 2699.5 L 2604 2699.5  A 2.5 2.5 0 0 1 2606.5 2702 L 2606.5 2726  A 2.5 2.5 0 0 1 2604 2728.5 L 2268 2728.5  A 2.5 2.5 0 0 1 2265.5 2726 L 2265.5 2702  Z " stroke-width="1" stroke="#0070cc" fill="none" stroke-opacity="0.498039215686275" />
</svg>