<?xml version="1.0" encoding="UTF-8"?>
<svg width="70px" height="61px" viewBox="0 0 70 61" version="1.1" xmlns="http://www.w3.org/2000/svg" xmlns:xlink="http://www.w3.org/1999/xlink">
    <title>编组 2</title>
    <defs>
        <filter id="filter-1">
            <feColorMatrix in="SourceGraphic" type="matrix" values="0 0 0 0 1.000000 0 0 0 0 1.000000 0 0 0 0 1.000000 0 0 0 1.000000 0"></feColorMatrix>
        </filter>
    </defs>
    <g id="页面-1" stroke="none" stroke-width="1" fill="none" fill-rule="evenodd">
        <g filter="url(#filter-1)" id="编组-2">
            <g>
                <path d="M61.7105263,61 L8.28947369,61 C3.72105261,61 0,57.7535715 0,53.7678571 L0,18.4107143 C0,17.0767857 1.2342105,16 2.7631579,16 L67.2368421,16 C68.7657895,16 70,17.0767857 70,18.4107143 L70,53.7678571 C70,57.7535715 66.2789474,61 61.7105263,61 Z M5.52631579,20.8214286 L5.52631579,53.7678571 C5.52631579,55.1017857 6.76052629,56.1785714 8.28947369,56.1785714 L61.7105263,56.1785714 C63.2394737,56.1785714 64.4736842,55.1017857 64.4736842,53.7678571 L64.4736842,20.8214286 L5.52631579,20.8214286 Z" id="形状" fill="#515151" fill-rule="nonzero"></path>
                <path d="M67.2371508,21.0000087 L2.77089332,21.0000087 C1.81310896,21.0000087 0.929000281,20.5638465 0.413270163,19.8530778 C-0.0840409672,19.1423092 -0.139297759,18.2376946 0.284337676,17.4946183 L7.96503179,4.02232174 C9.36761612,1.55410338 12.243409,-0.00423970265 15.3878608,8.66447253e-06 L56.1121167,8.66447253e-06 C59.5196189,8.66447253e-06 62.5403235,1.79309281 63.8112297,4.57155203 L69.7973823,17.6884643 C70.1473419,18.4315406 70.0368283,19.2876937 69.5210983,19.9500008 C69.0053683,20.5961541 68.1580974,21.0000087 67.2371508,21.0000087 L67.2371508,21.0000087 Z M7.24669349,16.1538502 L63.1665672,16.1538502 L58.7091859,6.36462747 C58.2671316,5.443859 57.2725093,4.84616721 56.1305356,4.84616721 L15.3878608,4.84616721 C14.3379818,4.84616721 13.3801974,5.36308988 12.9197241,6.18693528 L7.24669349,16.1538502 Z" id="形状" fill="#515151" fill-rule="nonzero"></path>
                <path d="M61.234375,13.0227273 L7.765625,13.0227273 C6.23531247,13.0227273 5,11.9009849 5,10.5113636 C5,9.1217424 6.23531247,8 7.765625,8 L61.234375,8 C62.7646875,8 64,9.1217424 64,10.5113636 C64,11.9009849 62.7646875,13.0227273 61.234375,13.0227273 L61.234375,13.0227273 Z M48.3278222,42 L22.4280211,42 C20.8848168,42 19.6390977,40.8782576 19.6390977,39.4886364 C19.6390977,38.0990151 20.8848168,36.9772727 22.4280211,36.9772727 L48.346415,36.9772727 C49.8896193,36.9772727 51.1353383,38.0990151 51.1353383,39.4886364 C51.1353383,40.8782576 49.8710264,42 48.3278222,42 Z" id="形状" fill="#515151" fill-rule="nonzero"></path>
            </g>
        </g>
    </g>
</svg>