<?xml version="1.0" encoding="utf-8"?>
<svg version="1.1" xmlns:xlink="http://www.w3.org/1999/xlink" width="12px" height="12px" viewBox="37 230  12 12" xmlns="http://www.w3.org/2000/svg">
  <path d="M 37.5 231  A 0.5 0.5 0 0 1 38 230.5 L 48 230.5  A 0.5 0.5 0 0 1 48.5 231 L 48.5 241  A 0.5 0.5 0 0 1 48 241.5 L 38 241.5  A 0.5 0.5 0 0 1 37.5 241 L 37.5 231  Z " fill-rule="nonzero" fill="#ffffff" stroke="none" />
  <path d="M 37.5 231  A 0.5 0.5 0 0 1 38 230.5 L 48 230.5  A 0.5 0.5 0 0 1 48.5 231 L 48.5 241  A 0.5 0.5 0 0 1 48 241.5 L 38 241.5  A 0.5 0.5 0 0 1 37.5 241 L 37.5 231  Z " stroke-width="1" stroke="#0070cc" fill="none" />
  <path d="M 39.5714285714286 236  L 42.1428571428571 238.571428571429  " stroke-width="2.57142857142857" stroke="#0070cc" fill="none" />
  <path d="M 42.1428571428571 238.571428571429  L 46.4285714285714 232.571428571429  " stroke-width="2.57142857142857" stroke="#0070cc" fill="none" />
</svg>