<?xml version="1.0" encoding="utf-8"?>
<svg version="1.1" xmlns:xlink="http://www.w3.org/1999/xlink" width="12px" height="12px" viewBox="37 290  12 12" xmlns="http://www.w3.org/2000/svg">
  <path d="M 37.5 291  A 0.5 0.5 0 0 1 38 290.5 L 48 290.5  A 0.5 0.5 0 0 1 48.5 291 L 48.5 301  A 0.5 0.5 0 0 1 48 301.5 L 38 301.5  A 0.5 0.5 0 0 1 37.5 301 L 37.5 291  Z " fill-rule="nonzero" fill="#ffffff" stroke="none" />
  <path d="M 37.5 291  A 0.5 0.5 0 0 1 38 290.5 L 48 290.5  A 0.5 0.5 0 0 1 48.5 291 L 48.5 301  A 0.5 0.5 0 0 1 48 301.5 L 38 301.5  A 0.5 0.5 0 0 1 37.5 301 L 37.5 291  Z " stroke-width="1" stroke="#999999" fill="none" />
</svg>