<?xml version="1.0" encoding="utf-8"?>
<svg version="1.1" xmlns:xlink="http://www.w3.org/1999/xlink" width="529px" height="19px" xmlns="http://www.w3.org/2000/svg">
  <g transform="matrix(1 0 0 1 -1226 -393 )">
    <path d="M 1236 408  L 1236 397  L 1235 397  L 1235 408  L 1236 408  Z M 1242.05355339059 407.146446609407  L 1237.40710678119 402.5  L 1242.05355339059 397.853553390593  L 1241.34644660941 397.146446609407  L 1236.34644660941 402.146446609407  L 1235.99289321881 402.5  L 1236.34644660941 402.853553390593  L 1241.34644660941 407.853553390593  L 1242.05355339059 407.146446609407  Z M 1745 397  L 1745 408  L 1746 408  L 1746 397  L 1745 397  Z M 1738.94644660941 397.853553390593  L 1743.59289321881 402.5  L 1738.94644660941 407.146446609407  L 1739.65355339059 407.853553390593  L 1744.65355339059 402.853553390593  L 1745.00710678119 402.5  L 1744.65355339059 402.146446609407  L 1739.65355339059 397.146446609407  L 1738.94644660941 397.853553390593  Z " fill-rule="nonzero" fill="#ec808d" stroke="none" />
    <path d="M 1235 402.5  L 1746 402.5  " stroke-width="1" stroke="#ec808d" fill="none" />
  </g>
</svg>