<?xml version="1.0" encoding="utf-8"?>
<svg version="1.1" xmlns:xlink="http://www.w3.org/1999/xlink" width="15px" height="16px" xmlns="http://www.w3.org/2000/svg">
  <g transform="matrix(1 0 0 1 -355 -34 )">
    <path d="M 13.826 13.971  L 13.824 13.971  L 7.85300000000001 8  L 13.824 2.029  C 13.9371148329166 1.91588516708343  14.0006620843521 1.76246853081618  14.0006620843521 1.6025  C 14.0006620843521 1.26938277913617  13.7306172208638 0.999337915647875  13.3975 0.999337915647875  C 13.2375314691838 0.999337915647875  13.0841148329166 1.06288516708344  12.971 1.176  L 7 7.14700000000001  L 1.03000000000003 1.177  C 0.916885167083421 1.06388516708343  0.763468530816169 1.00033791564788  0.603499999999997 1.00033791564788  C 0.270382779136185 1.00033791564788  0.000337915647889986 1.27038277913616  0.000337915647889986 1.6035  C 0.000337915647889986 1.76346853081617  0.0638851670834129 1.91688516708344  0.177000000000021 2.03  L 6.14800000000002 8.001  L 0.177999999999997 13.971  C 0.064885167083446 14.0841148329166  0.00133791564786634 14.2375314691838  0.00133791564786634 14.3975  C 0.00133791564786634 14.7306172208638  0.271382779136161 15.0006620843521  0.60450000000003 15.0006620843521  C 0.764468530816202 15.0006620843521  0.917885167083455 14.9371148329166  1.03100000000001 14.824  L 7.00200000000001 8.853  L 12.973 14.824  C 13.0861148329166 14.9371148329166  13.2395314691838 15.0006620843521  13.3995 15.0006620843521  C 13.7326172208639 15.0006620843521  14.0026620843522 14.7306172208638  14.0026620843522 14.3975  C 14.0026620843522 14.2375314691838  13.9391148329166 14.0841148329166  13.826 13.971  Z " fill-rule="nonzero" fill="#999999" stroke="none" transform="matrix(1 0 0 1 355 34 )" />
  </g>
</svg>