<?xml version="1.0" encoding="utf-8"?>
<svg version="1.1" xmlns:xlink="http://www.w3.org/1999/xlink" width="10px" height="7px" preserveAspectRatio="xMinYMid meet" viewBox="2830 660  10 5" xmlns="http://www.w3.org/2000/svg">
  <path d="M 2835.74483487622 665.541148922792  A 2 2 0 0 1 2837.5 664.5 L 2902 664.5  " stroke-width="1" stroke="#d9001b" fill="none" />
  <path d="M 2837.35852559666 661.505010026792  A 3 3 0 0 0 2834.35852559666 664.505010026792 A 3 3 0 0 0 2837.35852559666 667.505010026792 A 3 3 0 0 0 2840.35852559666 664.505010026792 A 3 3 0 0 0 2837.35852559666 661.505010026792 Z M 2900 661.5  A 3 3 0 0 0 2897 664.5 A 3 3 0 0 0 2900 667.5 A 3 3 0 0 0 2903 664.5 A 3 3 0 0 0 2900 661.5 Z " fill-rule="nonzero" fill="#d9001b" stroke="none" />
</svg>