<?xml version="1.0" encoding="utf-8"?>
<svg version="1.1" xmlns:xlink="http://www.w3.org/1999/xlink" width="18px" height="18px" preserveAspectRatio="xMinYMid meet" viewBox="2877 1085  18 16" xmlns="http://www.w3.org/2000/svg">
  <path d="M 2821.74483487622 1094.54114892279  A 2 2 0 0 1 2823.5 1093.5 L 2888 1093.5  " stroke-width="1" stroke="#d9001b" fill="none" />
  <path d="M 2823.35852559666 1090.50501002679  A 3 3 0 0 0 2820.35852559666 1093.50501002679 A 3 3 0 0 0 2823.35852559666 1096.50501002679 A 3 3 0 0 0 2826.35852559666 1093.50501002679 A 3 3 0 0 0 2823.35852559666 1090.50501002679 Z M 2886 1090.5  A 3 3 0 0 0 2883 1093.5 A 3 3 0 0 0 2886 1096.5 A 3 3 0 0 0 2889 1093.5 A 3 3 0 0 0 2886 1090.5 Z " fill-rule="nonzero" fill="#d9001b" stroke="none" />
</svg>