<?xml version="1.0" encoding="utf-8"?>
<svg version="1.1" xmlns:xlink="http://www.w3.org/1999/xlink" width="384px" height="10px" preserveAspectRatio="xMinYMid meet" viewBox="635 429  384 8" xmlns="http://www.w3.org/2000/svg">
  <path d="M 640.665129161056 435.518415909612  A 3 3 0 0 1 643.5 433.5 L 1018 433.5  " stroke-width="1" stroke="#d9001b" fill="none" />
  <path d="M 641.879093082396 430.975587045576  A 3 3 0 0 0 638.879093082396 433.975587045576 A 3 3 0 0 0 641.879093082396 436.975587045576 A 3 3 0 0 0 644.879093082396 433.975587045576 A 3 3 0 0 0 641.879093082396 430.975587045576 Z M 1012.94644660941 428.853553390593  L 1017.59289321881 433.5  L 1012.94644660941 438.146446609407  L 1013.65355339059 438.853553390593  L 1018.65355339059 433.853553390593  L 1019.00710678119 433.5  L 1018.65355339059 433.146446609407  L 1013.65355339059 428.146446609407  L 1012.94644660941 428.853553390593  Z " fill-rule="nonzero" fill="#d9001b" stroke="none" />
</svg>