<?xml version="1.0" encoding="utf-8"?>
<svg version="1.1" xmlns:xlink="http://www.w3.org/1999/xlink" width="10px" height="315px" preserveAspectRatio="xMidYMin meet" viewBox="2296 668  8 315" xmlns="http://www.w3.org/2000/svg">
  <path d="M 2113.74483487622 979.541148922792  A 2 2 0 0 1 2115.5 978.5 L 2295 978.5  A 5 5 0 0 0 2300.5 973.5 L 2300.5 678  A 5 5 0 0 1 2305.5 673.5 L 2456 673.5  " stroke-width="1" stroke="#d9001b" fill="none" />
  <path d="M 2115.35852559666 975.505010026792  A 3 3 0 0 0 2112.35852559666 978.505010026792 A 3 3 0 0 0 2115.35852559666 981.505010026792 A 3 3 0 0 0 2118.35852559666 978.505010026792 A 3 3 0 0 0 2115.35852559666 975.505010026792 Z M 2450.94644660941 668.853553390593  L 2455.59289321881 673.5  L 2450.94644660941 678.146446609407  L 2451.65355339059 678.853553390593  L 2456.65355339059 673.853553390593  L 2457.00710678119 673.5  L 2456.65355339059 673.146446609407  L 2451.65355339059 668.146446609407  L 2450.94644660941 668.853553390593  Z " fill-rule="nonzero" fill="#d9001b" stroke="none" />
</svg>