<?xml version="1.0" encoding="utf-8"?>
<svg version="1.1" xmlns:xlink="http://www.w3.org/1999/xlink" width="10px" height="380px" preserveAspectRatio="xMidYMin meet" viewBox="3896 668  8 380" xmlns="http://www.w3.org/2000/svg">
  <path d="M 2823 1043.5  L 3895 1043.5  A 5 5 0 0 0 3900.5 1038.5 L 3900.5 678  A 5 5 0 0 1 3905.5 673.5 L 4024 673.5  " stroke-width="1" stroke="#d9001b" fill="none" />
  <path d="M 2825 1040.5  A 3 3 0 0 0 2822 1043.5 A 3 3 0 0 0 2825 1046.5 A 3 3 0 0 0 2828 1043.5 A 3 3 0 0 0 2825 1040.5 Z M 4018.94644660941 668.853553390593  L 4023.59289321881 673.5  L 4018.94644660941 678.146446609407  L 4019.65355339059 678.853553390593  L 4024.65355339059 673.853553390593  L 4025.00710678119 673.5  L 4024.65355339059 673.146446609407  L 4019.65355339059 668.146446609407  L 4018.94644660941 668.853553390593  Z " fill-rule="nonzero" fill="#d9001b" stroke="none" />
</svg>