<?xml version="1.0" encoding="utf-8"?>
<svg version="1.1" xmlns:xlink="http://www.w3.org/1999/xlink" width="18px" height="18px" preserveAspectRatio="xMinYMid meet" viewBox="2820 1735  18 16" xmlns="http://www.w3.org/2000/svg">
  <path d="M 2829.74483487622 1745.54114892279  A 2 2 0 0 1 2831.5 1744.5 L 2896 1744.5  " stroke-width="1" stroke="#d9001b" fill="none" />
  <path d="M 2831.35852559666 1741.50501002679  A 3 3 0 0 0 2828.35852559666 1744.50501002679 A 3 3 0 0 0 2831.35852559666 1747.50501002679 A 3 3 0 0 0 2834.35852559666 1744.50501002679 A 3 3 0 0 0 2831.35852559666 1741.50501002679 Z M 2894 1741.5  A 3 3 0 0 0 2891 1744.5 A 3 3 0 0 0 2894 1747.5 A 3 3 0 0 0 2897 1744.5 A 3 3 0 0 0 2894 1741.5 Z " fill-rule="nonzero" fill="#d9001b" stroke="none" />
</svg>