<?xml version="1.0" encoding="utf-8"?>
<svg version="1.1" xmlns:xlink="http://www.w3.org/1999/xlink" width="10px" height="9px" preserveAspectRatio="xMinYMid meet" viewBox="1380 422  10 7" xmlns="http://www.w3.org/2000/svg">
  <path d="M 1385.62435031316 429.510384162982  A 4 4 0 0 1 1389.5 426.5 L 1565 426.5  A 5 5 0 0 1 1570.5 431.5 L 1570.5 668  A 5 5 0 0 0 1575.5 673.5 L 1769 673.5  " stroke-width="1" stroke="#d9001b" fill="none" />
  <path d="M 1386.5732445245 424.773444959907  A 3 3 0 0 0 1383.5732445245 427.773444959907 A 3 3 0 0 0 1386.5732445245 430.773444959907 A 3 3 0 0 0 1389.5732445245 427.773444959907 A 3 3 0 0 0 1386.5732445245 424.773444959907 Z M 1763.94644660941 668.853553390593  L 1768.59289321881 673.5  L 1763.94644660941 678.146446609407  L 1764.65355339059 678.853553390593  L 1769.65355339059 673.853553390593  L 1770.00710678119 673.5  L 1769.65355339059 673.146446609407  L 1764.65355339059 668.146446609407  L 1763.94644660941 668.853553390593  Z " fill-rule="nonzero" fill="#d9001b" stroke="none" />
</svg>