<?xml version="1.0" encoding="utf-8"?>
<svg version="1.1" xmlns:xlink="http://www.w3.org/1999/xlink" width="18px" height="18px" preserveAspectRatio="xMinYMid meet" viewBox="3693 1790  18 16" xmlns="http://www.w3.org/2000/svg">
  <path d="M 3637.74483487622 1799.54114892279  A 2 2 0 0 1 3639.5 1798.5 L 3704 1798.5  " stroke-width="1" stroke="#d9001b" fill="none" />
  <path d="M 3639.35852559666 1795.50501002679  A 3 3 0 0 0 3636.35852559666 1798.50501002679 A 3 3 0 0 0 3639.35852559666 1801.50501002679 A 3 3 0 0 0 3642.35852559666 1798.50501002679 A 3 3 0 0 0 3639.35852559666 1795.50501002679 Z M 3702 1795.5  A 3 3 0 0 0 3699 1798.5 A 3 3 0 0 0 3702 1801.5 A 3 3 0 0 0 3705 1798.5 A 3 3 0 0 0 3702 1795.5 Z " fill-rule="nonzero" fill="#d9001b" stroke="none" />
</svg>