<?xml version="1.0" encoding="utf-8"?>
<svg version="1.1" xmlns:xlink="http://www.w3.org/1999/xlink" width="73px" height="10px" preserveAspectRatio="xMinYMid meet" viewBox="3248 1684  73 8" xmlns="http://www.w3.org/2000/svg">
  <path d="M 3253.74483487622 1689.54114892279  A 2 2 0 0 1 3255.5 1688.5 L 3320 1688.5  " stroke-width="1" stroke="#d9001b" fill="none" />
  <path d="M 3255.35852559666 1685.50501002679  A 3 3 0 0 0 3252.35852559666 1688.50501002679 A 3 3 0 0 0 3255.35852559666 1691.50501002679 A 3 3 0 0 0 3258.35852559666 1688.50501002679 A 3 3 0 0 0 3255.35852559666 1685.50501002679 Z M 3318 1685.5  A 3 3 0 0 0 3315 1688.5 A 3 3 0 0 0 3318 1691.5 A 3 3 0 0 0 3321 1688.5 A 3 3 0 0 0 3318 1685.5 Z " fill-rule="nonzero" fill="#d9001b" stroke="none" />
</svg>