<?xml version="1.0" encoding="utf-8"?>
<svg version="1.1" xmlns:xlink="http://www.w3.org/1999/xlink" width="1103px" height="186px" xmlns="http://www.w3.org/2000/svg">
  <g transform="matrix(1 0 0 1 -74 -200 )">
    <path d="M 75 208  A 7 7 0 0 1 82 201 L 1169 201  A 7 7 0 0 1 1176 208 L 1176 378  A 7 7 0 0 1 1169 385 L 82 385  A 7 7 0 0 1 75 378 L 75 208  Z " fill-rule="nonzero" fill="#ffffff" stroke="none" />
    <path d="M 74.5 208  A 7.5 7.5 0 0 1 82 200.5 L 1169 200.5  A 7.5 7.5 0 0 1 1176.5 208 L 1176.5 378  A 7.5 7.5 0 0 1 1169 385.5 L 82 385.5  A 7.5 7.5 0 0 1 74.5 378 L 74.5 208  Z " stroke-width="1" stroke-dasharray="9,4,2,4" stroke="#00b7b7" fill="none" stroke-dashoffset="0.5" />
  </g>
</svg>