<?xml version="1.0" encoding="utf-8"?>
<svg version="1.1" xmlns:xlink="http://www.w3.org/1999/xlink" width="10px" height="5px" preserveAspectRatio="xMinYMid meet" viewBox="3528 940  10 3" xmlns="http://www.w3.org/2000/svg">
  <path d="M 3533.5 945  L 3533.5 1031  A 5 5 0 0 1 3528.5 1036.5 L 2070 1036.5  A 5 5 0 0 0 2065.5 1041.5 L 2065.5 1097  " stroke-width="1" stroke="#d9001b" fill="none" />
  <path d="M 3533.5 944  A 3 3 0 0 0 3530.5 947 A 3 3 0 0 0 3533.5 950 A 3 3 0 0 0 3536.5 947 A 3 3 0 0 0 3533.5 944 Z M 2070.14644660941 1091.94644660941  L 2065.5 1096.59289321881  L 2060.85355339059 1091.94644660941  L 2060.14644660941 1092.65355339059  L 2065.14644660941 1097.65355339059  L 2065.5 1098.00710678119  L 2065.85355339059 1097.65355339059  L 2070.85355339059 1092.65355339059  L 2070.14644660941 1091.94644660941  Z " fill-rule="nonzero" fill="#d9001b" stroke="none" />
</svg>