<?xml version="1.0" encoding="utf-8"?>
<svg version="1.1" xmlns:xlink="http://www.w3.org/1999/xlink" width="18px" height="18px" preserveAspectRatio="xMinYMid meet" viewBox="2300 2656  18 16" xmlns="http://www.w3.org/2000/svg">
  <path d="M 2243 2662.5  L 2308.5 2662.5  A 0.5 0.5 0 0 0 2309.5 2662 " stroke-width="1" stroke="#d9001b" fill="none" />
  <path d="M 2245 2659.5  A 3 3 0 0 0 2242 2662.5 A 3 3 0 0 0 2245 2665.5 A 3 3 0 0 0 2248 2662.5 A 3 3 0 0 0 2245 2659.5 Z M 2306.7853981634 2659.5  A 3 3 0 0 0 2303.7853981634 2662.5 A 3 3 0 0 0 2306.7853981634 2665.5 A 3 3 0 0 0 2309.7853981634 2662.5 A 3 3 0 0 0 2306.7853981634 2659.5 Z " fill-rule="nonzero" fill="#d9001b" stroke="none" />
</svg>