<?xml version="1.0" encoding="utf-8"?>
<svg version="1.1" xmlns:xlink="http://www.w3.org/1999/xlink" width="10px" height="7px" preserveAspectRatio="xMinYMid meet" viewBox="4650 2196  10 5" xmlns="http://www.w3.org/2000/svg">
  <path d="M 4655.74483487622 2201.54114892279  A 2 2 0 0 1 4657.5 2200.5 L 4722 2200.5  " stroke-width="1" stroke="#d9001b" fill="none" />
  <path d="M 4657.35852559666 2197.50501002679  A 3 3 0 0 0 4654.35852559666 2200.50501002679 A 3 3 0 0 0 4657.35852559666 2203.50501002679 A 3 3 0 0 0 4660.35852559666 2200.50501002679 A 3 3 0 0 0 4657.35852559666 2197.50501002679 Z M 4720 2197.5  A 3 3 0 0 0 4717 2200.5 A 3 3 0 0 0 4720 2203.5 A 3 3 0 0 0 4723 2200.5 A 3 3 0 0 0 4720 2197.5 Z " fill-rule="nonzero" fill="#d9001b" stroke="none" />
</svg>