<?xml version="1.0" encoding="utf-8"?>
<svg version="1.1" xmlns:xlink="http://www.w3.org/1999/xlink" width="10px" height="323px" preserveAspectRatio="xMidYMin meet" viewBox="576 472  8 323" xmlns="http://www.w3.org/2000/svg">
  <path d="M 561 790.5  L 575 790.5  A 5 5 0 0 0 580.5 785 L 580.5 625  A 3 3 0 0 0 583.5 622 A 3 3 0 0 0 580.5 619 L 580.5 544  A 3 3 0 0 0 583.5 541 A 3 3 0 0 0 580.5 538 L 580.5 482  A 5 5 0 0 0 575.5 477.5 L 562 477.5  " stroke-width="1" stroke="#333333" fill="none" />
  <path d="M 567.053553390593 482.146446609407  L 562.407106781186 477.5  L 567.053553390593 472.853553390593  L 566.346446609407 472.146446609407  L 561.346446609407 477.146446609407  L 560.992893218813 477.5  L 561.346446609407 477.853553390593  L 566.346446609407 482.853553390593  L 567.053553390593 482.146446609407  Z " fill-rule="nonzero" fill="#333333" stroke="none" />
</svg>