<?xml version="1.0" encoding="utf-8"?>
<svg version="1.1" xmlns:xlink="http://www.w3.org/1999/xlink" width="123px" height="50px" xmlns="http://www.w3.org/2000/svg">
  <defs>
    <mask fill="white" id="clip95">
      <path d="M 122 0  L 0 0  L 0 49  L 122 49  L 122 0  Z " fill-rule="evenodd" />
    </mask>
  </defs>
  <g transform="matrix(1 0 0 1 -779 -826 )">
    <path d="M 122 0  L 0 0  L 0 49  L 122 49  L 122 0  Z " fill-rule="nonzero" fill="#ffffff" stroke="none" transform="matrix(1 0 0 1 779 826 )" />
    <path d="M 122 0  L 0 0  L 0 49  L 122 49  L 122 0  Z " stroke-width="2" stroke="#797979" fill="none" transform="matrix(1 0 0 1 779 826 )" mask="url(#clip95)" />
    <path d="M 12.5 0  L 12.5 49  M 109.5 0  L 109.5 49  " stroke-width="1" stroke="#797979" fill="none" transform="matrix(1 0 0 1 779 826 )" />
  </g>
</svg>