<?xml version="1.0" encoding="utf-8"?>
<svg version="1.1" xmlns:xlink="http://www.w3.org/1999/xlink" width="10px" height="62px" preserveAspectRatio="xMidYMin meet" viewBox="2288 2543  8 62" xmlns="http://www.w3.org/2000/svg">
  <path d="M 2234 2548.5  L 2287 2548.5  A 5 5 0 0 1 2292.5 2553.5 L 2292.5 2595  A 5 5 0 0 0 2297.5 2600.5 L 4195 2600.5  A 5 5 0 0 0 4200.5 2595.5 L 4200.5 2244  A 5 5 0 0 1 4205.5 2239.5 L 4291 2239.5  " stroke-width="1" stroke="#d9001b" fill="none" />
  <path d="M 2236 2545.5  A 3 3 0 0 0 2233 2548.5 A 3 3 0 0 0 2236 2551.5 A 3 3 0 0 0 2239 2548.5 A 3 3 0 0 0 2236 2545.5 Z M 4285.94644660941 2234.85355339059  L 4290.59289321881 2239.5  L 4285.94644660941 2244.14644660941  L 4286.65355339059 2244.85355339059  L 4291.65355339059 2239.85355339059  L 4292.00710678119 2239.5  L 4291.65355339059 2239.14644660941  L 4286.65355339059 2234.14644660941  L 4285.94644660941 2234.85355339059  Z " fill-rule="nonzero" fill="#d9001b" stroke="none" />
</svg>