<?xml version="1.0" encoding="utf-8"?>
<svg version="1.1" xmlns:xlink="http://www.w3.org/1999/xlink" width="18px" height="18px" preserveAspectRatio="xMinYMid meet" viewBox="2651 559  18 16" xmlns="http://www.w3.org/2000/svg">
  <path d="M 2658 567.5  L 2996 567.5  A 5 5 0 0 1 3001.5 572.5 L 3001.5 606  A 5 5 0 0 0 3006.5 611.5 L 3344 611.5  " stroke-width="1" stroke="#d9001b" fill="none" />
  <path d="M 2660 564.5  A 3 3 0 0 0 2657 567.5 A 3 3 0 0 0 2660 570.5 A 3 3 0 0 0 2663 567.5 A 3 3 0 0 0 2660 564.5 Z M 3338.94644660941 606.853553390593  L 3343.59289321881 611.5  L 3338.94644660941 616.146446609407  L 3339.65355339059 616.853553390593  L 3344.65355339059 611.853553390593  L 3345.00710678119 611.5  L 3344.65355339059 611.146446609407  L 3339.65355339059 606.146446609407  L 3338.94644660941 606.853553390593  Z " fill-rule="nonzero" fill="#d9001b" stroke="none" />
</svg>