<?xml version="1.0" encoding="utf-8"?>
<svg version="1.1" xmlns:xlink="http://www.w3.org/1999/xlink" width="123px" height="37px" xmlns="http://www.w3.org/2000/svg">
  <defs>
    <mask fill="white" id="clip96">
      <path d="M 122 0  L 0 0  L 0 36  L 122 36  L 122 0  Z " fill-rule="evenodd" />
    </mask>
  </defs>
  <g transform="matrix(1 0 0 1 -635 -391 )">
    <path d="M 122 0  L 0 0  L 0 36  L 122 36  L 122 0  Z " fill-rule="nonzero" fill="#ec808d" stroke="none" fill-opacity="0.2" transform="matrix(1 0 0 1 635 391 )" />
    <path d="M 122 0  L 0 0  L 0 36  L 122 36  L 122 0  Z " stroke-width="2" stroke="#ec808d" fill="none" transform="matrix(1 0 0 1 635 391 )" mask="url(#clip96)" />
    <path d="M 12.5 0  L 12.5 36  M 109.5 0  L 109.5 36  " stroke-width="1" stroke="#ec808d" fill="none" transform="matrix(1 0 0 1 635 391 )" />
  </g>
</svg>