<?xml version="1.0" encoding="utf-8"?>
<svg version="1.1" xmlns:xlink="http://www.w3.org/1999/xlink" width="90px" height="85px" xmlns="http://www.w3.org/2000/svg">
  <g transform="matrix(1 0 0 1 -46 -2294 )">
    <path d="M 135.5 2311  C 135.5 2311  135.5 2362  135.5 2362  C 135.5 2371.41422222222  115.458823529412 2378.5  91 2378.5  C 66.5411764705882 2378.5  46.5 2371.41422222222  46.5 2362  C 46.5 2362  46.5 2311  46.5 2311  C 46.5 2301.58577777778  66.5411764705882 2294.5  91 2294.5  C 115.458823529412 2294.5  135.5 2301.58577777778  135.5 2311  Z " fill-rule="nonzero" fill="#81d3f8" stroke="none" />
    <path d="M 46.5 2311.3  C 46.5 2301.892  66.08 2294.5  91 2294.5  C 115.92 2294.5  135.5 2301.892  135.5 2311.3  C 135.5 2311.3  135.5 2361.7  135.5 2361.7  C 135.5 2371.108  115.92 2378.5  91 2378.5  C 66.08 2378.5  46.5 2371.108  46.5 2361.7  C 46.5 2361.7  46.5 2311.3  46.5 2311.3  Z " stroke-width="1" stroke="#ffffff" fill="none" />
    <path d="M 135.5 2311  C 135.5 2320.24  115.92 2327.5  91 2327.5  C 66.08 2327.5  46.5 2320.24  46.5 2311  " stroke-width="1" stroke="#ffffff" fill="none" />
  </g>
</svg>