<?xml version="1.0" encoding="utf-8"?>
<svg version="1.1" xmlns:xlink="http://www.w3.org/1999/xlink" width="10px" height="298px" preserveAspectRatio="xMidYMin meet" viewBox="885 2137  8 298" xmlns="http://www.w3.org/2000/svg">
  <path d="M 958 2142.5  L 894 2142.5  A 5 5 0 0 0 889.5 2147.5 L 889.5 2425  A 5 5 0 0 1 884.5 2430.5 L 423 2430.5  A 5 5 0 0 1 418.5 2425.5 L 418.5 2343  A 5 5 0 0 0 413.5 2338.5 L 311 2338.5  " stroke-width="1" stroke="#555555" fill="none" />
  <path d="M 316.053553390593 2343.14644660941  L 311.407106781187 2338.5  L 316.053553390593 2333.85355339059  L 315.346446609407 2333.14644660941  L 310.346446609407 2338.14644660941  L 309.992893218813 2338.5  L 310.346446609407 2338.85355339059  L 315.346446609407 2343.85355339059  L 316.053553390593 2343.14644660941  Z " fill-rule="nonzero" fill="#555555" stroke="none" />
</svg>