<?xml version="1.0" encoding="utf-8"?>
<svg version="1.1" xmlns:xlink="http://www.w3.org/1999/xlink" width="1316px" height="834px" xmlns="http://www.w3.org/2000/svg">
  <g transform="matrix(1 0 0 1 -35 -1668 )">
    <path d="M 36 1672  A 3 3 0 0 1 39 1669 L 1347 1669  A 3 3 0 0 1 1350 1672 L 1350 2498  A 3 3 0 0 1 1347 2501 L 39 2501  A 3 3 0 0 1 36 2498 L 36 1672  Z " fill-rule="nonzero" fill="#ffffff" stroke="none" fill-opacity="0.0352941176470588" />
    <path d="M 35.5 1672  A 3.5 3.5 0 0 1 39 1668.5 L 1347 1668.5  A 3.5 3.5 0 0 1 1350.5 1672 L 1350.5 2498  A 3.5 3.5 0 0 1 1347 2501.5 L 39 2501.5  A 3.5 3.5 0 0 1 35.5 2498 L 35.5 1672  Z " stroke-width="1" stroke-dasharray="9,4" stroke="#ec808d" fill="none" stroke-dashoffset="0.5" />
  </g>
</svg>