<?xml version="1.0" encoding="utf-8"?>
<svg version="1.1" xmlns:xlink="http://www.w3.org/1999/xlink" width="10px" height="36px" preserveAspectRatio="xMidYMin meet" viewBox="3840 2234  8 36" xmlns="http://www.w3.org/2000/svg">
  <path d="M 3664.95969769413 2265.65852901519  A 1 1 0 0 1 3665.5 2265.5 L 3839 2265.5  A 5 5 0 0 0 3844.5 2260.5 L 3844.5 2244  A 5 5 0 0 1 3849.5 2239.5 L 4291 2239.5  " stroke-width="1" stroke="#d9001b" fill="none" />
  <path d="M 3666.4292036732 2262.5  A 3 3 0 0 0 3663.4292036732 2265.5 A 3 3 0 0 0 3666.4292036732 2268.5 A 3 3 0 0 0 3669.4292036732 2265.5 A 3 3 0 0 0 3666.4292036732 2262.5 Z M 4285.94644660941 2234.85355339059  L 4290.59289321881 2239.5  L 4285.94644660941 2244.14644660941  L 4286.65355339059 2244.85355339059  L 4291.65355339059 2239.85355339059  L 4292.00710678119 2239.5  L 4291.65355339059 2239.14644660941  L 4286.65355339059 2234.14644660941  L 4285.94644660941 2234.85355339059  Z " fill-rule="nonzero" fill="#d9001b" stroke="none" />
</svg>