<?xml version="1.0" encoding="utf-8"?>
<svg version="1.1" xmlns:xlink="http://www.w3.org/1999/xlink" width="10px" height="240px" preserveAspectRatio="xMidYMin meet" viewBox="3529 2572  8 240" xmlns="http://www.w3.org/2000/svg">
  <path d="M 3533.5 2573  L 3533.5 2597  A 3 3 0 0 1 3536.5 2600 A 3 3 0 0 1 3533.5 2603 L 3533.5 2806  " stroke-width="1" stroke="#8400ff" fill="none" />
  <path d="M 3533.5 2572  A 3 3 0 0 0 3530.5 2575 A 3 3 0 0 0 3533.5 2578 A 3 3 0 0 0 3536.5 2575 A 3 3 0 0 0 3533.5 2572 Z M 3538.14644660941 2800.94644660941  L 3533.5 2805.59289321881  L 3528.85355339059 2800.94644660941  L 3528.14644660941 2801.65355339059  L 3533.14644660941 2806.65355339059  L 3533.5 2807.00710678119  L 3533.85355339059 2806.65355339059  L 3538.85355339059 2801.65355339059  L 3538.14644660941 2800.94644660941  Z " fill-rule="nonzero" fill="#8400ff" stroke="none" />
</svg>