<?xml version="1.0" encoding="utf-8"?>
<svg version="1.1" xmlns:xlink="http://www.w3.org/1999/xlink" width="1316px" height="619px" xmlns="http://www.w3.org/2000/svg">
  <g transform="matrix(1 0 0 1 -35 -2591 )">
    <path d="M 36 2595  A 3 3 0 0 1 39 2592 L 1347 2592  A 3 3 0 0 1 1350 2595 L 1350 3206  A 3 3 0 0 1 1347 3209 L 39 3209  A 3 3 0 0 1 36 3206 L 36 2595  Z " fill-rule="nonzero" fill="#ffffff" stroke="none" fill-opacity="0.0352941176470588" />
    <path d="M 35.5 2595  A 3.5 3.5 0 0 1 39 2591.5 L 1347 2591.5  A 3.5 3.5 0 0 1 1350.5 2595 L 1350.5 3206  A 3.5 3.5 0 0 1 1347 3209.5 L 39 3209.5  A 3.5 3.5 0 0 1 35.5 3206 L 35.5 2595  Z " stroke-width="1" stroke-dasharray="9,4" stroke="#ec808d" fill="none" stroke-dashoffset="0.5" />
  </g>
</svg>