<?xml version="1.0" encoding="utf-8"?>
<svg version="1.1" xmlns:xlink="http://www.w3.org/1999/xlink" width="18px" height="18px" preserveAspectRatio="xMinYMid meet" viewBox="4646 1721  18 16" xmlns="http://www.w3.org/2000/svg">
  <path d="M 4655.62435031316 1731.51038416298  A 4 4 0 0 1 4659.5 1728.5 L 5663 1728.5  A 5 5 0 0 0 5668.5 1723.5 L 5668.5 1437  A 5 5 0 0 1 5673.5 1432.5 L 6050 1432.5  " stroke-width="1" stroke="#d9001b" fill="none" />
  <path d="M 4656.5732445245 1726.77344495991  A 3 3 0 0 0 4653.5732445245 1729.77344495991 A 3 3 0 0 0 4656.5732445245 1732.77344495991 A 3 3 0 0 0 4659.5732445245 1729.77344495991 A 3 3 0 0 0 4656.5732445245 1726.77344495991 Z M 6044.94644660941 1427.85355339059  L 6049.59289321881 1432.5  L 6044.94644660941 1437.14644660941  L 6045.65355339059 1437.85355339059  L 6050.65355339059 1432.85355339059  L 6051.00710678119 1432.5  L 6050.65355339059 1432.14644660941  L 6045.65355339059 1427.14644660941  L 6044.94644660941 1427.85355339059  Z " fill-rule="nonzero" fill="#d9001b" stroke="none" />
</svg>