<?xml version="1.0" encoding="utf-8"?>
<svg version="1.1" xmlns:xlink="http://www.w3.org/1999/xlink" width="18px" height="18px" preserveAspectRatio="xMinYMid meet" viewBox="3335 1424  18 16" xmlns="http://www.w3.org/2000/svg">
  <path d="M 2201 1400.5  L 2770 1400.5  A 5 5 0 0 1 2775.5 1405.5 L 2775.5 1427  A 5 5 0 0 0 2780.5 1432.5 L 3344 1432.5  " stroke-width="1" stroke="#d9001b" fill="none" />
  <path d="M 2203 1397.5  A 3 3 0 0 0 2200 1400.5 A 3 3 0 0 0 2203 1403.5 A 3 3 0 0 0 2206 1400.5 A 3 3 0 0 0 2203 1397.5 Z M 3338.94644660941 1427.85355339059  L 3343.59289321881 1432.5  L 3338.94644660941 1437.14644660941  L 3339.65355339059 1437.85355339059  L 3344.65355339059 1432.85355339059  L 3345.00710678119 1432.5  L 3344.65355339059 1432.14644660941  L 3339.65355339059 1427.14644660941  L 3338.94644660941 1427.85355339059  Z " fill-rule="nonzero" fill="#d9001b" stroke="none" />
</svg>