<?xml version="1.0" encoding="utf-8"?>
<svg version="1.1" xmlns:xlink="http://www.w3.org/1999/xlink" width="18px" height="18px" preserveAspectRatio="xMinYMid meet" viewBox="1867 3149  18 16" xmlns="http://www.w3.org/2000/svg">
  <path d="M 1876 3157.5  L 1808 3157.5  A 5 5 0 0 1 1803.5 3152.5 L 1803.5 1405  A 5 5 0 0 1 1808.5 1400.5 L 1909 1400.5  " stroke-width="1" stroke="#d9001b" fill="none" />
  <path d="M 1870.94644660941 3152.85355339059  L 1875.59289321881 3157.5  L 1870.94644660941 3162.14644660941  L 1871.65355339059 3162.85355339059  L 1876.65355339059 3157.85355339059  L 1877.00710678119 3157.5  L 1876.65355339059 3157.14644660941  L 1871.65355339059 3152.14644660941  L 1870.94644660941 3152.85355339059  Z M 1907 1397.5  A 3 3 0 0 0 1904 1400.5 A 3 3 0 0 0 1907 1403.5 A 3 3 0 0 0 1910 1400.5 A 3 3 0 0 0 1907 1397.5 Z " fill-rule="nonzero" fill="#d9001b" stroke="none" />
</svg>