<?xml version="1.0" encoding="utf-8"?>
<svg version="1.1" xmlns:xlink="http://www.w3.org/1999/xlink" width="10px" height="7px" preserveAspectRatio="xMinYMid meet" viewBox="2247 1222  10 5" xmlns="http://www.w3.org/2000/svg">
  <path d="M 2252.74483487622 1227.54114892279  A 2 2 0 0 1 2254.5 1226.5 L 2319 1226.5  " stroke-width="1" stroke="#d9001b" fill="none" />
  <path d="M 2254.35852559666 1223.50501002679  A 3 3 0 0 0 2251.35852559666 1226.50501002679 A 3 3 0 0 0 2254.35852559666 1229.50501002679 A 3 3 0 0 0 2257.35852559666 1226.50501002679 A 3 3 0 0 0 2254.35852559666 1223.50501002679 Z M 2317 1223.5  A 3 3 0 0 0 2314 1226.5 A 3 3 0 0 0 2317 1229.5 A 3 3 0 0 0 2320 1226.5 A 3 3 0 0 0 2317 1223.5 Z " fill-rule="nonzero" fill="#d9001b" stroke="none" />
</svg>