<?xml version="1.0" encoding="utf-8"?>
<svg version="1.1" xmlns:xlink="http://www.w3.org/1999/xlink" width="397px" height="10px" preserveAspectRatio="xMinYMid meet" viewBox="3895 3137  397 8" xmlns="http://www.w3.org/2000/svg">
  <path d="M 3650.74483487622 3170.54114892279  A 2 2 0 0 1 3652.5 3169.5 L 3895 3169.5  A 5 5 0 0 0 3900.5 3164.5 L 3900.5 3146  A 5 5 0 0 1 3905.5 3141.5 L 4291 3141.5  " stroke-width="1" stroke="#d9001b" fill="none" />
  <path d="M 3652.35852559666 3166.50501002679  A 3 3 0 0 0 3649.35852559666 3169.50501002679 A 3 3 0 0 0 3652.35852559666 3172.50501002679 A 3 3 0 0 0 3655.35852559666 3169.50501002679 A 3 3 0 0 0 3652.35852559666 3166.50501002679 Z M 4285.94644660941 3136.85355339059  L 4290.59289321881 3141.5  L 4285.94644660941 3146.14644660941  L 4286.65355339059 3146.85355339059  L 4291.65355339059 3141.85355339059  L 4292.00710678119 3141.5  L 4291.65355339059 3141.14644660941  L 4286.65355339059 3136.14644660941  L 4285.94644660941 3136.85355339059  Z " fill-rule="nonzero" fill="#d9001b" stroke="none" />
</svg>