<?xml version="1.0" encoding="utf-8"?>
<svg version="1.1" xmlns:xlink="http://www.w3.org/1999/xlink" width="215px" height="19px" xmlns="http://www.w3.org/2000/svg">
  <g transform="matrix(1 0 0 1 -4925 -3701 )">
    <path d="M 4937 3707.5  A 3 3 0 0 0 4934 3710.5 A 3 3 0 0 0 4937 3713.5 A 3 3 0 0 0 4940 3710.5 A 3 3 0 0 0 4937 3707.5 Z M 5124.94644660941 3705.85355339059  L 5129.59289321881 3710.5  L 5124.94644660941 3715.14644660941  L 5125.65355339059 3715.85355339059  L 5130.65355339059 3710.85355339059  L 5131.00710678119 3710.5  L 5130.65355339059 3710.14644660941  L 5125.65355339059 3705.14644660941  L 5124.94644660941 3705.85355339059  Z " fill-rule="nonzero" fill="#d9001b" stroke="none" />
    <path d="M 4935 3710.5  L 5130 3710.5  " stroke-width="1" stroke="#d9001b" fill="none" />
  </g>
</svg>