<?xml version="1.0" encoding="utf-8"?>
<svg version="1.1" xmlns:xlink="http://www.w3.org/1999/xlink" width="10px" height="8px" preserveAspectRatio="xMinYMid meet" viewBox="2156 565  10 6" xmlns="http://www.w3.org/2000/svg">
  <path d="M 2161.66512916106 565.481584090388  A 3 3 0 0 0 2164.5 567.5 L 2327 567.5  " stroke-width="1" stroke="#d9001b" fill="none" />
  <path d="M 2162.8790930824 564.024412954424  A 3 3 0 0 0 2159.8790930824 567.024412954424 A 3 3 0 0 0 2162.8790930824 570.024412954424 A 3 3 0 0 0 2165.8790930824 567.024412954424 A 3 3 0 0 0 2162.8790930824 564.024412954424 Z M 2325 564.5  A 3 3 0 0 0 2322 567.5 A 3 3 0 0 0 2325 570.5 A 3 3 0 0 0 2328 567.5 A 3 3 0 0 0 2325 564.5 Z " fill-rule="nonzero" fill="#d9001b" stroke="none" />
</svg>