<?xml version="1.0" encoding="utf-8"?>
<svg version="1.1" xmlns:xlink="http://www.w3.org/1999/xlink" width="18px" height="18px" preserveAspectRatio="xMinYMid meet" viewBox="3335 2230  18 16" xmlns="http://www.w3.org/2000/svg">
  <path d="M 2230 2548.5  L 2287 2548.5  A 5 5 0 0 0 2292.5 2543.5 L 2292.5 2487  A 5 5 0 0 1 2297.5 2482.5 L 3254 2482.5  A 5 5 0 0 0 3259.5 2477.5 L 3259.5 2243  A 5 5 0 0 1 3264.5 2238.5 L 3344 2238.5  " stroke-width="1" stroke="#d9001b" fill="none" />
  <path d="M 2232 2545.5  A 3 3 0 0 0 2229 2548.5 A 3 3 0 0 0 2232 2551.5 A 3 3 0 0 0 2235 2548.5 A 3 3 0 0 0 2232 2545.5 Z M 3338.94644660941 2233.85355339059  L 3343.59289321881 2238.5  L 3338.94644660941 2243.14644660941  L 3339.65355339059 2243.85355339059  L 3344.65355339059 2238.85355339059  L 3345.00710678119 2238.5  L 3344.65355339059 2238.14644660941  L 3339.65355339059 2233.14644660941  L 3338.94644660941 2233.85355339059  Z " fill-rule="nonzero" fill="#d9001b" stroke="none" />
</svg>