<?xml version="1.0" encoding="utf-8"?>
<svg version="1.1" xmlns:xlink="http://www.w3.org/1999/xlink" width="73px" height="10px" preserveAspectRatio="xMinYMid meet" viewBox="4642 3495  73 8" xmlns="http://www.w3.org/2000/svg">
  <path d="M 4647.74483487622 3500.54114892279  A 2 2 0 0 1 4649.5 3499.5 L 4714 3499.5  " stroke-width="1" stroke="#d9001b" fill="none" />
  <path d="M 4649.35852559666 3496.50501002679  A 3 3 0 0 0 4646.35852559666 3499.50501002679 A 3 3 0 0 0 4649.35852559666 3502.50501002679 A 3 3 0 0 0 4652.35852559666 3499.50501002679 A 3 3 0 0 0 4649.35852559666 3496.50501002679 Z M 4712 3496.5  A 3 3 0 0 0 4709 3499.5 A 3 3 0 0 0 4712 3502.5 A 3 3 0 0 0 4715 3499.5 A 3 3 0 0 0 4712 3496.5 Z " fill-rule="nonzero" fill="#d9001b" stroke="none" />
</svg>