<?xml version="1.0" encoding="utf-8"?>
<svg version="1.1" xmlns:xlink="http://www.w3.org/1999/xlink" width="10px" height="209px" preserveAspectRatio="xMidYMin meet" viewBox="2287 1992  8 209" xmlns="http://www.w3.org/2000/svg">
  <path d="M 2239 1997.5  L 2286 1997.5  A 5 5 0 0 1 2291.5 2002.5 L 2291.5 2191  A 5 5 0 0 0 2296.5 2196.5 L 2353 2196.5  " stroke-width="1" stroke="#d9001b" fill="none" />
  <path d="M 2241 1994.5  A 3 3 0 0 0 2238 1997.5 A 3 3 0 0 0 2241 2000.5 A 3 3 0 0 0 2244 1997.5 A 3 3 0 0 0 2241 1994.5 Z M 2347.94644660941 2191.85355339059  L 2352.59289321881 2196.5  L 2347.94644660941 2201.14644660941  L 2348.65355339059 2201.85355339059  L 2353.65355339059 2196.85355339059  L 2354.00710678119 2196.5  L 2353.65355339059 2196.14644660941  L 2348.65355339059 2191.14644660941  L 2347.94644660941 2191.85355339059  Z " fill-rule="nonzero" fill="#d9001b" stroke="none" />
</svg>