<?xml version="1.0" encoding="utf-8"?>
<svg version="1.1" xmlns:xlink="http://www.w3.org/1999/xlink" width="18px" height="18px" preserveAspectRatio="xMinYMid meet" viewBox="2220 4248  18 16" xmlns="http://www.w3.org/2000/svg">
  <path d="M 2229.74483487622 4258.54114892279  A 2 2 0 0 1 2231.5 4257.5 L 3270 4257.5  A 5 5 0 0 0 3275.5 4252.5 L 3275.5 3985  A 5 5 0 0 1 3280.5 3980.5 L 3431 3980.5  " stroke-width="1" stroke="#d9001b" fill="none" />
  <path d="M 2231.35852559666 4254.50501002679  A 3 3 0 0 0 2228.35852559666 4257.50501002679 A 3 3 0 0 0 2231.35852559666 4260.50501002679 A 3 3 0 0 0 2234.35852559666 4257.50501002679 A 3 3 0 0 0 2231.35852559666 4254.50501002679 Z M 3425.94644660941 3975.85355339059  L 3430.59289321881 3980.5  L 3425.94644660941 3985.14644660941  L 3426.65355339059 3985.85355339059  L 3431.65355339059 3980.85355339059  L 3432.00710678119 3980.5  L 3431.65355339059 3980.14644660941  L 3426.65355339059 3975.14644660941  L 3425.94644660941 3975.85355339059  Z " fill-rule="nonzero" fill="#d9001b" stroke="none" />
</svg>