<?xml version="1.0" encoding="utf-8"?>
<svg version="1.1" xmlns:xlink="http://www.w3.org/1999/xlink" width="10px" height="8px" preserveAspectRatio="xMinYMid meet" viewBox="1581 615  10 6" xmlns="http://www.w3.org/2000/svg">
  <path d="M 1586.66512916106 615.481584090388  A 3 3 0 0 0 1589.5 617.5 L 1752 617.5  " stroke-width="1" stroke="#d9001b" fill="none" />
  <path d="M 1587.8790930824 614.024412954424  A 3 3 0 0 0 1584.8790930824 617.024412954424 A 3 3 0 0 0 1587.8790930824 620.024412954424 A 3 3 0 0 0 1590.8790930824 617.024412954424 A 3 3 0 0 0 1587.8790930824 614.024412954424 Z M 1750 614.5  A 3 3 0 0 0 1747 617.5 A 3 3 0 0 0 1750 620.5 A 3 3 0 0 0 1753 617.5 A 3 3 0 0 0 1750 614.5 Z " fill-rule="nonzero" fill="#d9001b" stroke="none" />
</svg>