<?xml version="1.0" encoding="utf-8"?>
<svg version="1.1" xmlns:xlink="http://www.w3.org/1999/xlink" width="18px" height="18px" preserveAspectRatio="xMinYMid meet" viewBox="2265 667  18 16" xmlns="http://www.w3.org/2000/svg">
  <path d="M 2082.66512916106 615.481584090388  A 3 3 0 0 0 2085.5 617.5 L 2203 617.5  A 5 5 0 0 1 2208.5 622.5 L 2208.5 670  A 5 5 0 0 0 2213.5 675.5 L 2274 675.5  " stroke-width="1" stroke="#d9001b" fill="none" />
  <path d="M 2083.8790930824 614.024412954424  A 3 3 0 0 0 2080.8790930824 617.024412954424 A 3 3 0 0 0 2083.8790930824 620.024412954424 A 3 3 0 0 0 2086.8790930824 617.024412954424 A 3 3 0 0 0 2083.8790930824 614.024412954424 Z M 2268.94644660941 670.853553390593  L 2273.59289321881 675.5  L 2268.94644660941 680.146446609407  L 2269.65355339059 680.853553390593  L 2274.65355339059 675.853553390593  L 2275.00710678119 675.5  L 2274.65355339059 675.146446609407  L 2269.65355339059 670.146446609407  L 2268.94644660941 670.853553390593  Z " fill-rule="nonzero" fill="#d9001b" stroke="none" />
</svg>