<?xml version="1.0" encoding="utf-8"?>
<svg version="1.1" xmlns:xlink="http://www.w3.org/1999/xlink" width="176px" height="10px" preserveAspectRatio="xMinYMid meet" viewBox="1577 787  176 8" xmlns="http://www.w3.org/2000/svg">
  <path d="M 1582.74483487622 790.458851077208  A 2 2 0 0 0 1584.5 791.5 L 1752 791.5  " stroke-width="1" stroke="#d9001b" fill="none" />
  <path d="M 1584.35852559666 788.494989973208  A 3 3 0 0 0 1581.35852559666 791.494989973208 A 3 3 0 0 0 1584.35852559666 794.494989973208 A 3 3 0 0 0 1587.35852559666 791.494989973208 A 3 3 0 0 0 1584.35852559666 788.494989973208 Z M 1750 788.5  A 3 3 0 0 0 1747 791.5 A 3 3 0 0 0 1750 794.5 A 3 3 0 0 0 1753 791.5 A 3 3 0 0 0 1750 788.5 Z " fill-rule="nonzero" fill="#d9001b" stroke="none" />
</svg>