<?xml version="1.0" encoding="utf-8"?>
<svg version="1.1" xmlns:xlink="http://www.w3.org/1999/xlink" width="950px" height="10px" preserveAspectRatio="xMinYMid meet" viewBox="1515 1096  950 8" xmlns="http://www.w3.org/2000/svg">
  <path d="M 2461.54114892279 994.744834876219  A 2 2 0 0 0 2460.5 996.5 L 2460.5 1095  A 5 5 0 0 1 2455.5 1100.5 L 1525 1100.5  A 5 5 0 0 0 1520.5 1105.5 L 1520.5 1161  " stroke-width="1" stroke="#d9001b" fill="none" />
  <path d="M 2460.50501002679 993.358525596665  A 3 3 0 0 0 2457.50501002679 996.358525596665 A 3 3 0 0 0 2460.50501002679 999.358525596665 A 3 3 0 0 0 2463.50501002679 996.358525596665 A 3 3 0 0 0 2460.50501002679 993.358525596665 Z M 1525.14644660941 1155.94644660941  L 1520.5 1160.59289321881  L 1515.85355339059 1155.94644660941  L 1515.14644660941 1156.65355339059  L 1520.14644660941 1161.65355339059  L 1520.5 1162.00710678119  L 1520.85355339059 1161.65355339059  L 1525.85355339059 1156.65355339059  L 1525.14644660941 1155.94644660941  Z " fill-rule="nonzero" fill="#d9001b" stroke="none" />
</svg>