<?xml version="1.0" encoding="utf-8"?>
<svg version="1.1" xmlns:xlink="http://www.w3.org/1999/xlink" width="18px" height="18px" preserveAspectRatio="xMinYMid meet" viewBox="1763 1282  18 16" xmlns="http://www.w3.org/2000/svg">
  <path d="M 1707.74483487622 1291.54114892279  A 2 2 0 0 1 1709.5 1290.5 L 1774 1290.5  " stroke-width="1" stroke="#d9001b" fill="none" />
  <path d="M 1709.35852559666 1287.50501002679  A 3 3 0 0 0 1706.35852559666 1290.50501002679 A 3 3 0 0 0 1709.35852559666 1293.50501002679 A 3 3 0 0 0 1712.35852559666 1290.50501002679 A 3 3 0 0 0 1709.35852559666 1287.50501002679 Z M 1772 1287.5  A 3 3 0 0 0 1769 1290.5 A 3 3 0 0 0 1772 1293.5 A 3 3 0 0 0 1775 1290.5 A 3 3 0 0 0 1772 1287.5 Z " fill-rule="nonzero" fill="#d9001b" stroke="none" />
</svg>