<?xml version="1.0" encoding="utf-8"?>
<svg version="1.1" xmlns:xlink="http://www.w3.org/1999/xlink" width="18px" height="18px" preserveAspectRatio="xMinYMid meet" viewBox="1765 1500  18 16" xmlns="http://www.w3.org/2000/svg">
  <path d="M 1709.74483487622 1509.54114892279  A 2 2 0 0 1 1711.5 1508.5 L 1776 1508.5  " stroke-width="1" stroke="#d9001b" fill="none" />
  <path d="M 1711.35852559666 1505.50501002679  A 3 3 0 0 0 1708.35852559666 1508.50501002679 A 3 3 0 0 0 1711.35852559666 1511.50501002679 A 3 3 0 0 0 1714.35852559666 1508.50501002679 A 3 3 0 0 0 1711.35852559666 1505.50501002679 Z M 1774 1505.5  A 3 3 0 0 0 1771 1508.5 A 3 3 0 0 0 1774 1511.5 A 3 3 0 0 0 1777 1508.5 A 3 3 0 0 0 1774 1505.5 Z " fill-rule="nonzero" fill="#d9001b" stroke="none" />
</svg>