<?xml version="1.0" encoding="utf-8"?>
<svg version="1.1" xmlns:xlink="http://www.w3.org/1999/xlink" width="10px" height="7px" preserveAspectRatio="xMinYMid meet" viewBox="1705 2274  10 5" xmlns="http://www.w3.org/2000/svg">
  <path d="M 1710.74483487622 2279.54114892279  A 2 2 0 0 1 1712.5 2278.5 L 1777 2278.5  " stroke-width="1" stroke="#d9001b" fill="none" />
  <path d="M 1712.35852559666 2275.50501002679  A 3 3 0 0 0 1709.35852559666 2278.50501002679 A 3 3 0 0 0 1712.35852559666 2281.50501002679 A 3 3 0 0 0 1715.35852559666 2278.50501002679 A 3 3 0 0 0 1712.35852559666 2275.50501002679 Z M 1775 2275.5  A 3 3 0 0 0 1772 2278.5 A 3 3 0 0 0 1775 2281.5 A 3 3 0 0 0 1778 2278.5 A 3 3 0 0 0 1775 2275.5 Z " fill-rule="nonzero" fill="#d9001b" stroke="none" />
</svg>