<?xml version="1.0" encoding="utf-8"?>
<svg version="1.1" xmlns:xlink="http://www.w3.org/1999/xlink" width="1010px" height="10px" preserveAspectRatio="xMinYMid meet" viewBox="1695 2609  1010 8" xmlns="http://www.w3.org/2000/svg">
  <path d="M 1696 2613.5  L 2695 2613.5  A 5 5 0 0 0 2700.5 2608.5 L 2700.5 2311  A 5 5 0 0 1 2705.5 2306.5 L 2781 2306.5  " stroke-width="1" stroke="#d9001b" fill="none" />
  <path d="M 1698 2610.5  A 3 3 0 0 0 1695 2613.5 A 3 3 0 0 0 1698 2616.5 A 3 3 0 0 0 1701 2613.5 A 3 3 0 0 0 1698 2610.5 Z M 2775.94644660941 2301.85355339059  L 2780.59289321881 2306.5  L 2775.94644660941 2311.14644660941  L 2776.65355339059 2311.85355339059  L 2781.65355339059 2306.85355339059  L 2782.00710678119 2306.5  L 2781.65355339059 2306.14644660941  L 2776.65355339059 2301.14644660941  L 2775.94644660941 2301.85355339059  Z " fill-rule="nonzero" fill="#d9001b" stroke="none" />
</svg>