<?xml version="1.0" encoding="utf-8"?>
<svg version="1.1" xmlns:xlink="http://www.w3.org/1999/xlink" width="73px" height="10px" preserveAspectRatio="xMinYMid meet" viewBox="1691 2721  73 8" xmlns="http://www.w3.org/2000/svg">
  <path d="M 1696.74483487622 2726.54114892279  A 2 2 0 0 1 1698.5 2725.5 L 1763 2725.5  " stroke-width="1" stroke="#d9001b" fill="none" />
  <path d="M 1698.35852559666 2722.50501002679  A 3 3 0 0 0 1695.35852559666 2725.50501002679 A 3 3 0 0 0 1698.35852559666 2728.50501002679 A 3 3 0 0 0 1701.35852559666 2725.50501002679 A 3 3 0 0 0 1698.35852559666 2722.50501002679 Z M 1761 2722.5  A 3 3 0 0 0 1758 2725.5 A 3 3 0 0 0 1761 2728.5 A 3 3 0 0 0 1764 2725.5 A 3 3 0 0 0 1761 2722.5 Z " fill-rule="nonzero" fill="#d9001b" stroke="none" />
</svg>