<?xml version="1.0" encoding="utf-8"?>
<svg version="1.1" xmlns:xlink="http://www.w3.org/1999/xlink" width="18px" height="18px" preserveAspectRatio="xMinYMid meet" viewBox="1766 3194  18 16" xmlns="http://www.w3.org/2000/svg">
  <path d="M 1710.74483487622 3203.54114892279  A 2 2 0 0 1 1712.5 3202.5 L 1777 3202.5  " stroke-width="1" stroke="#d9001b" fill="none" />
  <path d="M 1712.35852559666 3199.50501002679  A 3 3 0 0 0 1709.35852559666 3202.50501002679 A 3 3 0 0 0 1712.35852559666 3205.50501002679 A 3 3 0 0 0 1715.35852559666 3202.50501002679 A 3 3 0 0 0 1712.35852559666 3199.50501002679 Z M 1775 3199.5  A 3 3 0 0 0 1772 3202.5 A 3 3 0 0 0 1775 3205.5 A 3 3 0 0 0 1778 3202.5 A 3 3 0 0 0 1775 3199.5 Z " fill-rule="nonzero" fill="#d9001b" stroke="none" />
</svg>