<?xml version="1.0" encoding="utf-8"?>
<svg version="1.1" xmlns:xlink="http://www.w3.org/1999/xlink" width="18px" height="18px" preserveAspectRatio="xMinYMid meet" viewBox="1356 1479  18 16" xmlns="http://www.w3.org/2000/svg">
  <path d="M 1331 3221.5  L 1263 3221.5  A 5 5 0 0 1 1258.5 3216.5 L 1258.5 1494  A 5 5 0 0 1 1263.5 1489.5 L 1364.5 1489.5  A 0.5 0.5 0 0 1 1365.5 1490 " stroke-width="1" stroke="#d9001b" fill="none" />
  <path d="M 1325.94644660941 3216.85355339059  L 1330.59289321881 3221.5  L 1325.94644660941 3226.14644660941  L 1326.65355339059 3226.85355339059  L 1331.65355339059 3221.85355339059  L 1332.00710678119 3221.5  L 1331.65355339059 3221.14644660941  L 1326.65355339059 3216.14644660941  L 1325.94644660941 3216.85355339059  Z M 1362.7853981634 1486.5  A 3 3 0 0 0 1359.7853981634 1489.5 A 3 3 0 0 0 1362.7853981634 1492.5 A 3 3 0 0 0 1365.7853981634 1489.5 A 3 3 0 0 0 1362.7853981634 1486.5 Z " fill-rule="nonzero" fill="#d9001b" stroke="none" />
</svg>