<?xml version="1.0" encoding="utf-8"?>
<svg version="1.1" xmlns:xlink="http://www.w3.org/1999/xlink" width="73px" height="10px" preserveAspectRatio="xMinYMid meet" viewBox="1705 4010  73 8" xmlns="http://www.w3.org/2000/svg">
  <path d="M 1710.74483487622 4015.54114892279  A 2 2 0 0 1 1712.5 4014.5 L 1777 4014.5  " stroke-width="1" stroke="#d9001b" fill="none" />
  <path d="M 1712.35852559666 4011.50501002679  A 3 3 0 0 0 1709.35852559666 4014.50501002679 A 3 3 0 0 0 1712.35852559666 4017.50501002679 A 3 3 0 0 0 1715.35852559666 4014.50501002679 A 3 3 0 0 0 1712.35852559666 4011.50501002679 Z M 1775 4011.5  A 3 3 0 0 0 1772 4014.5 A 3 3 0 0 0 1775 4017.5 A 3 3 0 0 0 1778 4014.5 A 3 3 0 0 0 1775 4011.5 Z " fill-rule="nonzero" fill="#d9001b" stroke="none" />
</svg>