<?xml version="1.0" encoding="utf-8"?>
<svg version="1.1" xmlns:xlink="http://www.w3.org/1999/xlink" width="18px" height="18px" preserveAspectRatio="xMinYMid meet" viewBox="1685 4319  18 16" xmlns="http://www.w3.org/2000/svg">
  <path d="M 1694.66512916106 4329.51841590961  A 3 3 0 0 1 1697.5 4327.5 L 2759 4327.5  A 5 5 0 0 0 2764.5 4322.5 L 2764.5 4030  A 5 5 0 0 1 2769.5 4025.5 L 2881 4025.5  " stroke-width="1" stroke="#d9001b" fill="none" />
  <path d="M 1695.8790930824 4324.97558704558  A 3 3 0 0 0 1692.8790930824 4327.97558704558 A 3 3 0 0 0 1695.8790930824 4330.97558704558 A 3 3 0 0 0 1698.8790930824 4327.97558704558 A 3 3 0 0 0 1695.8790930824 4324.97558704558 Z M 2875.94644660941 4020.85355339059  L 2880.59289321881 4025.5  L 2875.94644660941 4030.14644660941  L 2876.65355339059 4030.85355339059  L 2881.65355339059 4025.85355339059  L 2882.00710678119 4025.5  L 2881.65355339059 4025.14644660941  L 2876.65355339059 4020.14644660941  L 2875.94644660941 4020.85355339059  Z " fill-rule="nonzero" fill="#d9001b" stroke="none" />
</svg>