<?xml version="1.0" encoding="utf-8"?>
<svg version="1.1" xmlns:xlink="http://www.w3.org/1999/xlink" width="73px" height="10px" preserveAspectRatio="xMinYMid meet" viewBox="3241 3983  73 8" xmlns="http://www.w3.org/2000/svg">
  <path d="M 3246.74483487622 3988.54114892279  A 2 2 0 0 1 3248.5 3987.5 L 3313 3987.5  " stroke-width="1" stroke="#d9001b" fill="none" />
  <path d="M 3248.35852559666 3984.50501002679  A 3 3 0 0 0 3245.35852559666 3987.50501002679 A 3 3 0 0 0 3248.35852559666 3990.50501002679 A 3 3 0 0 0 3251.35852559666 3987.50501002679 A 3 3 0 0 0 3248.35852559666 3984.50501002679 Z M 3311 3984.5  A 3 3 0 0 0 3308 3987.5 A 3 3 0 0 0 3311 3990.5 A 3 3 0 0 0 3314 3987.5 A 3 3 0 0 0 3311 3984.5 Z " fill-rule="nonzero" fill="#d9001b" stroke="none" />
</svg>