<?xml version="1.0" encoding="utf-8"?>
<svg version="1.1" xmlns:xlink="http://www.w3.org/1999/xlink" width="73px" height="10px" preserveAspectRatio="xMinYMid meet" viewBox="3140 2263  73 8" xmlns="http://www.w3.org/2000/svg">
  <path d="M 3145.74483487622 2268.54114892279  A 2 2 0 0 1 3147.5 2267.5 L 3212 2267.5  " stroke-width="1" stroke="#d9001b" fill="none" />
  <path d="M 3147.35852559666 2264.50501002679  A 3 3 0 0 0 3144.35852559666 2267.50501002679 A 3 3 0 0 0 3147.35852559666 2270.50501002679 A 3 3 0 0 0 3150.35852559666 2267.50501002679 A 3 3 0 0 0 3147.35852559666 2264.50501002679 Z M 3210 2264.5  A 3 3 0 0 0 3207 2267.5 A 3 3 0 0 0 3210 2270.5 A 3 3 0 0 0 3213 2267.5 A 3 3 0 0 0 3210 2264.5 Z " fill-rule="nonzero" fill="#d9001b" stroke="none" />
</svg>