<?xml version="1.0" encoding="utf-8"?>
<svg version="1.1" xmlns:xlink="http://www.w3.org/1999/xlink" width="44px" height="176px" xmlns="http://www.w3.org/2000/svg">
  <g transform="matrix(1 0 0 1 -686 -151 )">
    <path d="M 686.122516556291 321.852426182671  C 686.122516556291 321.852426182671  686.122516556291 156.396624472574  686.122516556291 156.396624472574  C 686.122516556291 153.63520072342  688.361092807137 151.396624472574  691.122516556291 151.396624472574  C 691.122516556291 151.396624472574  717.877483443709 151.396624472574  717.877483443709 151.396624472574  C 720.638907192863 151.396624472574  722.877483443709 153.63520072342  722.877483443709 156.396624472574  C 722.877483443709 156.396624472574  722.877483443709 292.6  722.877483443709 292.6  C 722.877483443709 292.6  729.406779661017 302.430508474576  729.406779661017 302.430508474576  C 729.406779661017 302.430508474576  722.877483443709 312.6  722.877483443709 312.6  C 722.877483443709 312.6  722.877483443709 321.852426182671  722.877483443709 321.852426182671  C 722.877483443709 324.613849931825  720.638907192863 326.852426182671  717.877483443709 326.852426182671  C 717.877483443709 326.852426182671  691.122516556291 326.852426182671  691.122516556291 326.852426182671  C 688.361092807137 326.852426182671  686.122516556291 324.613849931825  686.122516556291 321.852426182671  Z " fill-rule="nonzero" fill="#000000" stroke="none" />
  </g>
</svg>