<?xml version="1.0" encoding="utf-8"?>
<svg version="1.1" xmlns:xlink="http://www.w3.org/1999/xlink" width="149px" height="249px" xmlns="http://www.w3.org/2000/svg">
  <g transform="matrix(1 0 0 1 -1671 -181 )">
    <path d="M 1671.49337748344 410.91016158522  C 1671.49337748344 410.91016158522  1671.49337748344 186.529825609822  1671.49337748344 186.529825609822  C 1671.49337748344 183.768401860668  1673.73195373429 181.529825609822  1676.49337748344 181.529825609822  C 1676.49337748344 181.529825609822  1814.50662251656 181.529825609822  1814.50662251656 181.529825609822  C 1817.26804626571 181.529825609822  1819.50662251656 183.768401860668  1819.50662251656 186.529825609822  C 1819.50662251656 186.529825609822  1819.50662251656 410.91016158522  1819.50662251656 410.91016158522  C 1819.50662251656 413.671585334374  1817.26804626571 415.91016158522  1814.50662251656 415.91016158522  C 1814.50662251656 415.91016158522  1714.19502640095 415.91016158522  1714.19502640095 415.91016158522  C 1714.19502640095 415.91016158522  1702.14001021972 429.231307883442  1702.14001021972 429.231307883442  C 1702.14001021972 429.231307883442  1688.18157043093 415.91016158522  1688.18157043093 415.91016158522  C 1688.18157043093 415.91016158522  1676.49337748344 415.91016158522  1676.49337748344 415.91016158522  C 1673.73195373429 415.91016158522  1671.49337748344 413.671585334374  1671.49337748344 410.91016158522  Z " fill-rule="nonzero" fill="#000000" stroke="none" fill-opacity="0.8" />
  </g>
</svg>