<?xml version="1.0" encoding="utf-8"?>
<svg version="1.1" xmlns:xlink="http://www.w3.org/1999/xlink" width="72px" height="233px" xmlns="http://www.w3.org/2000/svg">
  <g transform="matrix(1 0 0 1 -1690 -726 )">
    <path d="M 1690.23841059603 940.815532728339  C 1690.23841059603 940.815532728339  1690.23841059603 731.495780590717  1690.23841059603 731.495780590717  C 1690.23841059603 728.734356841563  1692.47698684687 726.495780590717  1695.23841059603 726.495780590717  C 1695.23841059603 726.495780590717  1756.76158940397 726.495780590717  1756.76158940397 726.495780590717  C 1759.52301315313 726.495780590717  1761.76158940397 728.734356841563  1761.76158940397 731.495780590717  C 1761.76158940397 731.495780590717  1761.76158940397 940.815532728339  1761.76158940397 940.815532728339  C 1761.76158940397 943.576956477493  1759.52301315313 945.815532728339  1756.76158940397 945.815532728339  C 1756.76158940397 945.815532728339  1719.8125 945.815532728339  1719.8125 945.815532728339  C 1719.8125 945.815532728339  1710.125 958.5625  1710.125 958.5625  C 1710.125 958.5625  1699.8125 945.815532728339  1699.8125 945.815532728339  C 1699.8125 945.815532728339  1695.23841059603 945.815532728339  1695.23841059603 945.815532728339  C 1692.47698684687 945.815532728339  1690.23841059603 943.576956477493  1690.23841059603 940.815532728339  Z " fill-rule="nonzero" fill="#000000" stroke="none" fill-opacity="0.8" />
  </g>
</svg>