<?xml version="1.0" encoding="utf-8"?>
<svg version="1.1" xmlns:xlink="http://www.w3.org/1999/xlink" width="80px" height="220px" xmlns="http://www.w3.org/2000/svg">
  <g transform="matrix(1 0 0 1 -1184 -35 )">
    <path d="M 1184.47107005925 249.815532728339  C 1184.47107005925 249.815532728339  1184.47107005925 40.4957805907173  1184.47107005925 40.4957805907173  C 1184.47107005925 37.7343568415633  1186.7096463101 35.4957805907173  1189.47107005925 35.4957805907173  C 1189.47107005925 35.4957805907173  1249.73945625654 35.4957805907173  1249.73945625654 35.4957805907173  C 1252.50088000569 35.4957805907173  1254.73945625654 37.7343568415633  1254.73945625654 40.4957805907173  C 1254.73945625654 40.4957805907173  1254.73945625654 43.0394736842104  1254.73945625654 43.0394736842104  C 1254.73945625654 43.0394736842104  1263.40909090909 52.6136363636363  1263.40909090909 52.6136363636363  C 1263.40909090909 52.6136363636363  1254.73945625654 63.0394736842104  1254.73945625654 63.0394736842104  C 1254.73945625654 63.0394736842104  1254.73945625654 249.815532728339  1254.73945625654 249.815532728339  C 1254.73945625654 252.576956477493  1252.50088000569 254.815532728339  1249.73945625654 254.815532728339  C 1249.73945625654 254.815532728339  1189.47107005925 254.815532728339  1189.47107005925 254.815532728339  C 1186.7096463101 254.815532728339  1184.47107005925 252.576956477493  1184.47107005925 249.815532728339  Z " fill-rule="nonzero" fill="#000000" stroke="none" fill-opacity="0.8" />
  </g>
</svg>