<?xml version="1.0" encoding="utf-8"?>
<svg version="1.1" xmlns:xlink="http://www.w3.org/1999/xlink" width="76px" height="233px" xmlns="http://www.w3.org/2000/svg">
  <g transform="matrix(1 0 0 1 -1691 -242 )">
    <path d="M 1691.25165562914 456.815532728339  C 1691.25165562914 456.815532728339  1691.25165562914 247.495780590717  1691.25165562914 247.495780590717  C 1691.25165562914 244.734356841563  1693.49023187999 242.495780590717  1696.25165562914 242.495780590717  C 1696.25165562914 242.495780590717  1761.74834437086 242.495780590717  1761.74834437086 242.495780590717  C 1764.50976812001 242.495780590717  1766.74834437086 244.734356841563  1766.74834437086 247.495780590717  C 1766.74834437086 247.495780590717  1766.74834437086 456.815532728339  1766.74834437086 456.815532728339  C 1766.74834437086 459.576956477493  1764.50976812001 461.815532728339  1761.74834437086 461.815532728339  C 1761.74834437086 461.815532728339  1725.87353365884 461.815532728339  1725.87353365884 461.815532728339  C 1725.87353365884 461.815532728339  1716.75798847564 475.04347826087  1716.75798847564 475.04347826087  C 1716.75798847564 475.04347826087  1705.87353365884 461.815532728339  1705.87353365884 461.815532728339  C 1705.87353365884 461.815532728339  1696.25165562914 461.815532728339  1696.25165562914 461.815532728339  C 1693.49023187999 461.815532728339  1691.25165562914 459.576956477493  1691.25165562914 456.815532728339  Z " fill-rule="nonzero" fill="#000000" stroke="none" fill-opacity="0.8" />
  </g>
</svg>