<?xml version="1.0" encoding="utf-8"?>
<svg version="1.1" xmlns:xlink="http://www.w3.org/1999/xlink" width="166px" height="233px" xmlns="http://www.w3.org/2000/svg">
  <g transform="matrix(1 0 0 1 -1658 -192 )">
    <path d="M 1658.54966887417 406.815532728339  C 1658.54966887417 406.815532728339  1658.54966887417 197.495780590717  1658.54966887417 197.495780590717  C 1658.54966887417 194.734356841563  1660.78824512502 192.495780590717  1663.54966887417 192.495780590717  C 1663.54966887417 192.495780590717  1818.45033112583 192.495780590717  1818.45033112583 192.495780590717  C 1821.21175487498 192.495780590717  1823.45033112583 194.734356841563  1823.45033112583 197.495780590717  C 1823.45033112583 197.495780590717  1823.45033112583 406.815532728339  1823.45033112583 406.815532728339  C 1823.45033112583 409.576956477493  1821.21175487498 411.815532728339  1818.45033112583 411.815532728339  C 1818.45033112583 411.815532728339  1722.4138874699 411.815532728338  1722.4138874699 411.815532728338  C 1722.4138874699 411.815532728338  1707.876924761 424.251295336788  1707.876924761 424.251295336788  C 1707.876924761 424.251295336788  1690.83198113208 411.815532728338  1690.83198113208 411.815532728338  C 1690.83198113208 411.815532728338  1663.54966887417 411.815532728339  1663.54966887417 411.815532728339  C 1660.78824512502 411.815532728339  1658.54966887417 409.576956477493  1658.54966887417 406.815532728339  Z " fill-rule="nonzero" fill="#000000" stroke="none" fill-opacity="0.8" />
  </g>
</svg>