<?xml version="1.0" encoding="utf-8"?>
<svg version="1.1" xmlns:xlink="http://www.w3.org/1999/xlink" width="77px" height="221px" xmlns="http://www.w3.org/2000/svg">
  <g transform="matrix(1 0 0 1 -1075 -41 )">
    <path d="M 1075.60838633532 256.315532728338  C 1075.60838633532 256.315532728338  1075.60838633532 46.9957805907173  1075.60838633532 46.9957805907173  C 1075.60838633532 44.2343568415633  1077.84696258617 41.9957805907173  1080.60838633532 41.9957805907173  C 1080.60838633532 41.9957805907173  1138.76785128844 41.9957805907173  1138.76785128844 41.9957805907173  C 1141.52927503759 41.9957805907173  1143.76785128844 44.2343568415633  1143.76785128844 46.9957805907173  C 1143.76785128844 46.9957805907173  1143.76785128844 112.669491525424  1143.76785128844 112.669491525424  C 1143.76785128844 112.669491525424  1151.53795379538 122.575757575758  1151.53795379538 122.575757575758  C 1151.53795379538 122.575757575758  1143.76785128844 132.669491525424  1143.76785128844 132.669491525424  C 1143.76785128844 132.669491525424  1143.76785128844 256.315532728338  1143.76785128844 256.315532728338  C 1143.76785128844 259.076956477492  1141.52927503759 261.315532728338  1138.76785128844 261.315532728338  C 1138.76785128844 261.315532728338  1080.60838633532 261.315532728338  1080.60838633532 261.315532728338  C 1077.84696258617 261.315532728338  1075.60838633532 259.076956477492  1075.60838633532 256.315532728338  Z " fill-rule="nonzero" fill="#000000" stroke="none" />
  </g>
</svg>