<?xml version="1.0" encoding="utf-8"?>
<svg version="1.1" xmlns:xlink="http://www.w3.org/1999/xlink" width="94px" height="220px" xmlns="http://www.w3.org/2000/svg">
  <g transform="matrix(1 0 0 1 -725 -309 )">
    <path d="M 736.861925065772 523.815532728338  C 736.861925065772 523.815532728338  736.861925065772 513.824649298597  736.861925065772 513.824649298597  C 736.861925065772 513.824649298597  726.082191780822 504.414893617021  726.082191780822 504.414893617021  C 726.082191780822 504.414893617021  736.861925065772 493.824649298597  736.861925065772 493.824649298597  C 736.861925065772 493.824649298597  736.861925065772 314.495780590717  736.861925065772 314.495780590717  C 736.861925065772 311.734356841563  739.100501316618 309.495780590717  741.861925065772 309.495780590717  C 741.861925065772 309.495780590717  813.727116030119 309.495780590717  813.727116030119 309.495780590717  C 816.488539779273 309.495780590717  818.727116030119 311.734356841563  818.727116030119 314.495780590717  C 818.727116030119 314.495780590717  818.727116030119 523.815532728338  818.727116030119 523.815532728338  C 818.727116030119 526.576956477492  816.488539779273 528.815532728338  813.727116030119 528.815532728338  C 813.727116030119 528.815532728338  741.861925065772 528.815532728338  741.861925065772 528.815532728338  C 739.100501316618 528.815532728338  736.861925065772 526.576956477492  736.861925065772 523.815532728338  Z " fill-rule="nonzero" fill="#000000" stroke="none" />
  </g>
</svg>