<?xml version="1.0" encoding="utf-8"?>
<svg version="1.1" xmlns:xlink="http://www.w3.org/1999/xlink" width="95px" height="233px" xmlns="http://www.w3.org/2000/svg">
  <g transform="matrix(1 0 0 1 -1412 -620 )">
    <path d="M 1412.47106050984 834.815532728339  C 1412.47106050984 834.815532728339  1412.47106050984 625.495780590717  1412.47106050984 625.495780590717  C 1412.47106050984 622.734356841563  1414.70963676069 620.495780590717  1417.47106050984 620.495780590717  C 1417.47106050984 620.495780590717  1501.52893949016 620.495780590717  1501.52893949016 620.495780590717  C 1504.29036323931 620.495780590717  1506.52893949016 622.734356841563  1506.52893949016 625.495780590717  C 1506.52893949016 625.495780590717  1506.52893949016 834.815532728339  1506.52893949016 834.815532728339  C 1506.52893949016 837.576956477493  1504.29036323931 839.815532728339  1501.52893949016 839.815532728339  C 1501.52893949016 839.815532728339  1494.61616161616 839.815532728339  1494.61616161616 839.815532728339  C 1494.61616161616 839.815532728339  1485.62626262626 852.902356902357  1485.62626262626 852.902356902357  C 1485.62626262626 852.902356902357  1474.61616161616 839.815532728339  1474.61616161616 839.815532728339  C 1474.61616161616 839.815532728339  1417.47106050984 839.815532728339  1417.47106050984 839.815532728339  C 1414.70963676069 839.815532728339  1412.47106050984 837.576956477493  1412.47106050984 834.815532728339  Z " fill-rule="nonzero" fill="#000000" stroke="none" />
  </g>
</svg>