<?xml version="1.0" encoding="utf-8"?>
<svg version="1.1" xmlns:xlink="http://www.w3.org/1999/xlink" width="171px" height="233px" xmlns="http://www.w3.org/2000/svg">
  <g transform="matrix(1 0 0 1 -1369 -207 )">
    <path d="M 1369.06953642384 422.315532728338  C 1369.06953642384 422.315532728338  1369.06953642384 212.995780590717  1369.06953642384 212.995780590717  C 1369.06953642384 210.234356841563  1371.30811267469 207.995780590717  1374.06953642384 207.995780590717  C 1374.06953642384 207.995780590717  1534.93046357616 207.995780590717  1534.93046357616 207.995780590717  C 1537.69188732531 207.995780590717  1539.93046357616 210.234356841563  1539.93046357616 212.995780590717  C 1539.93046357616 212.995780590717  1539.93046357616 422.315532728338  1539.93046357616 422.315532728338  C 1539.93046357616 425.076956477492  1537.69188732531 427.315532728338  1534.93046357616 427.315532728338  C 1534.93046357616 427.315532728338  1410.45945945946 427.315532728338  1410.45945945946 427.315532728338  C 1410.45945945946 427.315532728338  1400.72972972973 439.081081081081  1400.72972972973 439.081081081081  C 1400.72972972973 439.081081081081  1388.83783783784 427.315532728338  1388.83783783784 427.315532728338  C 1388.83783783784 427.315532728338  1374.06953642384 427.315532728338  1374.06953642384 427.315532728338  C 1371.30811267469 427.315532728338  1369.06953642384 425.076956477492  1369.06953642384 422.315532728338  Z " fill-rule="nonzero" fill="#000000" stroke="none" />
  </g>
</svg>