<?xml version="1.0" encoding="utf-8"?>
<svg version="1.1" xmlns:xlink="http://www.w3.org/1999/xlink" width="133px" height="247px" xmlns="http://www.w3.org/2000/svg">
  <g transform="matrix(1 0 0 1 -1673 21 )">
    <path d="M 1673.44039735099 207.02333297811  C 1673.44039735099 207.02333297811  1673.44039735099 -15.4744300175658  1673.44039735099 -15.4744300175658  C 1673.44039735099 -18.2358537667197  1675.67897360184 -20.4744300175658  1678.44039735099 -20.4744300175658  C 1678.44039735099 -20.4744300175658  1800.55960264901 -20.4744300175658  1800.55960264901 -20.4744300175658  C 1803.32102639816 -20.4744300175658  1805.55960264901 -18.2358537667197  1805.55960264901 -15.4744300175658  C 1805.55960264901 -15.4744300175658  1805.55960264901 207.02333297811  1805.55960264901 207.02333297811  C 1805.55960264901 209.784756727264  1803.32102639816 212.02333297811  1800.55960264901 212.02333297811  C 1800.55960264901 212.02333297811  1731.84925343372 212.02333297811  1731.84925343372 212.02333297811  C 1731.84925343372 212.02333297811  1722.75932953827 225.469957081545  1722.75932953827 225.469957081545  C 1722.75932953827 225.469957081545  1711.84925343372 212.02333297811  1711.84925343372 212.02333297811  C 1711.84925343372 212.02333297811  1678.44039735099 212.02333297811  1678.44039735099 212.02333297811  C 1675.67897360184 212.02333297811  1673.44039735099 209.784756727264  1673.44039735099 207.02333297811  Z " fill-rule="nonzero" fill="#000000" stroke="none" fill-opacity="0.8" />
  </g>
</svg>