<?xml version="1.0" encoding="utf-8"?>
<svg version="1.1" xmlns:xlink="http://www.w3.org/1999/xlink" width="71px" height="235px" xmlns="http://www.w3.org/2000/svg">
  <g transform="matrix(1 0 0 1 -1331 195 )">
    <path d="M 1331.62262571865 34.315532728338  C 1331.62262571865 34.315532728338  1331.62262571865 -175.004219409283  1331.62262571865 -175.004219409283  C 1331.62262571865 -177.765643158437  1333.8612019695 -180.004219409283  1336.62262571865 -180.004219409283  C 1336.62262571865 -180.004219409283  1368.34299780427 -180.004219409283  1368.34299780427 -180.004219409283  C 1368.34299780427 -180.004219409283  1378.15241280459 -194.04347826087  1378.15241280459 -194.04347826087  C 1378.15241280459 -194.04347826087  1388.34299780427 -180.004219409283  1388.34299780427 -180.004219409283  C 1388.34299780427 -180.004219409283  1396.37737428135 -180.004219409283  1396.37737428135 -180.004219409283  C 1399.1387980305 -180.004219409283  1401.37737428135 -177.765643158437  1401.37737428135 -175.004219409283  C 1401.37737428135 -175.004219409283  1401.37737428135 34.3155327283381  1401.37737428135 34.3155327283381  C 1401.37737428135 37.076956477492  1399.1387980305 39.3155327283381  1396.37737428135 39.3155327283381  C 1396.37737428135 39.3155327283381  1336.62262571865 39.3155327283381  1336.62262571865 39.3155327283381  C 1333.8612019695 39.3155327283381  1331.62262571865 37.076956477492  1331.62262571865 34.315532728338  Z " fill-rule="nonzero" fill="#000000" stroke="none" />
  </g>
</svg>