<?xml version="1.0" encoding="utf-8"?>
<svg version="1.1" xmlns:xlink="http://www.w3.org/1999/xlink" width="329px" height="10px" preserveAspectRatio="xMinYMid meet" viewBox="1408 685  329 8" xmlns="http://www.w3.org/2000/svg">
  <path d="M 1241.95969769413 446.341470984808  A 1 1 0 0 0 1242.5 446.5 L 1408 446.5  A 5 5 0 0 1 1413.5 451.5 L 1413.5 684  A 5 5 0 0 0 1418.5 689.5 L 1736 689.5  " stroke-width="1" stroke="#d9001b" fill="none" />
  <path d="M 1243.42920367321 443.5  A 3 3 0 0 0 1240.42920367321 446.5 A 3 3 0 0 0 1243.42920367321 449.5 A 3 3 0 0 0 1246.42920367321 446.5 A 3 3 0 0 0 1243.42920367321 443.5 Z M 1730.94644660941 684.853553390593  L 1735.59289321881 689.5  L 1730.94644660941 694.146446609407  L 1731.65355339059 694.853553390593  L 1736.65355339059 689.853553390593  L 1737.00710678119 689.5  L 1736.65355339059 689.146446609407  L 1731.65355339059 684.146446609407  L 1730.94644660941 684.853553390593  Z " fill-rule="nonzero" fill="#d9001b" stroke="none" />
</svg>