<?xml version="1.0" encoding="utf-8"?>
<svg version="1.1" xmlns:xlink="http://www.w3.org/1999/xlink" width="18px" height="18px" preserveAspectRatio="xMinYMid meet" viewBox="499 441  18 16" xmlns="http://www.w3.org/2000/svg">
  <path d="M 508.665129161056 451.518415909612  A 3 3 0 0 1 511.5 449.5 L 886 449.5  " stroke-width="1" stroke="#d9001b" fill="none" />
  <path d="M 509.879093082396 446.975587045576  A 3 3 0 0 0 506.879093082396 449.975587045576 A 3 3 0 0 0 509.879093082396 452.975587045576 A 3 3 0 0 0 512.879093082396 449.975587045576 A 3 3 0 0 0 509.879093082396 446.975587045576 Z M 880.946446609407 444.853553390593  L 885.592893218814 449.5  L 880.946446609407 454.146446609407  L 881.653553390593 454.853553390593  L 886.653553390593 449.853553390593  L 887.007106781187 449.5  L 886.653553390593 449.146446609407  L 881.653553390593 444.146446609407  L 880.946446609407 444.853553390593  Z " fill-rule="nonzero" fill="#d9001b" stroke="none" />
</svg>