<?xml version="1.0" encoding="utf-8"?>
<svg version="1.1" xmlns:xlink="http://www.w3.org/1999/xlink" width="10px" height="15px" preserveAspectRatio="xMidYMin meet" viewBox="2543 639  8 15" xmlns="http://www.w3.org/2000/svg">
  <path d="M 2547.5 640  L 2547.5 644  A 5 5 0 0 0 2552.5 649.5 L 2882 649.5  A 5 5 0 0 1 2887.5 654.5 L 2887.5 733  A 5 5 0 0 0 2892.5 738.5 L 3099 738.5  " stroke-width="1" stroke="#d9001b" fill="none" />
  <path d="M 2547.5 639  A 3 3 0 0 0 2544.5 642 A 3 3 0 0 0 2547.5 645 A 3 3 0 0 0 2550.5 642 A 3 3 0 0 0 2547.5 639 Z M 3093.94644660941 733.853553390593  L 3098.59289321881 738.5  L 3093.94644660941 743.146446609407  L 3094.65355339059 743.853553390593  L 3099.65355339059 738.853553390593  L 3100.00710678119 738.5  L 3099.65355339059 738.146446609407  L 3094.65355339059 733.146446609407  L 3093.94644660941 733.853553390593  Z " fill-rule="nonzero" fill="#d9001b" stroke="none" />
</svg>