<?xml version="1.0" encoding="utf-8"?>
<svg version="1.1" xmlns:xlink="http://www.w3.org/1999/xlink" width="10px" height="7px" preserveAspectRatio="xMinYMid meet" viewBox="3035 1024  10 5" xmlns="http://www.w3.org/2000/svg">
  <path d="M 3040.74483487622 1029.54114892279  A 2 2 0 0 1 3042.5 1028.5 L 3107 1028.5  " stroke-width="1" stroke="#d9001b" fill="none" />
  <path d="M 3042.35852559666 1025.50501002679  A 3 3 0 0 0 3039.35852559666 1028.50501002679 A 3 3 0 0 0 3042.35852559666 1031.50501002679 A 3 3 0 0 0 3045.35852559666 1028.50501002679 A 3 3 0 0 0 3042.35852559666 1025.50501002679 Z M 3105 1025.5  A 3 3 0 0 0 3102 1028.5 A 3 3 0 0 0 3105 1031.5 A 3 3 0 0 0 3108 1028.5 A 3 3 0 0 0 3105 1025.5 Z " fill-rule="nonzero" fill="#d9001b" stroke="none" />
</svg>