<?xml version="1.0" encoding="utf-8"?>
<svg version="1.1" xmlns:xlink="http://www.w3.org/1999/xlink" width="68px" height="10px" preserveAspectRatio="xMinYMid meet" viewBox="2586 731  68 8" xmlns="http://www.w3.org/2000/svg">
  <path d="M 2648 735.5  L 2587 735.5  " stroke-width="1" stroke="#d9001b" fill="none" />
  <path d="M 2646 732.5  A 3 3 0 0 0 2643 735.5 A 3 3 0 0 0 2646 738.5 A 3 3 0 0 0 2649 735.5 A 3 3 0 0 0 2646 732.5 Z M 2589 732.5  A 3 3 0 0 0 2586 735.5 A 3 3 0 0 0 2589 738.5 A 3 3 0 0 0 2592 735.5 A 3 3 0 0 0 2589 732.5 Z " fill-rule="nonzero" fill="#d9001b" stroke="none" />
</svg>