<?xml version="1.0" encoding="utf-8"?>
<svg version="1.1" xmlns:xlink="http://www.w3.org/1999/xlink" width="10px" height="9px" preserveAspectRatio="xMinYMid meet" viewBox="2075 982  10 7" xmlns="http://www.w3.org/2000/svg">
  <path d="M 2080.62435031316 989.510384162982  A 4 4 0 0 1 2084.5 986.5 L 2256 986.5  A 5 5 0 0 0 2261.5 981.5 L 2261.5 694  A 5 5 0 0 1 2266.5 689.5 L 2442 689.5  " stroke-width="1" stroke="#d9001b" fill="none" />
  <path d="M 2081.5732445245 984.773444959907  A 3 3 0 0 0 2078.5732445245 987.773444959907 A 3 3 0 0 0 2081.5732445245 990.773444959907 A 3 3 0 0 0 2084.5732445245 987.773444959907 A 3 3 0 0 0 2081.5732445245 984.773444959907 Z M 2436.94644660941 684.853553390593  L 2441.59289321881 689.5  L 2436.94644660941 694.146446609407  L 2437.65355339059 694.853553390593  L 2442.65355339059 689.853553390593  L 2443.00710678119 689.5  L 2442.65355339059 689.146446609407  L 2437.65355339059 684.146446609407  L 2436.94644660941 684.853553390593  Z " fill-rule="nonzero" fill="#d9001b" stroke="none" />
</svg>