<?xml version="1.0" encoding="utf-8"?>
<svg version="1.1" xmlns:xlink="http://www.w3.org/1999/xlink" width="18px" height="18px" preserveAspectRatio="xMinYMid meet" viewBox="2407 575  18 16" xmlns="http://www.w3.org/2000/svg">
  <path d="M 2457.33487083894 581.481584090388  A 3 3 0 0 1 2454.5 583.5 L 2414 583.5  " stroke-width="1" stroke="#d9001b" fill="none" />
  <path d="M 2456.1209069176 580.024412954424  A 3 3 0 0 0 2453.1209069176 583.024412954424 A 3 3 0 0 0 2456.1209069176 586.024412954424 A 3 3 0 0 0 2459.1209069176 583.024412954424 A 3 3 0 0 0 2456.1209069176 580.024412954424 Z M 2416 580.5  A 3 3 0 0 0 2413 583.5 A 3 3 0 0 0 2416 586.5 A 3 3 0 0 0 2419 583.5 A 3 3 0 0 0 2416 580.5 Z " fill-rule="nonzero" fill="#d9001b" stroke="none" />
</svg>