<?xml version="1.0" encoding="utf-8"?>
<svg version="1.1" xmlns:xlink="http://www.w3.org/1999/xlink" width="10px" height="373px" preserveAspectRatio="xMidYMin meet" viewBox="3568 1001  8 373" xmlns="http://www.w3.org/2000/svg">
  <path d="M 3469 1006.5  L 3567 1006.5  A 5 5 0 0 1 3572.5 1011.5 L 3572.5 1364  A 5 5 0 0 1 3567.5 1369.5 L 3476 1369.5  " stroke-width="1" stroke="#d9001b" fill="none" />
  <path d="M 3471 1003.5  A 3 3 0 0 0 3468 1006.5 A 3 3 0 0 0 3471 1009.5 A 3 3 0 0 0 3474 1006.5 A 3 3 0 0 0 3471 1003.5 Z M 3481.05355339059 1374.14644660941  L 3476.40710678119 1369.5  L 3481.05355339059 1364.85355339059  L 3480.34644660941 1364.14644660941  L 3475.34644660941 1369.14644660941  L 3474.99289321881 1369.5  L 3475.34644660941 1369.85355339059  L 3480.34644660941 1374.85355339059  L 3481.05355339059 1374.14644660941  Z " fill-rule="nonzero" fill="#d9001b" stroke="none" />
</svg>