<?xml version="1.0" encoding="utf-8"?>
<svg version="1.1" xmlns:xlink="http://www.w3.org/1999/xlink" width="18px" height="18px" preserveAspectRatio="xMinYMid meet" viewBox="2416 619  18 16" xmlns="http://www.w3.org/2000/svg">
  <path d="M 2459.04030230587 627.658529015192  A 1 1 0 0 0 2458.5 627.5 L 2423 627.5  " stroke-width="1" stroke="#d9001b" fill="none" />
  <path d="M 2456.5707963268 624.5  A 3 3 0 0 0 2453.5707963268 627.5 A 3 3 0 0 0 2456.5707963268 630.5 A 3 3 0 0 0 2459.5707963268 627.5 A 3 3 0 0 0 2456.5707963268 624.5 Z M 2425 624.5  A 3 3 0 0 0 2422 627.5 A 3 3 0 0 0 2425 630.5 A 3 3 0 0 0 2428 627.5 A 3 3 0 0 0 2425 624.5 Z " fill-rule="nonzero" fill="#d9001b" stroke="none" />
</svg>