<?xml version="1.0" encoding="utf-8"?>
<svg version="1.1" xmlns:xlink="http://www.w3.org/1999/xlink" width="18px" height="18px" preserveAspectRatio="xMinYMid meet" viewBox="2172 1612  18 16" xmlns="http://www.w3.org/2000/svg">
  <path d="M 1975.74483487622 1621.54114892279  A 2 2 0 0 1 1977.5 1620.5 L 2181 1620.5  " stroke-width="1" stroke="#d9001b" fill="none" />
  <path d="M 1977.35852559666 1617.50501002679  A 3 3 0 0 0 1974.35852559666 1620.50501002679 A 3 3 0 0 0 1977.35852559666 1623.50501002679 A 3 3 0 0 0 1980.35852559666 1620.50501002679 A 3 3 0 0 0 1977.35852559666 1617.50501002679 Z M 2175.94644660941 1615.85355339059  L 2180.59289321881 1620.5  L 2175.94644660941 1625.14644660941  L 2176.65355339059 1625.85355339059  L 2181.65355339059 1620.85355339059  L 2182.00710678119 1620.5  L 2181.65355339059 1620.14644660941  L 2176.65355339059 1615.14644660941  L 2175.94644660941 1615.85355339059  Z " fill-rule="nonzero" fill="#d9001b" stroke="none" />
</svg>