<?xml version="1.0" encoding="utf-8"?>
<svg version="1.1" xmlns:xlink="http://www.w3.org/1999/xlink" width="12px" height="12px" viewBox="561 162.5  12 12" xmlns="http://www.w3.org/2000/svg">
  <path d="M 561.5 164.5  A 1.5 1.5 0 0 1 563 163 L 571 163  A 1.5 1.5 0 0 1 572.5 164.5 L 572.5 172.5  A 1.5 1.5 0 0 1 571 174 L 563 174  A 1.5 1.5 0 0 1 561.5 172.5 L 561.5 164.5  Z " fill-rule="nonzero" fill="#ffffff" stroke="none" />
  <path d="M 561.5 164.5  A 1.5 1.5 0 0 1 563 163 L 571 163  A 1.5 1.5 0 0 1 572.5 164.5 L 572.5 172.5  A 1.5 1.5 0 0 1 571 174 L 563 174  A 1.5 1.5 0 0 1 561.5 172.5 L 561.5 164.5  Z " stroke-width="1" stroke="#797979" fill="none" />
</svg>