<?xml version="1.0" encoding="utf-8"?>
<svg version="1.1" xmlns:xlink="http://www.w3.org/1999/xlink" width="12px" height="12px" viewBox="320 200.5  12 12" xmlns="http://www.w3.org/2000/svg">
  <path d="M 320.5 202.5  A 1.5 1.5 0 0 1 322 201 L 330 201  A 1.5 1.5 0 0 1 331.5 202.5 L 331.5 210.5  A 1.5 1.5 0 0 1 330 212 L 322 212  A 1.5 1.5 0 0 1 320.5 210.5 L 320.5 202.5  Z " fill-rule="nonzero" fill="#f0f0f0" stroke="none" />
  <path d="M 320.5 202.5  A 1.5 1.5 0 0 1 322 201 L 330 201  A 1.5 1.5 0 0 1 331.5 202.5 L 331.5 210.5  A 1.5 1.5 0 0 1 330 212 L 322 212  A 1.5 1.5 0 0 1 320.5 210.5 L 320.5 202.5  Z " stroke-width="1" stroke="#797979" fill="none" />
</svg>