<?xml version="1.0" encoding="utf-8"?>
<svg version="1.1" xmlns:xlink="http://www.w3.org/1999/xlink" width="12px" height="12px" viewBox="793 10.5  12 12" xmlns="http://www.w3.org/2000/svg">
  <path d="M 793.5 12.5  A 1.5 1.5 0 0 1 795 11 L 803 11  A 1.5 1.5 0 0 1 804.5 12.5 L 804.5 20.5  A 1.5 1.5 0 0 1 803 22 L 795 22  A 1.5 1.5 0 0 1 793.5 20.5 L 793.5 12.5  Z " fill-rule="nonzero" fill="#ffffff" stroke="none" />
  <path d="M 793.5 12.5  A 1.5 1.5 0 0 1 795 11 L 803 11  A 1.5 1.5 0 0 1 804.5 12.5 L 804.5 20.5  A 1.5 1.5 0 0 1 803 22 L 795 22  A 1.5 1.5 0 0 1 793.5 20.5 L 793.5 12.5  Z " stroke-width="1" stroke="#797979" fill="none" />
</svg>