<?xml version="1.0" encoding="utf-8"?>
<svg version="1.1" xmlns:xlink="http://www.w3.org/1999/xlink" width="12px" height="12px" viewBox="255 571  12 12" xmlns="http://www.w3.org/2000/svg">
  <path d="M 255.5 573  A 1.5 1.5 0 0 1 257 571.5 L 265 571.5  A 1.5 1.5 0 0 1 266.5 573 L 266.5 581  A 1.5 1.5 0 0 1 265 582.5 L 257 582.5  A 1.5 1.5 0 0 1 255.5 581 L 255.5 573  Z " fill-rule="nonzero" fill="#f0f0f0" stroke="none" />
  <path d="M 255.5 573  A 1.5 1.5 0 0 1 257 571.5 L 265 571.5  A 1.5 1.5 0 0 1 266.5 573 L 266.5 581  A 1.5 1.5 0 0 1 265 582.5 L 257 582.5  A 1.5 1.5 0 0 1 255.5 581 L 255.5 573  Z " stroke-width="1" stroke="#aaaaaa" fill="none" />
  <path d="M 257.571428571429 577  L 260.142857142857 579.571428571429  " stroke-width="2.57142857142857" stroke="#aaaaaa" fill="none" />
  <path d="M 260.142857142857 579.571428571429  L 264.428571428571 573.571428571429  " stroke-width="2.57142857142857" stroke="#aaaaaa" fill="none" />
</svg>