<?xml version="1.0" encoding="utf-8"?>
<svg version="1.1" xmlns:xlink="http://www.w3.org/1999/xlink" width="12px" height="12px" viewBox="255 533  12 12" xmlns="http://www.w3.org/2000/svg">
  <path d="M 255.5 535  A 1.5 1.5 0 0 1 257 533.5 L 265 533.5  A 1.5 1.5 0 0 1 266.5 535 L 266.5 543  A 1.5 1.5 0 0 1 265 544.5 L 257 544.5  A 1.5 1.5 0 0 1 255.5 543 L 255.5 535  Z " fill-rule="nonzero" fill="#f0f0f0" stroke="none" />
  <path d="M 255.5 535  A 1.5 1.5 0 0 1 257 533.5 L 265 533.5  A 1.5 1.5 0 0 1 266.5 535 L 266.5 543  A 1.5 1.5 0 0 1 265 544.5 L 257 544.5  A 1.5 1.5 0 0 1 255.5 543 L 255.5 535  Z " stroke-width="1" stroke="#aaaaaa" fill="none" />
</svg>