<?xml version="1.0" encoding="utf-8"?>
<svg version="1.1" xmlns:xlink="http://www.w3.org/1999/xlink" width="12px" height="12px" viewBox="255 611  12 12" xmlns="http://www.w3.org/2000/svg">
  <path d="M 255.5 613  A 1.5 1.5 0 0 1 257 611.5 L 265 611.5  A 1.5 1.5 0 0 1 266.5 613 L 266.5 621  A 1.5 1.5 0 0 1 265 622.5 L 257 622.5  A 1.5 1.5 0 0 1 255.5 621 L 255.5 613  Z " fill-rule="nonzero" fill="#f0f0f0" stroke="none" />
  <path d="M 255.5 613  A 1.5 1.5 0 0 1 257 611.5 L 265 611.5  A 1.5 1.5 0 0 1 266.5 613 L 266.5 621  A 1.5 1.5 0 0 1 265 622.5 L 257 622.5  A 1.5 1.5 0 0 1 255.5 621 L 255.5 613  Z " stroke-width="1" stroke="#aaaaaa" fill="none" />
</svg>