<?xml version="1.0" encoding="utf-8"?>
<svg version="1.1" xmlns:xlink="http://www.w3.org/1999/xlink" width="12px" height="12px" viewBox="254 748  12 12" xmlns="http://www.w3.org/2000/svg">
  <path d="M 254.5 750  A 1.5 1.5 0 0 1 256 748.5 L 264 748.5  A 1.5 1.5 0 0 1 265.5 750 L 265.5 758  A 1.5 1.5 0 0 1 264 759.5 L 256 759.5  A 1.5 1.5 0 0 1 254.5 758 L 254.5 750  Z " fill-rule="nonzero" fill="#f0f0f0" stroke="none" />
  <path d="M 254.5 750  A 1.5 1.5 0 0 1 256 748.5 L 264 748.5  A 1.5 1.5 0 0 1 265.5 750 L 265.5 758  A 1.5 1.5 0 0 1 264 759.5 L 256 759.5  A 1.5 1.5 0 0 1 254.5 758 L 254.5 750  Z " stroke-width="1" stroke="#aaaaaa" fill="none" />
</svg>