<?xml version="1.0" encoding="utf-8"?>
<svg version="1.1" xmlns:xlink="http://www.w3.org/1999/xlink" width="567px" height="315px" xmlns="http://www.w3.org/2000/svg">
  <g transform="matrix(1 0 0 1 -46 -431 )">
    <path d="M 47 436  A 4 4 0 0 1 51 432 L 608 432  A 4 4 0 0 1 612 436 L 612 741  A 4 4 0 0 1 608 745 L 51 745  A 4 4 0 0 1 47 741 L 47 436  Z " fill-rule="nonzero" fill="#ffffff" stroke="none" />
    <path d="M 46.5 436  A 4.5 4.5 0 0 1 51 431.5 L 608 431.5  A 4.5 4.5 0 0 1 612.5 436 L 612.5 741  A 4.5 4.5 0 0 1 608 745.5 L 51 745.5  A 4.5 4.5 0 0 1 46.5 741 L 46.5 436  Z " stroke-width="1" stroke-dasharray="9,4" stroke="#027db4" fill="none" stroke-dashoffset="0.5" />
  </g>
</svg>