<?xml version="1.0" encoding="utf-8"?>
<svg version="1.1" xmlns:xlink="http://www.w3.org/1999/xlink" width="10px" height="10px" xmlns="http://www.w3.org/2000/svg">
  <g transform="matrix(1 0 0 1 -469 395 )">
    <path d="M 474 -394.5  C 476.52 -394.5  478.5 -392.52  478.5 -390  C 478.5 -387.48  476.52 -385.5  474 -385.5  C 471.48 -385.5  469.5 -387.48  469.5 -390  C 469.5 -392.52  471.48 -394.5  474 -394.5  Z " fill-rule="nonzero" fill="#ffffff" stroke="none" fill-opacity="0" />
    <path d="M 474 -394.5  C 476.52 -394.5  478.5 -392.52  478.5 -390  C 478.5 -387.48  476.52 -385.5  474 -385.5  C 471.48 -385.5  469.5 -387.48  469.5 -390  C 469.5 -392.52  471.48 -394.5  474 -394.5  Z " stroke-width="1" stroke-dasharray="9,4" stroke="#d7d7d7" fill="none" stroke-dashoffset="0.5" />
  </g>
</svg>