<?xml version="1.0" encoding="utf-8"?>
<svg version="1.1" xmlns:xlink="http://www.w3.org/1999/xlink" width="654px" height="712px" xmlns="http://www.w3.org/2000/svg">
  <g transform="matrix(1 0 0 1 -1445 -44 )">
    <path d="M 1446 48  A 3 3 0 0 1 1449 45 L 2095 45  A 3 3 0 0 1 2098 48 L 2098 752  A 3 3 0 0 1 2095 755 L 1449 755  A 3 3 0 0 1 1446 752 L 1446 48  Z " fill-rule="nonzero" fill="#ffffff" stroke="none" fill-opacity="0.0352941176470588" />
    <path d="M 1445.5 48  A 3.5 3.5 0 0 1 1449 44.5 L 2095 44.5  A 3.5 3.5 0 0 1 2098.5 48 L 2098.5 752  A 3.5 3.5 0 0 1 2095 755.5 L 1449 755.5  A 3.5 3.5 0 0 1 1445.5 752 L 1445.5 48  Z " stroke-width="1" stroke-dasharray="9,4" stroke="#ec808d" fill="none" stroke-dashoffset="0.5" />
  </g>
</svg>