<?xml version="1.0" encoding="utf-8"?>
<svg version="1.1" xmlns:xlink="http://www.w3.org/1999/xlink" width="12px" height="12px" viewBox="-63 409  12 12" xmlns="http://www.w3.org/2000/svg">
  <path d="M -62.5 411  A 1.5 1.5 0 0 1 -61 409.5 L -53 409.5  A 1.5 1.5 0 0 1 -51.5 411 L -51.5 419  A 1.5 1.5 0 0 1 -53 420.5 L -61 420.5  A 1.5 1.5 0 0 1 -62.5 419 L -62.5 411  Z " fill-rule="nonzero" fill="#f0f0f0" stroke="none" />
  <path d="M -62.5 411  A 1.5 1.5 0 0 1 -61 409.5 L -53 409.5  A 1.5 1.5 0 0 1 -51.5 411 L -51.5 419  A 1.5 1.5 0 0 1 -53 420.5 L -61 420.5  A 1.5 1.5 0 0 1 -62.5 419 L -62.5 411  Z " stroke-width="1" stroke="#aaaaaa" fill="none" />
  <path d="M -60.4285714285714 415  L -57.8571428571429 417.571428571429  " stroke-width="2.57142857142857" stroke="#aaaaaa" fill="none" />
  <path d="M -57.8571428571429 417.571428571429  L -53.5714285714286 411.571428571429  " stroke-width="2.57142857142857" stroke="#aaaaaa" fill="none" />
</svg>