<?xml version="1.0" encoding="utf-8"?>
<svg version="1.1" xmlns:xlink="http://www.w3.org/1999/xlink" width="12px" height="12px" viewBox="-63 525  12 12" xmlns="http://www.w3.org/2000/svg">
  <path d="M -62.5 527  A 1.5 1.5 0 0 1 -61 525.5 L -53 525.5  A 1.5 1.5 0 0 1 -51.5 527 L -51.5 535  A 1.5 1.5 0 0 1 -53 536.5 L -61 536.5  A 1.5 1.5 0 0 1 -62.5 535 L -62.5 527  Z " fill-rule="nonzero" fill="#ffffff" stroke="none" />
  <path d="M -62.5 527  A 1.5 1.5 0 0 1 -61 525.5 L -53 525.5  A 1.5 1.5 0 0 1 -51.5 527 L -51.5 535  A 1.5 1.5 0 0 1 -53 536.5 L -61 536.5  A 1.5 1.5 0 0 1 -62.5 535 L -62.5 527  Z " stroke-width="1" stroke="#aaaaaa" fill="none" />
</svg>