<?xml version="1.0" encoding="utf-8"?>
<svg version="1.1" xmlns:xlink="http://www.w3.org/1999/xlink" width="12px" height="12px" viewBox="-63 488  12 12" xmlns="http://www.w3.org/2000/svg">
  <path d="M -62.5 490  A 1.5 1.5 0 0 1 -61 488.5 L -53 488.5  A 1.5 1.5 0 0 1 -51.5 490 L -51.5 498  A 1.5 1.5 0 0 1 -53 499.5 L -61 499.5  A 1.5 1.5 0 0 1 -62.5 498 L -62.5 490  Z " fill-rule="nonzero" fill="#f0f0f0" stroke="none" />
  <path d="M -62.5 490  A 1.5 1.5 0 0 1 -61 488.5 L -53 488.5  A 1.5 1.5 0 0 1 -51.5 490 L -51.5 498  A 1.5 1.5 0 0 1 -53 499.5 L -61 499.5  A 1.5 1.5 0 0 1 -62.5 498 L -62.5 490  Z " stroke-width="1" stroke="#aaaaaa" fill="none" />
</svg>