<?xml version="1.0" encoding="utf-8"?>
<svg version="1.1" xmlns:xlink="http://www.w3.org/1999/xlink" width="12px" height="12px" viewBox="-254 626  12 12" xmlns="http://www.w3.org/2000/svg">
  <path d="M -253.5 628  A 1.5 1.5 0 0 1 -252 626.5 L -244 626.5  A 1.5 1.5 0 0 1 -242.5 628 L -242.5 636  A 1.5 1.5 0 0 1 -244 637.5 L -252 637.5  A 1.5 1.5 0 0 1 -253.5 636 L -253.5 628  Z " fill-rule="nonzero" fill="#ffffff" stroke="none" />
  <path d="M -253.5 628  A 1.5 1.5 0 0 1 -252 626.5 L -244 626.5  A 1.5 1.5 0 0 1 -242.5 628 L -242.5 636  A 1.5 1.5 0 0 1 -244 637.5 L -252 637.5  A 1.5 1.5 0 0 1 -253.5 636 L -253.5 628  Z " stroke-width="1" stroke="#aaaaaa" fill="none" />
</svg>