<?xml version="1.0" encoding="utf-8"?>
<svg version="1.1" xmlns:xlink="http://www.w3.org/1999/xlink" width="567px" height="145px" xmlns="http://www.w3.org/2000/svg">
  <g transform="matrix(1 0 0 1 -46 -273 )">
    <path d="M 47 278  A 4 4 0 0 1 51 274 L 608 274  A 4 4 0 0 1 612 278 L 612 413  A 4 4 0 0 1 608 417 L 51 417  A 4 4 0 0 1 47 413 L 47 278  Z " fill-rule="nonzero" fill="#ffffff" stroke="none" />
    <path d="M 46.5 278  A 4.5 4.5 0 0 1 51 273.5 L 608 273.5  A 4.5 4.5 0 0 1 612.5 278 L 612.5 413  A 4.5 4.5 0 0 1 608 417.5 L 51 417.5  A 4.5 4.5 0 0 1 46.5 413 L 46.5 278  Z " stroke-width="1" stroke-dasharray="9,4" stroke="#027db4" fill="none" stroke-dashoffset="0.5" />
  </g>
</svg>